<?xml version="1.0" encoding="utf-8"?>
<!-- Generator: Adobe Illustrator 17.0.0, SVG Export Plug-In . SVG Version: 6.00 Build 0)  -->
<!DOCTYPE svg PUBLIC "-//W3C//DTD SVG 1.1//EN" "http://www.w3.org/Graphics/SVG/1.1/DTD/svg11.dtd">
<svg version="1.1" xmlns="http://www.w3.org/2000/svg" xmlns:xlink="http://www.w3.org/1999/xlink" x="0px" y="0px"
	 width="600.018px" height="402px" viewBox="0 0 600.018 402" enable-background="new 0 0 600.018 402" xml:space="preserve">
<g id="Livello_2" display="none">
	<rect x="-27.869" y="-18.113" display="inline" fill="#484847" width="663.887" height="450.113"/>
</g>
<g id="Layer_1">
	<polygon fill="#FFFFFF" points="55.933,325.638 55.933,343.633 42.682,343.633 42.682,325.638 33.697,325.638 33.697,370.11 
		42.682,370.11 42.682,351.083 55.933,351.083 55.933,370.11 64.893,370.11 64.893,325.638 	"/>
	<path fill="#FFFFFF" d="M87.737,337.681l4.153,15.843h-8.306L87.737,337.681z M83.647,325.638L69.754,370.11h9.488l2.391-9.098
		h12.244l2.391,9.098h9.589l-14.006-44.472H83.647z"/>
	<path fill="#FFFFFF" d="M139.518,355.298c-0.227,5.071-1.649,8.91-4.279,11.514c-2.63,2.605-6.33,3.914-11.112,3.914
		c-2.466,0-4.669-0.403-6.607-1.221s-3.561-2.026-4.883-3.637c-1.321-1.611-2.341-3.599-3.045-5.977
		c-0.705-2.366-1.057-5.097-1.057-8.192v-7.576c0-3.096,0.365-5.839,1.095-8.217c0.717-2.391,1.762-4.379,3.121-5.99
		c1.372-1.611,3.02-2.831,4.958-3.649c1.925-0.831,4.115-1.246,6.531-1.246c4.845,0,8.532,1.359,11.049,4.065
		c2.517,2.706,3.939,6.607,4.291,11.665h-9.01c-0.05-1.586-0.176-2.907-0.415-3.977c-0.239-1.07-0.591-1.925-1.082-2.555
		c-0.491-0.629-1.133-1.082-1.913-1.346c-0.78-0.264-1.762-0.39-2.92-0.39c-1.195,0-2.227,0.201-3.071,0.604
		c-0.843,0.415-1.535,1.07-2.064,1.976c-0.529,0.906-0.919,2.089-1.17,3.574c-0.252,1.472-0.378,3.284-0.378,5.424v7.639
		c0,2.076,0.101,3.838,0.302,5.31c0.201,1.46,0.554,2.668,1.07,3.586c0.503,0.931,1.183,1.611,2.013,2.039s1.9,0.642,3.184,0.642
		c1.095,0,2.039-0.126,2.819-0.352c0.78-0.239,1.435-0.654,1.938-1.246c0.516-0.591,0.893-1.397,1.158-2.441
		c0.264-1.032,0.428-2.353,0.491-3.939H139.518z"/>
	<polygon fill="#FFFFFF" points="165.147,325.638 156.867,340.235 154.023,345.042 154.023,325.638 145.038,325.638 145.038,370.11 
		154.023,370.11 154.023,357.412 157.571,352.945 165.701,370.11 176.359,370.11 163.398,345.181 176.145,325.638 	"/>
	<polygon fill="#FFFFFF" points="194.073,325.638 194.073,370.11 203.058,370.11 203.058,351.964 217.014,351.964 217.014,344.514 
		203.058,344.514 203.058,333.125 218.712,333.125 218.712,325.638 	"/>
	<path fill="#FFFFFF" d="M246.134,344.427c0-2.127-0.151-3.926-0.466-5.424c-0.302-1.497-0.742-2.731-1.334-3.687
		c-0.591-0.956-1.334-1.661-2.202-2.102c-0.881-0.453-1.888-0.68-3.02-0.68c-1.17,0-2.19,0.227-3.058,0.68
		c-0.881,0.44-1.611,1.145-2.202,2.102c-0.591,0.956-1.044,2.19-1.346,3.687c-0.302,1.498-0.453,3.297-0.453,5.424v7.45
		c0,2.013,0.151,3.737,0.453,5.172c0.302,1.447,0.755,2.617,1.359,3.536c0.604,0.919,1.346,1.586,2.227,2.013
		c0.893,0.428,1.913,0.642,3.071,0.642c1.145,0,2.152-0.214,3.02-0.642c0.856-0.428,1.586-1.095,2.177-2.013
		c0.591-0.919,1.032-2.089,1.334-3.536c0.289-1.435,0.44-3.159,0.44-5.172V344.427z M255.145,351.877
		c0,3.121-0.39,5.852-1.158,8.217c-0.78,2.366-1.862,4.329-3.259,5.902c-1.397,1.56-3.071,2.743-5.034,3.536
		c-1.976,0.793-4.14,1.195-6.531,1.195c-2.378,0-4.555-0.403-6.531-1.195c-1.976-0.793-3.675-1.976-5.084-3.536
		c-1.422-1.573-2.517-3.536-3.297-5.902c-0.793-2.366-1.183-5.097-1.183-8.217v-7.387c0-3.209,0.39-6.015,1.158-8.457
		c0.78-2.429,1.862-4.455,3.272-6.091c1.409-1.623,3.096-2.857,5.071-3.687c1.976-0.818,4.153-1.233,6.544-1.233
		c2.378,0,4.555,0.415,6.519,1.233c1.963,0.831,3.649,2.064,5.071,3.687c1.409,1.636,2.504,3.662,3.284,6.091
		c0.768,2.441,1.158,5.248,1.158,8.457V351.877z"/>
	<path fill="#FFFFFF" d="M270.608,346.375h5.097c1.787,0,3.133-0.591,4.027-1.787c0.906-1.183,1.346-2.781,1.346-4.782
		c0-1.019-0.088-1.938-0.289-2.756c-0.189-0.831-0.503-1.535-0.919-2.114c-0.415-0.579-0.944-1.032-1.598-1.346
		c-0.654-0.315-1.422-0.466-2.328-0.466h-5.336V346.375z M275.063,353.862h-4.455v16.246h-8.985v-44.472h14.321
		c2.227,0,4.203,0.289,5.952,0.868c1.737,0.579,3.209,1.435,4.43,2.567c1.208,1.133,2.139,2.529,2.769,4.203
		c0.642,1.674,0.969,3.599,0.969,5.801c0,1.611-0.151,3.058-0.44,4.354c-0.302,1.296-0.73,2.441-1.284,3.448
		c-0.566,1.007-1.246,1.888-2.039,2.643s-1.686,1.409-2.68,1.963l7.79,18.197v0.428h-9.652L275.063,353.862z"/>
	<path fill="#FFFFFF" d="M319.637,350.773v11.892h5.738c0.881,0,1.623-0.151,2.253-0.428c0.617-0.289,1.12-0.692,1.523-1.208
		c0.39-0.516,0.68-1.133,0.868-1.825c0.189-0.692,0.277-1.447,0.277-2.29c0-1.888-0.352-3.385-1.057-4.493
		c-0.705-1.095-1.888-1.648-3.561-1.648H319.637z M319.637,344.242h4.669c1.8,0,3.121-0.466,3.989-1.397
		c0.868-0.919,1.296-2.278,1.296-4.077c0-2.013-0.403-3.461-1.221-4.329c-0.818-0.881-2.139-1.321-3.977-1.321h-4.757V344.242z
		 M310.652,370.115V325.63h13.742c2.227,0,4.216,0.252,5.977,0.742c1.762,0.491,3.259,1.233,4.48,2.24
		c1.221,1.007,2.152,2.278,2.794,3.8c0.642,1.535,0.956,3.335,0.956,5.411c0,1.019-0.101,2.001-0.315,2.932
		c-0.214,0.944-0.554,1.812-1.007,2.63c-0.466,0.818-1.044,1.548-1.749,2.215c-0.705,0.654-1.535,1.208-2.517,1.636
		c1.145,0.327,2.102,0.818,2.907,1.472c0.793,0.667,1.435,1.435,1.925,2.315c0.478,0.868,0.843,1.825,1.057,2.857
		c0.227,1.032,0.34,2.076,0.34,3.159c0,4.316-1.183,7.576-3.561,9.778c-2.366,2.202-5.801,3.297-10.306,3.297H310.652z"/>
	<path fill="#FFFFFF" d="M374.682,325.635v30.554c0,2.58-0.365,4.795-1.082,6.619c-0.73,1.837-1.737,3.335-3.033,4.505
		c-1.284,1.17-2.831,2.039-4.618,2.592c-1.8,0.541-3.75,0.818-5.864,0.818c-2.164,0-4.14-0.277-5.952-0.818
		c-1.8-0.554-3.347-1.422-4.644-2.592c-1.284-1.17-2.29-2.668-3.02-4.505c-0.717-1.825-1.082-4.039-1.082-6.619v-30.554h9.048
		v30.554c0,1.46,0.113,2.655,0.365,3.574c0.239,0.906,0.604,1.623,1.082,2.152c0.478,0.516,1.07,0.868,1.774,1.07
		c0.692,0.189,1.51,0.289,2.429,0.289c0.906,0,1.724-0.101,2.429-0.289c0.692-0.201,1.284-0.554,1.749-1.07
		c0.466-0.529,0.831-1.246,1.07-2.152c0.252-0.919,0.365-2.114,0.365-3.574v-30.554H374.682z"/>
	<path fill="#FFFFFF" d="M400.282,358.444c0-0.768-0.076-1.472-0.214-2.076c-0.138-0.617-0.44-1.183-0.906-1.724
		c-0.453-0.541-1.107-1.07-1.951-1.573c-0.843-0.516-1.976-1.057-3.373-1.623c-1.674-0.629-3.272-1.359-4.782-2.164
		c-1.523-0.818-2.857-1.774-4.002-2.894c-1.158-1.107-2.064-2.391-2.756-3.851c-0.68-1.447-1.019-3.146-1.019-5.084
		c0-1.85,0.352-3.549,1.044-5.084c0.692-1.535,1.661-2.844,2.907-3.926c1.258-1.082,2.743-1.913,4.467-2.517
		c1.724-0.604,3.624-0.906,5.701-0.906c2.139,0,4.065,0.34,5.789,1.032c1.711,0.68,3.184,1.623,4.392,2.831
		c1.208,1.221,2.152,2.668,2.794,4.342c0.654,1.686,0.982,3.524,0.982,5.55h-8.947c0-0.944-0.101-1.8-0.289-2.58
		c-0.201-0.793-0.503-1.46-0.919-2.026c-0.415-0.554-0.956-0.994-1.611-1.309c-0.642-0.315-1.435-0.478-2.353-0.478
		c-0.856,0-1.586,0.138-2.215,0.403c-0.617,0.264-1.133,0.629-1.535,1.082c-0.415,0.453-0.717,1.007-0.919,1.636
		c-0.201,0.629-0.302,1.296-0.302,2.013c0,0.73,0.151,1.397,0.466,1.988c0.315,0.591,0.768,1.145,1.346,1.649
		s1.284,0.994,2.114,1.435c0.818,0.453,1.737,0.881,2.731,1.309c2.076,0.755,3.888,1.598,5.436,2.517
		c1.548,0.906,2.844,1.951,3.876,3.108c1.044,1.158,1.812,2.466,2.328,3.926c0.503,1.46,0.768,3.108,0.768,4.933
		c0,1.963-0.327,3.7-0.969,5.222c-0.642,1.535-1.56,2.819-2.743,3.863c-1.195,1.057-2.643,1.862-4.329,2.416
		c-1.686,0.566-3.599,0.843-5.713,0.843c-1.913,0-3.788-0.289-5.638-0.868c-1.837-0.579-3.486-1.472-4.933-2.68
		c-1.447-1.195-2.605-2.718-3.498-4.543c-0.881-1.837-1.321-4.014-1.321-6.544h9.01c0,1.346,0.126,2.492,0.39,3.423
		c0.264,0.931,0.667,1.699,1.208,2.278s1.208,0.994,2.001,1.246c0.793,0.264,1.724,0.39,2.781,0.39c0.856,0,1.586-0.126,2.19-0.39
		c0.591-0.252,1.082-0.591,1.46-1.032c0.378-0.44,0.654-0.969,0.818-1.573C400.207,359.816,400.282,359.162,400.282,358.444"/>
	<rect x="415.685" y="325.636" fill="#FFFFFF" width="8.985" height="44.472"/>
	<polygon fill="#FFFFFF" points="454.348,325.638 454.348,354.833 441.185,325.638 432.2,325.638 432.2,370.11 441.185,370.11 
		441.185,340.94 454.323,370.11 463.308,370.11 463.308,325.638 	"/>
	<polygon fill="#FFFFFF" points="470.51,325.638 470.51,370.11 496.043,370.11 496.043,362.66 479.495,362.66 479.495,350.869 
		493.489,350.869 493.489,343.633 479.495,343.633 479.495,333.125 495.993,333.125 495.993,325.638 	"/>
	<path fill="#FFFFFF" d="M520.002,358.444c0-0.768-0.076-1.472-0.214-2.076c-0.138-0.617-0.44-1.183-0.906-1.724
		c-0.453-0.541-1.107-1.07-1.951-1.573c-0.843-0.516-1.976-1.057-3.372-1.623c-1.674-0.629-3.272-1.359-4.782-2.164
		c-1.523-0.818-2.857-1.774-4.002-2.894c-1.158-1.107-2.064-2.391-2.756-3.851c-0.68-1.447-1.019-3.146-1.019-5.084
		c0-1.85,0.352-3.549,1.044-5.084c0.692-1.535,1.661-2.844,2.907-3.926c1.258-1.082,2.743-1.913,4.467-2.517
		c1.724-0.604,3.624-0.906,5.701-0.906c2.139,0,4.065,0.34,5.789,1.032c1.711,0.68,3.184,1.623,4.392,2.831
		c1.208,1.221,2.139,2.668,2.794,4.342c0.654,1.686,0.982,3.524,0.982,5.55h-8.947c0-0.944-0.101-1.8-0.289-2.58
		c-0.201-0.793-0.503-1.46-0.919-2.026c-0.415-0.554-0.956-0.994-1.611-1.309c-0.642-0.315-1.435-0.478-2.353-0.478
		c-0.856,0-1.586,0.138-2.215,0.403c-0.617,0.264-1.133,0.629-1.535,1.082c-0.415,0.453-0.717,1.007-0.919,1.636
		s-0.302,1.296-0.302,2.013c0,0.73,0.151,1.397,0.466,1.988c0.315,0.591,0.768,1.145,1.347,1.649
		c0.579,0.503,1.284,0.994,2.114,1.435c0.818,0.453,1.737,0.881,2.731,1.309c2.076,0.755,3.889,1.598,5.436,2.517
		c1.548,0.906,2.844,1.951,3.876,3.108c1.044,1.158,1.812,2.466,2.328,3.926c0.503,1.46,0.768,3.108,0.768,4.933
		c0,1.963-0.327,3.7-0.969,5.222c-0.642,1.535-1.56,2.819-2.743,3.863c-1.196,1.057-2.643,1.862-4.329,2.416
		c-1.686,0.566-3.599,0.843-5.713,0.843c-1.913,0-3.788-0.289-5.638-0.868c-1.837-0.579-3.486-1.472-4.933-2.68
		c-1.447-1.195-2.605-2.718-3.498-4.543c-0.881-1.837-1.321-4.014-1.321-6.544h9.01c0,1.346,0.126,2.492,0.39,3.423
		c0.264,0.931,0.667,1.699,1.208,2.278s1.208,0.994,2.001,1.246c0.793,0.264,1.724,0.39,2.781,0.39c0.856,0,1.586-0.126,2.19-0.39
		c0.591-0.252,1.082-0.591,1.46-1.032c0.378-0.44,0.654-0.969,0.818-1.573C519.927,359.816,520.002,359.162,520.002,358.444"/>
	<path fill="#FFFFFF" d="M553.788,358.444c0-0.768-0.076-1.472-0.214-2.076c-0.138-0.617-0.44-1.183-0.906-1.724
		c-0.453-0.541-1.107-1.07-1.951-1.573c-0.843-0.516-1.976-1.057-3.372-1.623c-1.674-0.629-3.272-1.359-4.782-2.164
		c-1.523-0.818-2.857-1.774-4.002-2.894c-1.158-1.107-2.064-2.391-2.756-3.851c-0.68-1.447-1.019-3.146-1.019-5.084
		c0-1.85,0.352-3.549,1.044-5.084c0.692-1.535,1.661-2.844,2.907-3.926c1.258-1.082,2.743-1.913,4.467-2.517
		c1.724-0.604,3.624-0.906,5.701-0.906c2.139,0,4.065,0.34,5.789,1.032c1.711,0.68,3.184,1.623,4.392,2.831
		c1.208,1.221,2.152,2.668,2.794,4.342c0.654,1.686,0.982,3.524,0.982,5.55h-8.947c0-0.944-0.101-1.8-0.289-2.58
		c-0.201-0.793-0.503-1.46-0.919-2.026c-0.415-0.554-0.956-0.994-1.611-1.309c-0.642-0.315-1.435-0.478-2.353-0.478
		c-0.856,0-1.586,0.138-2.215,0.403c-0.617,0.264-1.133,0.629-1.535,1.082c-0.415,0.453-0.717,1.007-0.919,1.636
		c-0.201,0.629-0.302,1.296-0.302,2.013c0,0.73,0.151,1.397,0.466,1.988c0.315,0.591,0.768,1.145,1.346,1.649
		s1.284,0.994,2.114,1.435c0.818,0.453,1.737,0.881,2.731,1.309c2.076,0.755,3.889,1.598,5.436,2.517
		c1.548,0.906,2.844,1.951,3.876,3.108c1.044,1.158,1.812,2.466,2.328,3.926c0.503,1.46,0.768,3.108,0.768,4.933
		c0,1.963-0.327,3.7-0.969,5.222c-0.642,1.535-1.56,2.819-2.743,3.863c-1.196,1.057-2.643,1.862-4.329,2.416
		c-1.686,0.566-3.599,0.843-5.713,0.843c-1.913,0-3.788-0.289-5.638-0.868c-1.837-0.579-3.486-1.472-4.933-2.68
		c-1.447-1.195-2.605-2.718-3.498-4.543c-0.881-1.837-1.321-4.014-1.321-6.544h9.01c0,1.346,0.126,2.492,0.39,3.423
		c0.264,0.931,0.667,1.699,1.208,2.278c0.541,0.579,1.208,0.994,2.001,1.246c0.793,0.264,1.724,0.39,2.781,0.39
		c0.856,0,1.586-0.126,2.19-0.39c0.591-0.252,1.082-0.591,1.46-1.032c0.378-0.44,0.654-0.969,0.818-1.573
		C553.712,359.816,553.788,359.162,553.788,358.444"/>
	<polygon fill="#FFFFFF" points="33.697,21.547 33.697,278.672 85.107,278.672 85.107,72.969 239.4,72.969 239.4,278.672 
		290.81,278.672 290.81,21.547 	"/>
	<polygon fill="#FFFFFF" points="305.214,21.547 305.214,72.969 510.929,72.969 510.929,124.392 408.071,124.392 408.071,175.827 
		510.929,175.827 510.929,227.25 305.214,227.25 305.214,278.672 562.339,278.672 562.339,21.547 	"/>
</g>
</svg>
