<?xml version="1.0"?>
<!-- Generated by SVGo -->
<svg width="464.626mm" height="159.826mm"
     viewBox="0.000 0.000 464.626 159.826"
     xmlns="http://www.w3.org/2000/svg" 
     xmlns:xlink="http://www.w3.org/1999/xlink">
<polygon points="459.626,154.826 5.000,154.826 5.000,5.000 459.626,5.000" style="fill:none;stroke-width:0.050000mm;stroke:black"/>
<polygon points="141.968,125.300 141.968,126.300 141.168,126.300 141.168,129.400 141.968,129.400 141.968,130.000 102.343,130.000 102.343,126.770 100.618,126.770 100.618,125.850 97.318,125.850 97.318,126.770 95.593,126.770 95.593,130.000 94.768,130.000 94.768,132.800 95.593,132.800 95.593,139.070 97.318,139.070 97.318,140.050 100.618,140.050 100.618,139.070 102.343,139.070 102.343,134.600 141.968,134.600 141.968,135.200 141.168,135.200 141.168,138.300 141.968,138.300 141.968,139.300 155.968,139.300 155.968,138.300 156.768,138.300 156.768,135.200 155.968,135.200 155.968,134.600 195.593,134.600 195.593,139.070 197.318,139.070 197.318,140.050 200.618,140.050 200.618,139.070 202.343,139.070 202.343,132.800 203.168,132.800 203.168,130.000 202.343,130.000 202.343,126.770 200.618,126.770 200.618,125.850 197.318,125.850 197.318,126.770 195.593,126.770 195.593,130.000 155.968,130.000 155.968,129.400 156.768,129.400 156.768,126.300 155.968,126.300 155.968,125.300" style="fill:none;stroke-width:0.050000mm;stroke:black"/>
<polygon points="382.475,125.300 382.475,126.300 381.675,126.300 381.675,129.400 382.475,129.400 382.475,130.000 380.950,130.000 380.950,126.770 379.225,126.770 379.225,125.850 375.925,125.850 375.925,126.770 374.200,126.770 374.200,130.000 373.375,130.000 373.375,132.800 374.200,132.800 374.200,139.070 375.925,139.070 375.925,140.050 379.225,140.050 379.225,139.070 380.950,139.070 380.950,134.600 382.475,134.600 382.475,135.200 381.675,135.200 381.675,138.300 382.475,138.300 382.475,139.300 396.475,139.300 396.475,138.300 397.275,138.300 397.275,135.200 396.475,135.200 396.475,134.600 398.000,134.600 398.000,139.070 399.725,139.070 399.725,140.050 403.025,140.050 403.025,139.070 404.750,139.070 404.750,132.800 405.575,132.800 405.575,130.000 404.750,130.000 404.750,126.770 403.025,126.770 403.025,125.850 399.725,125.850 399.725,126.770 398.000,126.770 398.000,130.000 396.475,130.000 396.475,129.400 397.275,129.400 397.275,126.300 396.475,126.300 396.475,125.300" style="fill:none;stroke-width:0.050000mm;stroke:black"/>
<polygon points="22.906,125.300 22.906,126.300 22.106,126.300 22.106,129.400 22.906,129.400 22.906,135.200 22.106,135.200 22.106,138.300 22.906,138.300 22.906,139.300 36.906,139.300 36.906,138.300 37.706,138.300 37.706,135.200 36.906,135.200 36.906,129.400 37.706,129.400 37.706,126.300 36.906,126.300 36.906,125.300" style="fill:none;stroke-width:0.050000mm;stroke:black"/>
<polygon points="46.718,125.300 46.718,126.300 45.918,126.300 45.918,129.400 46.718,129.400 46.718,135.200 45.918,135.200 45.918,138.300 46.718,138.300 46.718,139.300 60.718,139.300 60.718,138.300 61.518,138.300 61.518,135.200 60.718,135.200 60.718,129.400 61.518,129.400 61.518,126.300 60.718,126.300 60.718,125.300" style="fill:none;stroke-width:0.050000mm;stroke:black"/>
<polygon points="70.531,125.300 70.531,126.300 69.731,126.300 69.731,129.400 70.531,129.400 70.531,135.200 69.731,135.200 69.731,138.300 70.531,138.300 70.531,139.300 84.531,139.300 84.531,138.300 85.331,138.300 85.331,135.200 84.531,135.200 84.531,129.400 85.331,129.400 85.331,126.300 84.531,126.300 84.531,125.300" style="fill:none;stroke-width:0.050000mm;stroke:black"/>
<polygon points="213.406,125.300 213.406,126.300 212.606,126.300 212.606,129.400 213.406,129.400 213.406,135.200 212.606,135.200 212.606,138.300 213.406,138.300 213.406,139.300 227.406,139.300 227.406,138.300 228.206,138.300 228.206,135.200 227.406,135.200 227.406,129.400 228.206,129.400 228.206,126.300 227.406,126.300 227.406,125.300" style="fill:none;stroke-width:0.050000mm;stroke:black"/>
<polygon points="237.218,125.300 237.218,126.300 236.418,126.300 236.418,129.400 237.218,129.400 237.218,135.200 236.418,135.200 236.418,138.300 237.218,138.300 237.218,139.300 251.218,139.300 251.218,138.300 252.018,138.300 252.018,135.200 251.218,135.200 251.218,129.400 252.018,129.400 252.018,126.300 251.218,126.300 251.218,125.300" style="fill:none;stroke-width:0.050000mm;stroke:black"/>
<polygon points="261.031,125.300 261.031,126.300 260.231,126.300 260.231,129.400 261.031,129.400 261.031,135.200 260.231,135.200 260.231,138.300 261.031,138.300 261.031,139.300 275.031,139.300 275.031,138.300 275.831,138.300 275.831,135.200 275.031,135.200 275.031,129.400 275.831,129.400 275.831,126.300 275.031,126.300 275.031,125.300" style="fill:none;stroke-width:0.050000mm;stroke:black"/>
<polygon points="284.843,125.300 284.843,126.300 284.043,126.300 284.043,129.400 284.843,129.400 284.843,135.200 284.043,135.200 284.043,138.300 284.843,138.300 284.843,139.300 298.843,139.300 298.843,138.300 299.643,138.300 299.643,135.200 298.843,135.200 298.843,129.400 299.643,129.400 299.643,126.300 298.843,126.300 298.843,125.300" style="fill:none;stroke-width:0.050000mm;stroke:black"/>
<polygon points="311.037,125.300 311.037,126.300 310.237,126.300 310.237,129.400 311.037,129.400 311.037,135.200 310.237,135.200 310.237,138.300 311.037,138.300 311.037,139.300 325.037,139.300 325.037,138.300 325.837,138.300 325.837,135.200 325.037,135.200 325.037,129.400 325.837,129.400 325.837,126.300 325.037,126.300 325.037,125.300" style="fill:none;stroke-width:0.050000mm;stroke:black"/>
<polygon points="330.087,125.300 330.087,126.300 329.287,126.300 329.287,129.400 330.087,129.400 330.087,135.200 329.287,135.200 329.287,138.300 330.087,138.300 330.087,139.300 344.087,139.300 344.087,138.300 344.887,138.300 344.887,135.200 344.087,135.200 344.087,129.400 344.887,129.400 344.887,126.300 344.087,126.300 344.087,125.300" style="fill:none;stroke-width:0.050000mm;stroke:black"/>
<polygon points="349.137,125.300 349.137,126.300 348.337,126.300 348.337,129.400 349.137,129.400 349.137,135.200 348.337,135.200 348.337,138.300 349.137,138.300 349.137,139.300 363.137,139.300 363.137,138.300 363.937,138.300 363.937,135.200 363.137,135.200 363.137,129.400 363.937,129.400 363.937,126.300 363.137,126.300 363.137,125.300" style="fill:none;stroke-width:0.050000mm;stroke:black"/>
<polygon points="411.050,125.300 411.050,126.300 410.250,126.300 410.250,129.400 411.050,129.400 411.050,135.200 410.250,135.200 410.250,138.300 411.050,138.300 411.050,139.300 425.050,139.300 425.050,138.300 425.850,138.300 425.850,135.200 425.050,135.200 425.050,129.400 425.850,129.400 425.850,126.300 425.050,126.300 425.050,125.300" style="fill:none;stroke-width:0.050000mm;stroke:black"/>
<polygon points="436.600,106.675 436.600,107.500 430.330,107.500 430.330,109.225 429.350,109.225 429.350,112.525 430.330,112.525 430.330,114.250 434.800,114.250 434.800,115.775 434.200,115.775 434.200,114.975 431.100,114.975 431.100,115.775 430.100,115.775 430.100,129.775 431.100,129.775 431.100,130.574 434.200,130.574 434.200,129.775 434.800,129.775 434.800,131.300 430.330,131.300 430.330,133.025 429.350,133.025 429.350,136.325 430.330,136.325 430.330,138.050 436.600,138.050 436.600,138.875 439.400,138.875 439.400,138.050 442.630,138.050 442.630,136.325 443.550,136.325 443.550,133.025 442.630,133.025 442.630,131.300 439.400,131.300 439.400,129.775 440.000,129.775 440.000,130.574 443.100,130.574 443.100,129.775 444.100,129.775 444.100,115.775 443.100,115.775 443.100,114.975 440.000,114.975 440.000,115.775 439.400,115.775 439.400,114.250 442.630,114.250 442.630,112.525 443.550,112.525 443.550,109.225 442.630,109.225 442.630,107.500 439.400,107.500 439.400,106.675" style="fill:none;stroke-width:0.050000mm;stroke:black"/>
<polygon points="270.556,106.250 270.556,107.250 269.756,107.250 269.756,110.350 270.556,110.350 270.556,110.950 269.031,110.950 269.031,107.720 267.306,107.720 267.306,106.800 264.006,106.800 264.006,107.720 262.281,107.720 262.281,110.950 261.456,110.950 261.456,113.750 262.281,113.750 262.281,120.020 264.006,120.020 264.006,121.000 267.306,121.000 267.306,120.020 269.031,120.020 269.031,115.550 270.556,115.550 270.556,116.150 269.756,116.150 269.756,119.250 270.556,119.250 270.556,120.250 284.556,120.250 284.556,119.250 285.356,119.250 285.356,116.150 284.556,116.150 284.556,115.550 286.081,115.550 286.081,120.020 287.806,120.020 287.806,121.000 291.106,121.000 291.106,120.020 292.831,120.020 292.831,113.750 293.656,113.750 293.656,110.950 292.831,110.950 292.831,107.720 291.106,107.720 291.106,106.800 287.806,106.800 287.806,107.720 286.081,107.720 286.081,110.950 284.556,110.950 284.556,110.350 285.356,110.350 285.356,107.250 284.556,107.250 284.556,106.250" style="fill:none;stroke-width:0.050000mm;stroke:black"/>
<polygon points="22.906,106.250 22.906,107.250 22.106,107.250 22.106,110.350 22.906,110.350 22.906,116.150 22.106,116.150 22.106,119.250 22.906,119.250 22.906,120.250 36.906,120.250 36.906,119.250 37.706,119.250 37.706,116.150 36.906,116.150 36.906,110.350 37.706,110.350 37.706,107.250 36.906,107.250 36.906,106.250" style="fill:none;stroke-width:0.050000mm;stroke:black"/>
<polygon points="44.337,106.250 44.337,107.250 43.537,107.250 43.537,110.350 44.337,110.350 44.337,116.150 43.537,116.150 43.537,119.250 44.337,119.250 44.337,120.250 58.337,120.250 58.337,119.250 59.137,119.250 59.137,116.150 58.337,116.150 58.337,110.350 59.137,110.350 59.137,107.250 58.337,107.250 58.337,106.250" style="fill:none;stroke-width:0.050000mm;stroke:black"/>
<polygon points="63.387,106.250 63.387,107.250 62.587,107.250 62.587,110.350 63.387,110.350 63.387,116.150 62.587,116.150 62.587,119.250 63.387,119.250 63.387,120.250 77.387,120.250 77.387,119.250 78.187,119.250 78.187,116.150 77.387,116.150 77.387,110.350 78.187,110.350 78.187,107.250 77.387,107.250 77.387,106.250" style="fill:none;stroke-width:0.050000mm;stroke:black"/>
<polygon points="82.437,106.250 82.437,107.250 81.637,107.250 81.637,110.350 82.437,110.350 82.437,116.150 81.637,116.150 81.637,119.250 82.437,119.250 82.437,120.250 96.437,120.250 96.437,119.250 97.237,119.250 97.237,116.150 96.437,116.150 96.437,110.350 97.237,110.350 97.237,107.250 96.437,107.250 96.437,106.250" style="fill:none;stroke-width:0.050000mm;stroke:black"/>
<polygon points="101.487,106.250 101.487,107.250 100.687,107.250 100.687,110.350 101.487,110.350 101.487,116.150 100.687,116.150 100.687,119.250 101.487,119.250 101.487,120.250 115.487,120.250 115.487,119.250 116.287,119.250 116.287,116.150 115.487,116.150 115.487,110.350 116.287,110.350 116.287,107.250 115.487,107.250 115.487,106.250" style="fill:none;stroke-width:0.050000mm;stroke:black"/>
<polygon points="120.537,106.250 120.537,107.250 119.737,107.250 119.737,110.350 120.537,110.350 120.537,116.150 119.737,116.150 119.737,119.250 120.537,119.250 120.537,120.250 134.537,120.250 134.537,119.250 135.337,119.250 135.337,116.150 134.537,116.150 134.537,110.350 135.337,110.350 135.337,107.250 134.537,107.250 134.537,106.250" style="fill:none;stroke-width:0.050000mm;stroke:black"/>
<polygon points="139.587,106.250 139.587,107.250 138.787,107.250 138.787,110.350 139.587,110.350 139.587,116.150 138.787,116.150 138.787,119.250 139.587,119.250 139.587,120.250 153.587,120.250 153.587,119.250 154.387,119.250 154.387,116.150 153.587,116.150 153.587,110.350 154.387,110.350 154.387,107.250 153.587,107.250 153.587,106.250" style="fill:none;stroke-width:0.050000mm;stroke:black"/>
<polygon points="158.637,106.250 158.637,107.250 157.837,107.250 157.837,110.350 158.637,110.350 158.637,116.150 157.837,116.150 157.837,119.250 158.637,119.250 158.637,120.250 172.637,120.250 172.637,119.250 173.437,119.250 173.437,116.150 172.637,116.150 172.637,110.350 173.437,110.350 173.437,107.250 172.637,107.250 172.637,106.250" style="fill:none;stroke-width:0.050000mm;stroke:black"/>
<polygon points="177.687,106.250 177.687,107.250 176.887,107.250 176.887,110.350 177.687,110.350 177.687,116.150 176.887,116.150 176.887,119.250 177.687,119.250 177.687,120.250 191.687,120.250 191.687,119.250 192.487,119.250 192.487,116.150 191.687,116.150 191.687,110.350 192.487,110.350 192.487,107.250 191.687,107.250 191.687,106.250" style="fill:none;stroke-width:0.050000mm;stroke:black"/>
<polygon points="196.737,106.250 196.737,107.250 195.937,107.250 195.937,110.350 196.737,110.350 196.737,116.150 195.937,116.150 195.937,119.250 196.737,119.250 196.737,120.250 210.737,120.250 210.737,119.250 211.537,119.250 211.537,116.150 210.737,116.150 210.737,110.350 211.537,110.350 211.537,107.250 210.737,107.250 210.737,106.250" style="fill:none;stroke-width:0.050000mm;stroke:black"/>
<polygon points="215.787,106.250 215.787,107.250 214.987,107.250 214.987,110.350 215.787,110.350 215.787,116.150 214.987,116.150 214.987,119.250 215.787,119.250 215.787,120.250 229.787,120.250 229.787,119.250 230.587,119.250 230.587,116.150 229.787,116.150 229.787,110.350 230.587,110.350 230.587,107.250 229.787,107.250 229.787,106.250" style="fill:none;stroke-width:0.050000mm;stroke:black"/>
<polygon points="234.837,106.250 234.837,107.250 234.037,107.250 234.037,110.350 234.837,110.350 234.837,116.150 234.037,116.150 234.037,119.250 234.837,119.250 234.837,120.250 248.837,120.250 248.837,119.250 249.637,119.250 249.637,116.150 248.837,116.150 248.837,110.350 249.637,110.350 249.637,107.250 248.837,107.250 248.837,106.250" style="fill:none;stroke-width:0.050000mm;stroke:black"/>
<polygon points="330.087,106.250 330.087,107.250 329.287,107.250 329.287,110.350 330.087,110.350 330.087,116.150 329.287,116.150 329.287,119.250 330.087,119.250 330.087,120.250 344.087,120.250 344.087,119.250 344.887,119.250 344.887,116.150 344.087,116.150 344.087,110.350 344.887,110.350 344.887,107.250 344.087,107.250 344.087,106.250" style="fill:none;stroke-width:0.050000mm;stroke:black"/>
<polygon points="372.950,106.250 372.950,107.250 372.150,107.250 372.150,110.350 372.950,110.350 372.950,116.150 372.150,116.150 372.150,119.250 372.950,119.250 372.950,120.250 386.950,120.250 386.950,119.250 387.750,119.250 387.750,116.150 386.950,116.150 386.950,110.350 387.750,110.350 387.750,107.250 386.950,107.250 386.950,106.250" style="fill:none;stroke-width:0.050000mm;stroke:black"/>
<polygon points="392.000,106.250 392.000,107.250 391.200,107.250 391.200,110.350 392.000,110.350 392.000,116.150 391.200,116.150 391.200,119.250 392.000,119.250 392.000,120.250 406.000,120.250 406.000,119.250 406.800,119.250 406.800,116.150 406.000,116.150 406.000,110.350 406.800,110.350 406.800,107.250 406.000,107.250 406.000,106.250" style="fill:none;stroke-width:0.050000mm;stroke:black"/>
<polygon points="411.050,106.250 411.050,107.250 410.250,107.250 410.250,110.350 411.050,110.350 411.050,116.150 410.250,116.150 410.250,119.250 411.050,119.250 411.050,120.250 425.050,120.250 425.050,119.250 425.850,119.250 425.850,116.150 425.050,116.150 425.050,110.350 425.850,110.350 425.850,107.250 425.050,107.250 425.050,106.250" style="fill:none;stroke-width:0.050000mm;stroke:black"/>
<polygon points="27.668,87.200 27.668,88.200 26.868,88.200 26.868,91.300 27.668,91.300 27.668,97.100 26.868,97.100 26.868,100.200 27.668,100.200 27.668,101.200 41.668,101.200 41.668,100.200 42.468,100.200 42.468,97.100 41.668,97.100 41.668,91.300 42.468,91.300 42.468,88.200 41.668,88.200 41.668,87.200" style="fill:none;stroke-width:0.050000mm;stroke:black"/>
<polygon points="53.862,87.200 53.862,88.200 53.062,88.200 53.062,91.300 53.862,91.300 53.862,97.100 53.062,97.100 53.062,100.200 53.862,100.200 53.862,101.200 67.862,101.200 67.862,100.200 68.662,100.200 68.662,97.100 67.862,97.100 67.862,91.300 68.662,91.300 68.662,88.200 67.862,88.200 67.862,87.200" style="fill:none;stroke-width:0.050000mm;stroke:black"/>
<polygon points="72.912,87.200 72.912,88.200 72.112,88.200 72.112,91.300 72.912,91.300 72.912,97.100 72.112,97.100 72.112,100.200 72.912,100.200 72.912,101.200 86.912,101.200 86.912,100.200 87.712,100.200 87.712,97.100 86.912,97.100 86.912,91.300 87.712,91.300 87.712,88.200 86.912,88.200 86.912,87.200" style="fill:none;stroke-width:0.050000mm;stroke:black"/>
<polygon points="91.962,87.200 91.962,88.200 91.162,88.200 91.162,91.300 91.962,91.300 91.962,97.100 91.162,97.100 91.162,100.200 91.962,100.200 91.962,101.200 105.962,101.200 105.962,100.200 106.762,100.200 106.762,97.100 105.962,97.100 105.962,91.300 106.762,91.300 106.762,88.200 105.962,88.200 105.962,87.200" style="fill:none;stroke-width:0.050000mm;stroke:black"/>
<polygon points="111.012,87.200 111.012,88.200 110.212,88.200 110.212,91.300 111.012,91.300 111.012,97.100 110.212,97.100 110.212,100.200 111.012,100.200 111.012,101.200 125.012,101.200 125.012,100.200 125.812,100.200 125.812,97.100 125.012,97.100 125.012,91.300 125.812,91.300 125.812,88.200 125.012,88.200 125.012,87.200" style="fill:none;stroke-width:0.050000mm;stroke:black"/>
<polygon points="130.062,87.200 130.062,88.200 129.262,88.200 129.262,91.300 130.062,91.300 130.062,97.100 129.262,97.100 129.262,100.200 130.062,100.200 130.062,101.200 144.062,101.200 144.062,100.200 144.862,100.200 144.862,97.100 144.062,97.100 144.062,91.300 144.862,91.300 144.862,88.200 144.062,88.200 144.062,87.200" style="fill:none;stroke-width:0.050000mm;stroke:black"/>
<polygon points="149.112,87.200 149.112,88.200 148.312,88.200 148.312,91.300 149.112,91.300 149.112,97.100 148.312,97.100 148.312,100.200 149.112,100.200 149.112,101.200 163.112,101.200 163.112,100.200 163.912,100.200 163.912,97.100 163.112,97.100 163.112,91.300 163.912,91.300 163.912,88.200 163.112,88.200 163.112,87.200" style="fill:none;stroke-width:0.050000mm;stroke:black"/>
<polygon points="168.162,87.200 168.162,88.200 167.362,88.200 167.362,91.300 168.162,91.300 168.162,97.100 167.362,97.100 167.362,100.200 168.162,100.200 168.162,101.200 182.162,101.200 182.162,100.200 182.962,100.200 182.962,97.100 182.162,97.100 182.162,91.300 182.962,91.300 182.962,88.200 182.162,88.200 182.162,87.200" style="fill:none;stroke-width:0.050000mm;stroke:black"/>
<polygon points="187.212,87.200 187.212,88.200 186.412,88.200 186.412,91.300 187.212,91.300 187.212,97.100 186.412,97.100 186.412,100.200 187.212,100.200 187.212,101.200 201.212,101.200 201.212,100.200 202.012,100.200 202.012,97.100 201.212,97.100 201.212,91.300 202.012,91.300 202.012,88.200 201.212,88.200 201.212,87.200" style="fill:none;stroke-width:0.050000mm;stroke:black"/>
<polygon points="206.262,87.200 206.262,88.200 205.462,88.200 205.462,91.300 206.262,91.300 206.262,97.100 205.462,97.100 205.462,100.200 206.262,100.200 206.262,101.200 220.262,101.200 220.262,100.200 221.062,100.200 221.062,97.100 220.262,97.100 220.262,91.300 221.062,91.300 221.062,88.200 220.262,88.200 220.262,87.200" style="fill:none;stroke-width:0.050000mm;stroke:black"/>
<polygon points="225.312,87.200 225.312,88.200 224.512,88.200 224.512,91.300 225.312,91.300 225.312,97.100 224.512,97.100 224.512,100.200 225.312,100.200 225.312,101.200 239.312,101.200 239.312,100.200 240.112,100.200 240.112,97.100 239.312,97.100 239.312,91.300 240.112,91.300 240.112,88.200 239.312,88.200 239.312,87.200" style="fill:none;stroke-width:0.050000mm;stroke:black"/>
<polygon points="244.362,87.200 244.362,88.200 243.562,88.200 243.562,91.300 244.362,91.300 244.362,97.100 243.562,97.100 243.562,100.200 244.362,100.200 244.362,101.200 258.362,101.200 258.362,100.200 259.161,100.200 259.161,97.100 258.362,97.100 258.362,91.300 259.161,91.300 259.161,88.200 258.362,88.200 258.362,87.200" style="fill:none;stroke-width:0.050000mm;stroke:black"/>
<polygon points="263.412,87.200 263.412,88.200 262.612,88.200 262.612,91.300 263.412,91.300 263.412,97.100 262.612,97.100 262.612,100.200 263.412,100.200 263.412,101.200 277.412,101.200 277.412,100.200 278.212,100.200 278.212,97.100 277.412,97.100 277.412,91.300 278.212,91.300 278.212,88.200 277.412,88.200 277.412,87.200" style="fill:none;stroke-width:0.050000mm;stroke:black"/>
<polygon points="372.950,87.200 372.950,88.200 372.150,88.200 372.150,91.300 372.950,91.300 372.950,97.100 372.150,97.100 372.150,100.200 372.950,100.200 372.950,101.200 386.950,101.200 386.950,100.200 387.750,100.200 387.750,97.100 386.950,97.100 386.950,91.300 387.750,91.300 387.750,88.200 386.950,88.200 386.950,87.200" style="fill:none;stroke-width:0.050000mm;stroke:black"/>
<polygon points="392.000,87.200 392.000,88.200 391.200,88.200 391.200,91.300 392.000,91.300 392.000,97.100 391.200,97.100 391.200,100.200 392.000,100.200 392.000,101.200 406.000,101.200 406.000,100.200 406.800,100.200 406.800,97.100 406.000,97.100 406.000,91.300 406.800,91.300 406.800,88.200 406.000,88.200 406.000,87.200" style="fill:none;stroke-width:0.050000mm;stroke:black"/>
<polygon points="411.050,87.200 411.050,88.200 410.250,88.200 410.250,91.300 411.050,91.300 411.050,97.100 410.250,97.100 410.250,100.200 411.050,100.200 411.050,101.200 425.050,101.200 425.050,100.200 425.850,100.200 425.850,97.100 425.050,97.100 425.050,91.300 425.850,91.300 425.850,88.200 425.050,88.200 425.050,87.200" style="fill:none;stroke-width:0.050000mm;stroke:black"/>
<polygon points="291.343,68.575 291.343,69.400 285.073,69.400 285.073,71.125 284.093,71.125 284.093,74.425 285.073,74.425 285.073,76.150 289.543,76.150 289.543,77.675 288.943,77.675 288.943,76.875 285.843,76.875 285.843,77.675 284.843,77.675 284.843,91.675 285.843,91.675 285.843,92.475 288.943,92.475 288.943,91.675 289.543,91.675 289.543,93.200 285.073,93.200 285.073,94.925 284.093,94.925 284.093,98.225 285.073,98.225 285.073,99.950 291.343,99.950 291.343,100.775 294.143,100.775 294.143,99.950 297.373,99.950 297.373,98.225 298.293,98.225 298.293,94.925 297.373,94.925 297.373,93.200 294.143,93.200 294.143,91.675 294.743,91.675 294.743,92.475 297.843,92.475 297.843,91.675 298.843,91.675 298.843,77.675 297.843,77.675 297.843,76.875 294.743,76.875 294.743,77.675 294.143,77.675 294.143,76.150 297.373,76.150 297.373,74.425 298.293,74.425 298.293,71.125 297.373,71.125 297.373,69.400 294.143,69.400 294.143,68.575" style="fill:none;stroke-width:0.050000mm;stroke:black"/>
<polygon points="436.600,68.575 436.600,69.400 430.330,69.400 430.330,71.125 429.350,71.125 429.350,74.425 430.330,74.425 430.330,76.150 434.800,76.150 434.800,77.675 434.200,77.675 434.200,76.875 431.100,76.875 431.100,77.675 430.100,77.675 430.100,91.675 431.100,91.675 431.100,92.475 434.200,92.475 434.200,91.675 434.800,91.675 434.800,93.200 430.330,93.200 430.330,94.925 429.350,94.925 429.350,98.225 430.330,98.225 430.330,99.950 436.600,99.950 436.600,100.775 439.400,100.775 439.400,99.950 442.630,99.950 442.630,98.225 443.550,98.225 443.550,94.925 442.630,94.925 442.630,93.200 439.400,93.200 439.400,91.675 440.000,91.675 440.000,92.475 443.100,92.475 443.100,91.675 444.100,91.675 444.100,77.675 443.100,77.675 443.100,76.875 440.000,76.875 440.000,77.675 439.400,77.675 439.400,76.150 442.630,76.150 442.630,74.425 443.550,74.425 443.550,71.125 442.630,71.125 442.630,69.400 439.400,69.400 439.400,68.575" style="fill:none;stroke-width:0.050000mm;stroke:black"/>
<polygon points="25.287,68.150 25.287,69.150 24.487,69.150 24.487,72.250 25.287,72.250 25.287,78.050 24.487,78.050 24.487,81.150 25.287,81.150 25.287,82.150 39.287,82.150 39.287,81.150 40.087,81.150 40.087,78.050 39.287,78.050 39.287,72.250 40.087,72.250 40.087,69.150 39.287,69.150 39.287,68.150" style="fill:none;stroke-width:0.050000mm;stroke:black"/>
<polygon points="49.100,68.150 49.100,69.150 48.300,69.150 48.300,72.250 49.100,72.250 49.100,78.050 48.300,78.050 48.300,81.150 49.100,81.150 49.100,82.150 63.100,82.150 63.100,81.150 63.900,81.150 63.900,78.050 63.100,78.050 63.100,72.250 63.900,72.250 63.900,69.150 63.100,69.150 63.100,68.150" style="fill:none;stroke-width:0.050000mm;stroke:black"/>
<polygon points="68.150,68.150 68.150,69.150 67.350,69.150 67.350,72.250 68.150,72.250 68.150,78.050 67.350,78.050 67.350,81.150 68.150,81.150 68.150,82.150 82.150,82.150 82.150,81.150 82.950,81.150 82.950,78.050 82.150,78.050 82.150,72.250 82.950,72.250 82.950,69.150 82.150,69.150 82.150,68.150" style="fill:none;stroke-width:0.050000mm;stroke:black"/>
<polygon points="87.200,68.150 87.200,69.150 86.400,69.150 86.400,72.250 87.200,72.250 87.200,78.050 86.400,78.050 86.400,81.150 87.200,81.150 87.200,82.150 101.200,82.150 101.200,81.150 102.000,81.150 102.000,78.050 101.200,78.050 101.200,72.250 102.000,72.250 102.000,69.150 101.200,69.150 101.200,68.150" style="fill:none;stroke-width:0.050000mm;stroke:black"/>
<polygon points="106.250,68.150 106.250,69.150 105.450,69.150 105.450,72.250 106.250,72.250 106.250,78.050 105.450,78.050 105.450,81.150 106.250,81.150 106.250,82.150 120.250,82.150 120.250,81.150 121.050,81.150 121.050,78.050 120.250,78.050 120.250,72.250 121.050,72.250 121.050,69.150 120.250,69.150 120.250,68.150" style="fill:none;stroke-width:0.050000mm;stroke:black"/>
<polygon points="125.300,68.150 125.300,69.150 124.500,69.150 124.500,72.250 125.300,72.250 125.300,78.050 124.500,78.050 124.500,81.150 125.300,81.150 125.300,82.150 139.300,82.150 139.300,81.150 140.100,81.150 140.100,78.050 139.300,78.050 139.300,72.250 140.100,72.250 140.100,69.150 139.300,69.150 139.300,68.150" style="fill:none;stroke-width:0.050000mm;stroke:black"/>
<polygon points="144.350,68.150 144.350,69.150 143.550,69.150 143.550,72.250 144.350,72.250 144.350,78.050 143.550,78.050 143.550,81.150 144.350,81.150 144.350,82.150 158.350,82.150 158.350,81.150 159.150,81.150 159.150,78.050 158.350,78.050 158.350,72.250 159.150,72.250 159.150,69.150 158.350,69.150 158.350,68.150" style="fill:none;stroke-width:0.050000mm;stroke:black"/>
<polygon points="163.400,68.150 163.400,69.150 162.600,69.150 162.600,72.250 163.400,72.250 163.400,78.050 162.600,78.050 162.600,81.150 163.400,81.150 163.400,82.150 177.400,82.150 177.400,81.150 178.200,81.150 178.200,78.050 177.400,78.050 177.400,72.250 178.200,72.250 178.200,69.150 177.400,69.150 177.400,68.150" style="fill:none;stroke-width:0.050000mm;stroke:black"/>
<polygon points="182.450,68.150 182.450,69.150 181.650,69.150 181.650,72.250 182.450,72.250 182.450,78.050 181.650,78.050 181.650,81.150 182.450,81.150 182.450,82.150 196.450,82.150 196.450,81.150 197.250,81.150 197.250,78.050 196.450,78.050 196.450,72.250 197.250,72.250 197.250,69.150 196.450,69.150 196.450,68.150" style="fill:none;stroke-width:0.050000mm;stroke:black"/>
<polygon points="201.500,68.150 201.500,69.150 200.700,69.150 200.700,72.250 201.500,72.250 201.500,78.050 200.700,78.050 200.700,81.150 201.500,81.150 201.500,82.150 215.500,82.150 215.500,81.150 216.300,81.150 216.300,78.050 215.500,78.050 215.500,72.250 216.300,72.250 216.300,69.150 215.500,69.150 215.500,68.150" style="fill:none;stroke-width:0.050000mm;stroke:black"/>
<polygon points="220.550,68.150 220.550,69.150 219.750,69.150 219.750,72.250 220.550,72.250 220.550,78.050 219.750,78.050 219.750,81.150 220.550,81.150 220.550,82.150 234.550,82.150 234.550,81.150 235.350,81.150 235.350,78.050 234.550,78.050 234.550,72.250 235.350,72.250 235.350,69.150 234.550,69.150 234.550,68.150" style="fill:none;stroke-width:0.050000mm;stroke:black"/>
<polygon points="239.600,68.150 239.600,69.150 238.800,69.150 238.800,72.250 239.600,72.250 239.600,78.050 238.800,78.050 238.800,81.150 239.600,81.150 239.600,82.150 253.600,82.150 253.600,81.150 254.400,81.150 254.400,78.050 253.600,78.050 253.600,72.250 254.400,72.250 254.400,69.150 253.600,69.150 253.600,68.150" style="fill:none;stroke-width:0.050000mm;stroke:black"/>
<polygon points="258.649,68.150 258.649,69.150 257.850,69.150 257.850,72.250 258.649,72.250 258.649,78.050 257.850,78.050 257.850,81.150 258.649,81.150 258.649,82.150 272.650,82.150 272.650,81.150 273.450,81.150 273.450,78.050 272.650,78.050 272.650,72.250 273.450,72.250 273.450,69.150 272.650,69.150 272.650,68.150" style="fill:none;stroke-width:0.050000mm;stroke:black"/>
<polygon points="311.037,68.150 311.037,69.150 310.237,69.150 310.237,72.250 311.037,72.250 311.037,78.050 310.237,78.050 310.237,81.150 311.037,81.150 311.037,82.150 325.037,82.150 325.037,81.150 325.837,81.150 325.837,78.050 325.037,78.050 325.037,72.250 325.837,72.250 325.837,69.150 325.037,69.150 325.037,68.150" style="fill:none;stroke-width:0.050000mm;stroke:black"/>
<polygon points="330.087,68.150 330.087,69.150 329.287,69.150 329.287,72.250 330.087,72.250 330.087,78.050 329.287,78.050 329.287,81.150 330.087,81.150 330.087,82.150 344.087,82.150 344.087,81.150 344.887,81.150 344.887,78.050 344.087,78.050 344.087,72.250 344.887,72.250 344.887,69.150 344.087,69.150 344.087,68.150" style="fill:none;stroke-width:0.050000mm;stroke:black"/>
<polygon points="349.137,68.150 349.137,69.150 348.337,69.150 348.337,72.250 349.137,72.250 349.137,78.050 348.337,78.050 348.337,81.150 349.137,81.150 349.137,82.150 363.137,82.150 363.137,81.150 363.937,81.150 363.937,78.050 363.137,78.050 363.137,72.250 363.937,72.250 363.937,69.150 363.137,69.150 363.137,68.150" style="fill:none;stroke-width:0.050000mm;stroke:black"/>
<polygon points="372.950,68.150 372.950,69.150 372.150,69.150 372.150,72.250 372.950,72.250 372.950,78.050 372.150,78.050 372.150,81.150 372.950,81.150 372.950,82.150 386.950,82.150 386.950,81.150 387.750,81.150 387.750,78.050 386.950,78.050 386.950,72.250 387.750,72.250 387.750,69.150 386.950,69.150 386.950,68.150" style="fill:none;stroke-width:0.050000mm;stroke:black"/>
<polygon points="392.000,68.150 392.000,69.150 391.200,69.150 391.200,72.250 392.000,72.250 392.000,78.050 391.200,78.050 391.200,81.150 392.000,81.150 392.000,82.150 406.000,82.150 406.000,81.150 406.800,81.150 406.800,78.050 406.000,78.050 406.000,72.250 406.800,72.250 406.800,69.150 406.000,69.150 406.000,68.150" style="fill:none;stroke-width:0.050000mm;stroke:black"/>
<polygon points="411.050,68.150 411.050,69.150 410.250,69.150 410.250,72.250 411.050,72.250 411.050,78.050 410.250,78.050 410.250,81.150 411.050,81.150 411.050,82.150 425.050,82.150 425.050,81.150 425.850,81.150 425.850,78.050 425.050,78.050 425.050,72.250 425.850,72.250 425.850,69.150 425.050,69.150 425.050,68.150" style="fill:none;stroke-width:0.050000mm;stroke:black"/>
<polygon points="277.700,49.100 277.700,50.100 276.900,50.100 276.900,53.200 277.700,53.200 277.700,53.800 276.175,53.800 276.175,50.570 274.450,50.570 274.450,49.650 271.150,49.650 271.150,50.570 269.425,50.570 269.425,53.800 268.600,53.800 268.600,56.600 269.425,56.600 269.425,62.870 271.150,62.870 271.150,63.850 274.450,63.850 274.450,62.870 276.175,62.870 276.175,58.400 277.700,58.400 277.700,59.000 276.900,59.000 276.900,62.100 277.700,62.100 277.700,63.100 291.700,63.100 291.700,62.100 292.500,62.100 292.500,59.000 291.700,59.000 291.700,58.400 293.225,58.400 293.225,62.870 294.950,62.870 294.950,63.850 298.250,63.850 298.250,62.870 299.975,62.870 299.975,56.600 300.800,56.600 300.800,53.800 299.975,53.800 299.975,50.570 298.250,50.570 298.250,49.650 294.950,49.650 294.950,50.570 293.225,50.570 293.225,53.800 291.700,53.800 291.700,53.200 292.500,53.200 292.500,50.100 291.700,50.100 291.700,49.100" style="fill:none;stroke-width:0.050000mm;stroke:black"/>
<polygon points="20.525,49.100 20.525,50.100 19.724,50.100 19.724,53.200 20.525,53.200 20.525,59.000 19.724,59.000 19.724,62.100 20.525,62.100 20.525,63.100 34.525,63.100 34.525,62.100 35.324,62.100 35.324,59.000 34.525,59.000 34.525,53.200 35.324,53.200 35.324,50.100 34.525,50.100 34.525,49.100" style="fill:none;stroke-width:0.050000mm;stroke:black"/>
<polygon points="39.575,49.100 39.575,50.100 38.775,50.100 38.775,53.200 39.575,53.200 39.575,59.000 38.775,59.000 38.775,62.100 39.575,62.100 39.575,63.100 53.575,63.100 53.575,62.100 54.375,62.100 54.375,59.000 53.575,59.000 53.575,53.200 54.375,53.200 54.375,50.100 53.575,50.100 53.575,49.100" style="fill:none;stroke-width:0.050000mm;stroke:black"/>
<polygon points="58.625,49.100 58.625,50.100 57.825,50.100 57.825,53.200 58.625,53.200 58.625,59.000 57.825,59.000 57.825,62.100 58.625,62.100 58.625,63.100 72.625,63.100 72.625,62.100 73.425,62.100 73.425,59.000 72.625,59.000 72.625,53.200 73.425,53.200 73.425,50.100 72.625,50.100 72.625,49.100" style="fill:none;stroke-width:0.050000mm;stroke:black"/>
<polygon points="77.675,49.100 77.675,50.100 76.875,50.100 76.875,53.200 77.675,53.200 77.675,59.000 76.875,59.000 76.875,62.100 77.675,62.100 77.675,63.100 91.675,63.100 91.675,62.100 92.475,62.100 92.475,59.000 91.675,59.000 91.675,53.200 92.475,53.200 92.475,50.100 91.675,50.100 91.675,49.100" style="fill:none;stroke-width:0.050000mm;stroke:black"/>
<polygon points="96.725,49.100 96.725,50.100 95.925,50.100 95.925,53.200 96.725,53.200 96.725,59.000 95.925,59.000 95.925,62.100 96.725,62.100 96.725,63.100 110.725,63.100 110.725,62.100 111.524,62.100 111.524,59.000 110.725,59.000 110.725,53.200 111.524,53.200 111.524,50.100 110.725,50.100 110.725,49.100" style="fill:none;stroke-width:0.050000mm;stroke:black"/>
<polygon points="115.774,49.100 115.774,50.100 114.975,50.100 114.975,53.200 115.774,53.200 115.774,59.000 114.975,59.000 114.975,62.100 115.774,62.100 115.774,63.100 129.774,63.100 129.774,62.100 130.574,62.100 130.574,59.000 129.774,59.000 129.774,53.200 130.574,53.200 130.574,50.100 129.774,50.100 129.774,49.100" style="fill:none;stroke-width:0.050000mm;stroke:black"/>
<polygon points="134.825,49.100 134.825,50.100 134.024,50.100 134.024,53.200 134.825,53.200 134.825,59.000 134.024,59.000 134.024,62.100 134.825,62.100 134.825,63.100 148.825,63.100 148.825,62.100 149.625,62.100 149.625,59.000 148.825,59.000 148.825,53.200 149.625,53.200 149.625,50.100 148.825,50.100 148.825,49.100" style="fill:none;stroke-width:0.050000mm;stroke:black"/>
<polygon points="153.875,49.100 153.875,50.100 153.075,50.100 153.075,53.200 153.875,53.200 153.875,59.000 153.075,59.000 153.075,62.100 153.875,62.100 153.875,63.100 167.875,63.100 167.875,62.100 168.675,62.100 168.675,59.000 167.875,59.000 167.875,53.200 168.675,53.200 168.675,50.100 167.875,50.100 167.875,49.100" style="fill:none;stroke-width:0.050000mm;stroke:black"/>
<polygon points="172.925,49.100 172.925,50.100 172.125,50.100 172.125,53.200 172.925,53.200 172.925,59.000 172.125,59.000 172.125,62.100 172.925,62.100 172.925,63.100 186.925,63.100 186.925,62.100 187.725,62.100 187.725,59.000 186.925,59.000 186.925,53.200 187.725,53.200 187.725,50.100 186.925,50.100 186.925,49.100" style="fill:none;stroke-width:0.050000mm;stroke:black"/>
<polygon points="191.975,49.100 191.975,50.100 191.175,50.100 191.175,53.200 191.975,53.200 191.975,59.000 191.175,59.000 191.175,62.100 191.975,62.100 191.975,63.100 205.975,63.100 205.975,62.100 206.775,62.100 206.775,59.000 205.975,59.000 205.975,53.200 206.775,53.200 206.775,50.100 205.975,50.100 205.975,49.100" style="fill:none;stroke-width:0.050000mm;stroke:black"/>
<polygon points="211.025,49.100 211.025,50.100 210.225,50.100 210.225,53.200 211.025,53.200 211.025,59.000 210.225,59.000 210.225,62.100 211.025,62.100 211.025,63.100 225.025,63.100 225.025,62.100 225.825,62.100 225.825,59.000 225.025,59.000 225.025,53.200 225.825,53.200 225.825,50.100 225.025,50.100 225.025,49.100" style="fill:none;stroke-width:0.050000mm;stroke:black"/>
<polygon points="230.075,49.100 230.075,50.100 229.275,50.100 229.275,53.200 230.075,53.200 230.075,59.000 229.275,59.000 229.275,62.100 230.075,62.100 230.075,63.100 244.075,63.100 244.075,62.100 244.875,62.100 244.875,59.000 244.075,59.000 244.075,53.200 244.875,53.200 244.875,50.100 244.075,50.100 244.075,49.100" style="fill:none;stroke-width:0.050000mm;stroke:black"/>
<polygon points="249.125,49.100 249.125,50.100 248.325,50.100 248.325,53.200 249.125,53.200 249.125,59.000 248.325,59.000 248.325,62.100 249.125,62.100 249.125,63.100 263.125,63.100 263.125,62.100 263.925,62.100 263.925,59.000 263.125,59.000 263.125,53.200 263.925,53.200 263.925,50.100 263.125,50.100 263.125,49.100" style="fill:none;stroke-width:0.050000mm;stroke:black"/>
<polygon points="311.037,49.100 311.037,50.100 310.237,50.100 310.237,53.200 311.037,53.200 311.037,59.000 310.237,59.000 310.237,62.100 311.037,62.100 311.037,63.100 325.037,63.100 325.037,62.100 325.837,62.100 325.837,59.000 325.037,59.000 325.037,53.200 325.837,53.200 325.837,50.100 325.037,50.100 325.037,49.100" style="fill:none;stroke-width:0.050000mm;stroke:black"/>
<polygon points="330.087,49.100 330.087,50.100 329.287,50.100 329.287,53.200 330.087,53.200 330.087,59.000 329.287,59.000 329.287,62.100 330.087,62.100 330.087,63.100 344.087,63.100 344.087,62.100 344.887,62.100 344.887,59.000 344.087,59.000 344.087,53.200 344.887,53.200 344.887,50.100 344.087,50.100 344.087,49.100" style="fill:none;stroke-width:0.050000mm;stroke:black"/>
<polygon points="349.137,49.100 349.137,50.100 348.337,50.100 348.337,53.200 349.137,53.200 349.137,59.000 348.337,59.000 348.337,62.100 349.137,62.100 349.137,63.100 363.137,63.100 363.137,62.100 363.937,62.100 363.937,59.000 363.137,59.000 363.137,53.200 363.937,53.200 363.937,50.100 363.137,50.100 363.137,49.100" style="fill:none;stroke-width:0.050000mm;stroke:black"/>
<polygon points="372.950,49.100 372.950,50.100 372.150,50.100 372.150,53.200 372.950,53.200 372.950,59.000 372.150,59.000 372.150,62.100 372.950,62.100 372.950,63.100 386.950,63.100 386.950,62.100 387.750,62.100 387.750,59.000 386.950,59.000 386.950,53.200 387.750,53.200 387.750,50.100 386.950,50.100 386.950,49.100" style="fill:none;stroke-width:0.050000mm;stroke:black"/>
<polygon points="392.000,49.100 392.000,50.100 391.200,50.100 391.200,53.200 392.000,53.200 392.000,59.000 391.200,59.000 391.200,62.100 392.000,62.100 392.000,63.100 406.000,63.100 406.000,62.100 406.800,62.100 406.800,59.000 406.000,59.000 406.000,53.200 406.800,53.200 406.800,50.100 406.000,50.100 406.000,49.100" style="fill:none;stroke-width:0.050000mm;stroke:black"/>
<polygon points="411.050,49.100 411.050,50.100 410.250,50.100 410.250,53.200 411.050,53.200 411.050,59.000 410.250,59.000 410.250,62.100 411.050,62.100 411.050,63.100 425.050,63.100 425.050,62.100 425.850,62.100 425.850,59.000 425.050,59.000 425.050,53.200 425.850,53.200 425.850,50.100 425.050,50.100 425.050,49.100" style="fill:none;stroke-width:0.050000mm;stroke:black"/>
<polygon points="430.100,49.100 430.100,50.100 429.300,50.100 429.300,53.200 430.100,53.200 430.100,59.000 429.300,59.000 429.300,62.100 430.100,62.100 430.100,63.100 444.100,63.100 444.100,62.100 444.900,62.100 444.900,59.000 444.100,59.000 444.100,53.200 444.900,53.200 444.900,50.100 444.100,50.100 444.100,49.100" style="fill:none;stroke-width:0.050000mm;stroke:black"/>
<polygon points="20.525,20.525 20.525,21.525 19.724,21.525 19.724,24.625 20.525,24.625 20.525,30.424 19.724,30.424 19.724,33.525 20.525,33.525 20.525,34.525 34.525,34.525 34.525,33.525 35.324,33.525 35.324,30.424 34.525,30.424 34.525,24.625 35.324,24.625 35.324,21.525 34.525,21.525 34.525,20.525" style="fill:none;stroke-width:0.050000mm;stroke:black"/>
<polygon points="58.625,20.525 58.625,21.525 57.825,21.525 57.825,24.625 58.625,24.625 58.625,30.424 57.825,30.424 57.825,33.525 58.625,33.525 58.625,34.525 72.625,34.525 72.625,33.525 73.425,33.525 73.425,30.424 72.625,30.424 72.625,24.625 73.425,24.625 73.425,21.525 72.625,21.525 72.625,20.525" style="fill:none;stroke-width:0.050000mm;stroke:black"/>
<polygon points="77.675,20.525 77.675,21.525 76.875,21.525 76.875,24.625 77.675,24.625 77.675,30.424 76.875,30.424 76.875,33.525 77.675,33.525 77.675,34.525 91.675,34.525 91.675,33.525 92.475,33.525 92.475,30.424 91.675,30.424 91.675,24.625 92.475,24.625 92.475,21.525 91.675,21.525 91.675,20.525" style="fill:none;stroke-width:0.050000mm;stroke:black"/>
<polygon points="96.725,20.525 96.725,21.525 95.925,21.525 95.925,24.625 96.725,24.625 96.725,30.424 95.925,30.424 95.925,33.525 96.725,33.525 96.725,34.525 110.725,34.525 110.725,33.525 111.524,33.525 111.524,30.424 110.725,30.424 110.725,24.625 111.524,24.625 111.524,21.525 110.725,21.525 110.725,20.525" style="fill:none;stroke-width:0.050000mm;stroke:black"/>
<polygon points="115.774,20.525 115.774,21.525 114.975,21.525 114.975,24.625 115.774,24.625 115.774,30.424 114.975,30.424 114.975,33.525 115.774,33.525 115.774,34.525 129.774,34.525 129.774,33.525 130.574,33.525 130.574,30.424 129.774,30.424 129.774,24.625 130.574,24.625 130.574,21.525 129.774,21.525 129.774,20.525" style="fill:none;stroke-width:0.050000mm;stroke:black"/>
<polygon points="144.350,20.525 144.350,21.525 143.549,21.525 143.549,24.625 144.350,24.625 144.350,30.424 143.549,30.424 143.549,33.525 144.350,33.525 144.350,34.525 158.350,34.525 158.350,33.525 159.150,33.525 159.150,30.424 158.350,30.424 158.350,24.625 159.150,24.625 159.150,21.525 158.350,21.525 158.350,20.525" style="fill:none;stroke-width:0.050000mm;stroke:black"/>
<polygon points="163.400,20.525 163.400,21.525 162.600,21.525 162.600,24.625 163.400,24.625 163.400,30.424 162.600,30.424 162.600,33.525 163.400,33.525 163.400,34.525 177.400,34.525 177.400,33.525 178.200,33.525 178.200,30.424 177.400,30.424 177.400,24.625 178.200,24.625 178.200,21.525 177.400,21.525 177.400,20.525" style="fill:none;stroke-width:0.050000mm;stroke:black"/>
<polygon points="182.450,20.525 182.450,21.525 181.650,21.525 181.650,24.625 182.450,24.625 182.450,30.424 181.650,30.424 181.650,33.525 182.450,33.525 182.450,34.525 196.450,34.525 196.450,33.525 197.250,33.525 197.250,30.424 196.450,30.424 196.450,24.625 197.250,24.625 197.250,21.525 196.450,21.525 196.450,20.525" style="fill:none;stroke-width:0.050000mm;stroke:black"/>
<polygon points="201.500,20.525 201.500,21.525 200.700,21.525 200.700,24.625 201.500,24.625 201.500,30.424 200.700,30.424 200.700,33.525 201.500,33.525 201.500,34.525 215.500,34.525 215.500,33.525 216.300,33.525 216.300,30.424 215.500,30.424 215.500,24.625 216.300,24.625 216.300,21.525 215.500,21.525 215.500,20.525" style="fill:none;stroke-width:0.050000mm;stroke:black"/>
<polygon points="230.075,20.525 230.075,21.525 229.275,21.525 229.275,24.625 230.075,24.625 230.075,30.424 229.275,30.424 229.275,33.525 230.075,33.525 230.075,34.525 244.075,34.525 244.075,33.525 244.875,33.525 244.875,30.424 244.075,30.424 244.075,24.625 244.875,24.625 244.875,21.525 244.075,21.525 244.075,20.525" style="fill:none;stroke-width:0.050000mm;stroke:black"/>
<polygon points="249.125,20.525 249.125,21.525 248.325,21.525 248.325,24.625 249.125,24.625 249.125,30.424 248.325,30.424 248.325,33.525 249.125,33.525 249.125,34.525 263.125,34.525 263.125,33.525 263.925,33.525 263.925,30.424 263.125,30.424 263.125,24.625 263.925,24.625 263.925,21.525 263.125,21.525 263.125,20.525" style="fill:none;stroke-width:0.050000mm;stroke:black"/>
<polygon points="268.175,20.525 268.175,21.525 267.375,21.525 267.375,24.625 268.175,24.625 268.175,30.424 267.375,30.424 267.375,33.525 268.175,33.525 268.175,34.525 282.175,34.525 282.175,33.525 282.975,33.525 282.975,30.424 282.175,30.424 282.175,24.625 282.975,24.625 282.975,21.525 282.175,21.525 282.175,20.525" style="fill:none;stroke-width:0.050000mm;stroke:black"/>
<polygon points="287.225,20.525 287.225,21.525 286.425,21.525 286.425,24.625 287.225,24.625 287.225,30.424 286.425,30.424 286.425,33.525 287.225,33.525 287.225,34.525 301.225,34.525 301.225,33.525 302.025,33.525 302.025,30.424 301.225,30.424 301.225,24.625 302.025,24.625 302.025,21.525 301.225,21.525 301.225,20.525" style="fill:none;stroke-width:0.050000mm;stroke:black"/>
<polygon points="311.037,20.525 311.037,21.525 310.237,21.525 310.237,24.625 311.037,24.625 311.037,30.424 310.237,30.424 310.237,33.525 311.037,33.525 311.037,34.525 325.037,34.525 325.037,33.525 325.837,33.525 325.837,30.424 325.037,30.424 325.037,24.625 325.837,24.625 325.837,21.525 325.037,21.525 325.037,20.525" style="fill:none;stroke-width:0.050000mm;stroke:black"/>
<polygon points="330.087,20.525 330.087,21.525 329.287,21.525 329.287,24.625 330.087,24.625 330.087,30.424 329.287,30.424 329.287,33.525 330.087,33.525 330.087,34.525 344.087,34.525 344.087,33.525 344.887,33.525 344.887,30.424 344.087,30.424 344.087,24.625 344.887,24.625 344.887,21.525 344.087,21.525 344.087,20.525" style="fill:none;stroke-width:0.050000mm;stroke:black"/>
<polygon points="349.137,20.525 349.137,21.525 348.337,21.525 348.337,24.625 349.137,24.625 349.137,30.424 348.337,30.424 348.337,33.525 349.137,33.525 349.137,34.525 363.137,34.525 363.137,33.525 363.937,33.525 363.937,30.424 363.137,30.424 363.137,24.625 363.937,24.625 363.937,21.525 363.137,21.525 363.137,20.525" style="fill:none;stroke-width:0.050000mm;stroke:black"/>
</svg>
