<?xml version="1.0" encoding="UTF-8"?>
<!-- Generated by SVGo -->
<svg width="464.626mm" height="159.826mm" viewBox="0.000 0.000 464.626 159.826" xmlns="http://www.w3.org/2000/svg" xmlns:xlink="http://www.w3.org/1999/xlink">
<polygon points="459.626,154.826 5.000,154.826 5.000,5.000 389.312,5.000 389.312,13.000 13.000,13.000 13.000,146.826 451.626,146.826 451.626,13.000 409.312,13.000 409.312,5.000 459.626,5.000" style="fill:none;stroke-width:0.050000mm;stroke:black"/>
<polygon points="455.085,149.161 454.597,149.410 454.210,149.797 453.961,150.285 453.876,150.826 453.961,151.366 454.210,151.854 454.597,152.241 455.085,152.490 455.626,152.576 456.166,152.490 456.654,152.241 457.041,151.854 457.290,151.366 457.376,150.826 457.290,150.285 457.041,149.797 456.654,149.410 456.166,149.161 455.626,149.076" style="fill:none;stroke-width:0.050000mm;stroke:black"/>
<polygon points="306.209,149.161 305.722,149.410 305.334,149.797 305.086,150.285 305.000,150.826 305.086,151.366 305.334,151.854 305.722,152.241 306.209,152.490 306.750,152.576 307.291,152.490 307.779,152.241 308.166,151.854 308.415,151.366 308.500,150.826 308.415,150.285 308.166,149.797 307.779,149.410 307.291,149.161 306.750,149.076" style="fill:none;stroke-width:0.050000mm;stroke:black"/>
<polygon points="157.334,149.161 156.846,149.410 156.459,149.797 156.210,150.285 156.125,150.826 156.210,151.366 156.459,151.854 156.846,152.241 157.334,152.490 157.875,152.576 158.416,152.490 158.903,152.241 159.291,151.854 159.539,151.366 159.625,150.826 159.539,150.285 159.291,149.797 158.903,149.410 158.416,149.161 157.875,149.076" style="fill:none;stroke-width:0.050000mm;stroke:black"/>
<polygon points="8.459,149.161 7.971,149.410 7.584,149.797 7.335,150.285 7.250,150.826 7.335,151.366 7.584,151.854 7.971,152.241 8.459,152.490 9.000,152.576 9.540,152.490 10.028,152.241 10.415,151.854 10.664,151.366 10.750,150.826 10.664,150.285 10.415,149.797 10.028,149.410 9.540,149.161 9.000,149.076" style="fill:none;stroke-width:0.050000mm;stroke:black"/>
<polygon points="157.334,7.335 156.846,7.584 156.459,7.971 156.210,8.459 156.125,9.000 156.210,9.540 156.459,10.028 156.846,10.415 157.334,10.664 157.875,10.750 158.416,10.664 158.903,10.415 159.291,10.028 159.539,9.540 159.625,9.000 159.539,8.459 159.291,7.971 158.903,7.584 158.416,7.335 157.875,7.250" style="fill:none;stroke-width:0.050000mm;stroke:black"/>
<polygon points="306.209,7.335 305.722,7.584 305.334,7.971 305.086,8.459 305.000,9.000 305.086,9.540 305.334,10.028 305.722,10.415 306.209,10.664 306.750,10.750 307.291,10.664 307.779,10.415 308.166,10.028 308.415,9.540 308.500,9.000 308.415,8.459 308.166,7.971 307.779,7.584 307.291,7.335 306.750,7.250" style="fill:none;stroke-width:0.050000mm;stroke:black"/>
<polygon points="455.085,7.335 454.597,7.584 454.210,7.971 453.961,8.459 453.876,9.000 453.961,9.540 454.210,10.028 454.597,10.415 455.085,10.664 455.626,10.750 456.166,10.664 456.654,10.415 457.041,10.028 457.290,9.540 457.376,9.000 457.290,8.459 457.041,7.971 456.654,7.584 456.166,7.335 455.626,7.250" style="fill:none;stroke-width:0.050000mm;stroke:black"/>
<polygon points="8.459,7.335 7.971,7.584 7.584,7.971 7.335,8.459 7.250,9.000 7.335,9.540 7.584,10.028 7.971,10.415 8.459,10.664 9.000,10.750 9.540,10.664 10.028,10.415 10.415,10.028 10.664,9.540 10.750,9.000 10.664,8.459 10.415,7.971 10.028,7.584 9.540,7.335 9.000,7.250" style="fill:none;stroke-width:0.050000mm;stroke:black"/>
</svg>