  0
SECTION
  2
HEADER
  9
$ACADVER
  1
AC1009
  9
$FILLMODE
 70
 0
  9
$SPLFRAME
 70
 1
  9
$EXTMIN
 10
0
 20
0
 30
0.0
  9
$EXTMAX
 10
1058.33
 20
1058.33
 30
0.0
  0
ENDSEC
  0
SECTION
  2
TABLES
  0
TABLE
  2
LAYER
 70
1
  0
LAYER
  2
0
 70
     0
 62
     7
  6
CONTINUOUS
  0
ENDTAB
  0
ENDSEC
  0
SECTION
  2
ENTITIES
  0
LINE
  8
0
 62
     0
 10
0.0950846
 20
150.188
 30
0.0
 11
454.72
 21
150.188
 31
0.0
  0
LINE
  8
0
 62
     0
 10
454.72
 20
150.188
 30
0.0
 11
454.72
 21
0.362423
 31
0.0
  0
LINE
  8
0
 62
     0
 10
454.72
 20
0.362423
 30
0.0
 11
0.0950846
 21
0.362423
 31
0.0
  0
LINE
  8
0
 62
     0
 10
0.0950846
 20
0.362423
 30
0.0
 11
0.0950846
 21
150.188
 31
0.0
  0
LINE
  8
0
 62
     0
 10
450.18
 20
6.02753
 30
0.0
 11
449.689
 21
5.77949
 31
0.0
  0
LINE
  8
0
 62
     0
 10
449.689
 20
5.77949
 30
0.0
 11
449.305
 21
5.39228
 31
0.0
  0
LINE
  8
0
 62
     0
 10
449.305
 20
5.39228
 30
0.0
 11
449.054
 21
4.90442
 31
0.0
  0
LINE
  8
0
 62
     0
 10
449.054
 20
4.90442
 30
0.0
 11
448.97
 21
4.36287
 31
0.0
  0
LINE
  8
0
 62
     0
 10
448.97
 20
4.36287
 30
0.0
 11
449.054
 21
3.82266
 31
0.0
  0
LINE
  8
0
 62
     0
 10
449.054
 20
3.82266
 30
0.0
 11
449.305
 21
3.33485
 31
0.0
  0
LINE
  8
0
 62
     0
 10
449.305
 20
3.33485
 30
0.0
 11
449.689
 21
2.94762
 31
0.0
  0
LINE
  8
0
 62
     0
 10
449.689
 20
2.94762
 30
0.0
 11
450.18
 21
2.6982
 31
0.0
  0
LINE
  8
0
 62
     0
 10
450.18
 20
2.6982
 30
0.0
 11
450.719
 21
2.61276
 31
0.0
  0
LINE
  8
0
 62
     0
 10
450.719
 20
2.61276
 30
0.0
 11
451.259
 21
2.6982
 31
0.0
  0
LINE
  8
0
 62
     0
 10
451.259
 20
2.6982
 30
0.0
 11
451.75
 21
2.94762
 31
0.0
  0
LINE
  8
0
 62
     0
 10
451.75
 20
2.94762
 30
0.0
 11
452.134
 21
3.33485
 31
0.0
  0
LINE
  8
0
 62
     0
 10
452.134
 20
3.33485
 30
0.0
 11
452.385
 21
3.82266
 31
0.0
  0
LINE
  8
0
 62
     0
 10
452.385
 20
3.82266
 30
0.0
 11
452.469
 21
4.36287
 31
0.0
  0
LINE
  8
0
 62
     0
 10
452.469
 20
4.36287
 30
0.0
 11
452.385
 21
4.90442
 31
0.0
  0
LINE
  8
0
 62
     0
 10
452.385
 20
4.90442
 30
0.0
 11
452.134
 21
5.39228
 31
0.0
  0
LINE
  8
0
 62
     0
 10
452.134
 20
5.39228
 30
0.0
 11
451.75
 21
5.77949
 31
0.0
  0
LINE
  8
0
 62
     0
 10
451.75
 20
5.77949
 30
0.0
 11
451.259
 21
6.02753
 31
0.0
  0
LINE
  8
0
 62
     0
 10
451.259
 20
6.02753
 30
0.0
 11
450.719
 21
6.11297
 31
0.0
  0
LINE
  8
0
 62
     0
 10
450.719
 20
6.11297
 30
0.0
 11
450.18
 21
6.02753
 31
0.0
  0
LINE
  8
0
 62
     0
 10
301.304
 20
6.02753
 30
0.0
 11
300.816
 21
5.77949
 31
0.0
  0
LINE
  8
0
 62
     0
 10
300.816
 20
5.77949
 30
0.0
 11
300.429
 21
5.39228
 31
0.0
  0
LINE
  8
0
 62
     0
 10
300.429
 20
5.39228
 30
0.0
 11
300.181
 21
4.90442
 31
0.0
  0
LINE
  8
0
 62
     0
 10
300.181
 20
4.90442
 30
0.0
 11
300.094
 21
4.36287
 31
0.0
  0
LINE
  8
0
 62
     0
 10
300.094
 20
4.36287
 30
0.0
 11
300.181
 21
3.82266
 31
0.0
  0
LINE
  8
0
 62
     0
 10
300.181
 20
3.82266
 30
0.0
 11
300.429
 21
3.33485
 31
0.0
  0
LINE
  8
0
 62
     0
 10
300.429
 20
3.33485
 30
0.0
 11
300.816
 21
2.94762
 31
0.0
  0
LINE
  8
0
 62
     0
 10
300.816
 20
2.94762
 30
0.0
 11
301.304
 21
2.6982
 31
0.0
  0
LINE
  8
0
 62
     0
 10
301.304
 20
2.6982
 30
0.0
 11
301.844
 21
2.61276
 31
0.0
  0
LINE
  8
0
 62
     0
 10
301.844
 20
2.61276
 30
0.0
 11
302.386
 21
2.6982
 31
0.0
  0
LINE
  8
0
 62
     0
 10
302.386
 20
2.6982
 30
0.0
 11
302.873
 21
2.94762
 31
0.0
  0
LINE
  8
0
 62
     0
 10
302.873
 20
2.94762
 30
0.0
 11
303.261
 21
3.33485
 31
0.0
  0
LINE
  8
0
 62
     0
 10
303.261
 20
3.33485
 30
0.0
 11
303.51
 21
3.82266
 31
0.0
  0
LINE
  8
0
 62
     0
 10
303.51
 20
3.82266
 30
0.0
 11
303.594
 21
4.36287
 31
0.0
  0
LINE
  8
0
 62
     0
 10
303.594
 20
4.36287
 30
0.0
 11
303.51
 21
4.90442
 31
0.0
  0
LINE
  8
0
 62
     0
 10
303.51
 20
4.90442
 30
0.0
 11
303.261
 21
5.39228
 31
0.0
  0
LINE
  8
0
 62
     0
 10
303.261
 20
5.39228
 30
0.0
 11
302.873
 21
5.77949
 31
0.0
  0
LINE
  8
0
 62
     0
 10
302.873
 20
5.77949
 30
0.0
 11
302.386
 21
6.02753
 31
0.0
  0
LINE
  8
0
 62
     0
 10
302.386
 20
6.02753
 30
0.0
 11
301.844
 21
6.11297
 31
0.0
  0
LINE
  8
0
 62
     0
 10
301.844
 20
6.11297
 30
0.0
 11
301.304
 21
6.02753
 31
0.0
  0
LINE
  8
0
 62
     0
 10
152.429
 20
6.02753
 30
0.0
 11
151.941
 21
5.77949
 31
0.0
  0
LINE
  8
0
 62
     0
 10
151.941
 20
5.77949
 30
0.0
 11
151.554
 21
5.39228
 31
0.0
  0
LINE
  8
0
 62
     0
 10
151.554
 20
5.39228
 30
0.0
 11
151.305
 21
4.90442
 31
0.0
  0
LINE
  8
0
 62
     0
 10
151.305
 20
4.90442
 30
0.0
 11
151.219
 21
4.36287
 31
0.0
  0
LINE
  8
0
 62
     0
 10
151.219
 20
4.36287
 30
0.0
 11
151.305
 21
3.82266
 31
0.0
  0
LINE
  8
0
 62
     0
 10
151.305
 20
3.82266
 30
0.0
 11
151.554
 21
3.33485
 31
0.0
  0
LINE
  8
0
 62
     0
 10
151.554
 20
3.33485
 30
0.0
 11
151.941
 21
2.94762
 31
0.0
  0
LINE
  8
0
 62
     0
 10
151.941
 20
2.94762
 30
0.0
 11
152.429
 21
2.6982
 31
0.0
  0
LINE
  8
0
 62
     0
 10
152.429
 20
2.6982
 30
0.0
 11
152.969
 21
2.61276
 31
0.0
  0
LINE
  8
0
 62
     0
 10
152.969
 20
2.61276
 30
0.0
 11
153.511
 21
2.6982
 31
0.0
  0
LINE
  8
0
 62
     0
 10
153.511
 20
2.6982
 30
0.0
 11
153.997
 21
2.94762
 31
0.0
  0
LINE
  8
0
 62
     0
 10
153.997
 20
2.94762
 30
0.0
 11
154.386
 21
3.33485
 31
0.0
  0
LINE
  8
0
 62
     0
 10
154.386
 20
3.33485
 30
0.0
 11
154.634
 21
3.82266
 31
0.0
  0
LINE
  8
0
 62
     0
 10
154.634
 20
3.82266
 30
0.0
 11
154.719
 21
4.36287
 31
0.0
  0
LINE
  8
0
 62
     0
 10
154.719
 20
4.36287
 30
0.0
 11
154.634
 21
4.90442
 31
0.0
  0
LINE
  8
0
 62
     0
 10
154.634
 20
4.90442
 30
0.0
 11
154.386
 21
5.39228
 31
0.0
  0
LINE
  8
0
 62
     0
 10
154.386
 20
5.39228
 30
0.0
 11
153.997
 21
5.77949
 31
0.0
  0
LINE
  8
0
 62
     0
 10
153.997
 20
5.77949
 30
0.0
 11
153.511
 21
6.02753
 31
0.0
  0
LINE
  8
0
 62
     0
 10
153.511
 20
6.02753
 30
0.0
 11
152.969
 21
6.11297
 31
0.0
  0
LINE
  8
0
 62
     0
 10
152.969
 20
6.11297
 30
0.0
 11
152.429
 21
6.02753
 31
0.0
  0
LINE
  8
0
 62
     0
 10
3.55395
 20
6.02753
 30
0.0
 11
3.06614
 21
5.77949
 31
0.0
  0
LINE
  8
0
 62
     0
 10
3.06614
 20
5.77949
 30
0.0
 11
2.67891
 21
5.39228
 31
0.0
  0
LINE
  8
0
 62
     0
 10
2.67891
 20
5.39228
 30
0.0
 11
2.42948
 21
4.90442
 31
0.0
  0
LINE
  8
0
 62
     0
 10
2.42948
 20
4.90442
 30
0.0
 11
2.34404
 21
4.36287
 31
0.0
  0
LINE
  8
0
 62
     0
 10
2.34404
 20
4.36287
 30
0.0
 11
2.42948
 21
3.82266
 31
0.0
  0
LINE
  8
0
 62
     0
 10
2.42948
 20
3.82266
 30
0.0
 11
2.67891
 21
3.33485
 31
0.0
  0
LINE
  8
0
 62
     0
 10
2.67891
 20
3.33485
 30
0.0
 11
3.06614
 21
2.94762
 31
0.0
  0
LINE
  8
0
 62
     0
 10
3.06614
 20
2.94762
 30
0.0
 11
3.55395
 21
2.6982
 31
0.0
  0
LINE
  8
0
 62
     0
 10
3.55395
 20
2.6982
 30
0.0
 11
4.09416
 21
2.61276
 31
0.0
  0
LINE
  8
0
 62
     0
 10
4.09416
 20
2.61276
 30
0.0
 11
4.63434
 21
2.6982
 31
0.0
  0
LINE
  8
0
 62
     0
 10
4.63434
 20
2.6982
 30
0.0
 11
5.12216
 21
2.94762
 31
0.0
  0
LINE
  8
0
 62
     0
 10
5.12216
 20
2.94762
 30
0.0
 11
5.5094
 21
3.33485
 31
0.0
  0
LINE
  8
0
 62
     0
 10
5.5094
 20
3.33485
 30
0.0
 11
5.75881
 21
3.82266
 31
0.0
  0
LINE
  8
0
 62
     0
 10
5.75881
 20
3.82266
 30
0.0
 11
5.84426
 21
4.36287
 31
0.0
  0
LINE
  8
0
 62
     0
 10
5.84426
 20
4.36287
 30
0.0
 11
5.75881
 21
4.90442
 31
0.0
  0
LINE
  8
0
 62
     0
 10
5.75881
 20
4.90442
 30
0.0
 11
5.5094
 21
5.39228
 31
0.0
  0
LINE
  8
0
 62
     0
 10
5.5094
 20
5.39228
 30
0.0
 11
5.12216
 21
5.77949
 31
0.0
  0
LINE
  8
0
 62
     0
 10
5.12216
 20
5.77949
 30
0.0
 11
4.63434
 21
6.02753
 31
0.0
  0
LINE
  8
0
 62
     0
 10
4.63434
 20
6.02753
 30
0.0
 11
4.09416
 21
6.11297
 31
0.0
  0
LINE
  8
0
 62
     0
 10
4.09416
 20
6.11297
 30
0.0
 11
3.55395
 21
6.02753
 31
0.0
  0
LINE
  8
0
 62
     0
 10
13.0941
 20
108.614
 30
0.0
 11
298.845
 21
108.614
 31
0.0
  0
LINE
  8
0
 62
     0
 10
298.845
 20
108.614
 30
0.0
 11
298.845
 21
13.3628
 31
0.0
  0
LINE
  8
0
 62
     0
 10
298.845
 20
13.3628
 30
0.0
 11
13.0941
 21
13.3628
 31
0.0
  0
LINE
  8
0
 62
     0
 10
13.0941
 20
13.3628
 30
0.0
 11
13.0941
 21
108.614
 31
0.0
  0
LINE
  8
0
 62
     0
 10
322.655
 20
51.4643
 30
0.0
 11
322.655
 21
32.4142
 31
0.0
  0
LINE
  8
0
 62
     0
 10
322.655
 20
32.4142
 30
0.0
 11
303.605
 21
32.4142
 31
0.0
  0
LINE
  8
0
 62
     0
 10
303.605
 20
32.4142
 30
0.0
 11
303.605
 21
13.3628
 31
0.0
  0
LINE
  8
0
 62
     0
 10
303.605
 20
13.3628
 30
0.0
 11
360.758
 21
13.3628
 31
0.0
  0
LINE
  8
0
 62
     0
 10
360.758
 20
13.3628
 30
0.0
 11
360.758
 21
32.4142
 31
0.0
  0
LINE
  8
0
 62
     0
 10
360.758
 20
32.4142
 30
0.0
 11
341.708
 21
32.4142
 31
0.0
  0
LINE
  8
0
 62
     0
 10
341.708
 20
32.4142
 30
0.0
 11
341.708
 21
51.4643
 31
0.0
  0
LINE
  8
0
 62
     0
 10
341.708
 20
51.4643
 30
0.0
 11
322.655
 21
51.4643
 31
0.0
  0
LINE
  8
0
 62
     0
 10
365.52
 20
108.614
 30
0.0
 11
441.72
 21
108.614
 31
0.0
  0
LINE
  8
0
 62
     0
 10
441.72
 20
108.614
 30
0.0
 11
441.72
 21
13.3628
 31
0.0
  0
LINE
  8
0
 62
     0
 10
441.72
 20
13.3628
 30
0.0
 11
365.52
 21
13.3628
 31
0.0
  0
LINE
  8
0
 62
     0
 10
365.52
 20
13.3628
 30
0.0
 11
365.52
 21
108.614
 31
0.0
  0
LINE
  8
0
 62
     0
 10
303.605
 20
108.614
 30
0.0
 11
360.758
 21
108.614
 31
0.0
  0
LINE
  8
0
 62
     0
 10
360.758
 20
108.614
 30
0.0
 11
360.758
 21
70.5129
 31
0.0
  0
LINE
  8
0
 62
     0
 10
360.758
 20
70.5129
 30
0.0
 11
303.605
 21
70.5129
 31
0.0
  0
LINE
  8
0
 62
     0
 10
303.605
 20
70.5129
 30
0.0
 11
303.605
 21
108.614
 31
0.0
  0
LINE
  8
0
 62
     0
 10
13.0941
 20
137.189
 30
0.0
 11
32.1455
 21
137.189
 31
0.0
  0
LINE
  8
0
 62
     0
 10
32.1455
 20
137.189
 30
0.0
 11
32.1455
 21
118.138
 31
0.0
  0
LINE
  8
0
 62
     0
 10
32.1455
 20
118.138
 30
0.0
 11
13.0941
 21
118.138
 31
0.0
  0
LINE
  8
0
 62
     0
 10
13.0941
 20
118.138
 30
0.0
 11
13.0941
 21
137.189
 31
0.0
  0
LINE
  8
0
 62
     0
 10
51.1941
 20
137.189
 30
0.0
 11
127.395
 21
137.189
 31
0.0
  0
LINE
  8
0
 62
     0
 10
127.395
 20
137.189
 30
0.0
 11
127.395
 21
118.138
 31
0.0
  0
LINE
  8
0
 62
     0
 10
127.395
 20
118.138
 30
0.0
 11
51.1941
 21
118.138
 31
0.0
  0
LINE
  8
0
 62
     0
 10
51.1941
 20
118.138
 30
0.0
 11
51.1941
 21
137.189
 31
0.0
  0
LINE
  8
0
 62
     0
 10
136.918
 20
137.189
 30
0.0
 11
213.12
 21
137.189
 31
0.0
  0
LINE
  8
0
 62
     0
 10
213.12
 20
137.189
 30
0.0
 11
213.12
 21
118.138
 31
0.0
  0
LINE
  8
0
 62
     0
 10
213.12
 20
118.138
 30
0.0
 11
136.918
 21
118.138
 31
0.0
  0
LINE
  8
0
 62
     0
 10
136.918
 20
118.138
 30
0.0
 11
136.918
 21
137.189
 31
0.0
  0
LINE
  8
0
 62
     0
 10
222.644
 20
137.189
 30
0.0
 11
298.845
 21
137.189
 31
0.0
  0
LINE
  8
0
 62
     0
 10
298.845
 20
137.189
 30
0.0
 11
298.845
 21
118.138
 31
0.0
  0
LINE
  8
0
 62
     0
 10
298.845
 20
118.138
 30
0.0
 11
222.644
 21
118.138
 31
0.0
  0
LINE
  8
0
 62
     0
 10
222.644
 20
118.138
 30
0.0
 11
222.644
 21
137.189
 31
0.0
  0
LINE
  8
0
 62
     0
 10
303.605
 20
137.189
 30
0.0
 11
360.758
 21
137.189
 31
0.0
  0
LINE
  8
0
 62
     0
 10
360.758
 20
137.189
 30
0.0
 11
360.758
 21
118.138
 31
0.0
  0
LINE
  8
0
 62
     0
 10
360.758
 20
118.138
 30
0.0
 11
303.605
 21
118.138
 31
0.0
  0
LINE
  8
0
 62
     0
 10
303.605
 20
118.138
 30
0.0
 11
303.605
 21
137.189
 31
0.0
  0
LINE
  8
0
 62
     0
 10
152.429
 20
147.854
 30
0.0
 11
151.941
 21
147.604
 31
0.0
  0
LINE
  8
0
 62
     0
 10
151.941
 20
147.604
 30
0.0
 11
151.554
 21
147.217
 31
0.0
  0
LINE
  8
0
 62
     0
 10
151.554
 20
147.217
 30
0.0
 11
151.305
 21
146.729
 31
0.0
  0
LINE
  8
0
 62
     0
 10
151.305
 20
146.729
 30
0.0
 11
151.219
 21
146.189
 31
0.0
  0
LINE
  8
0
 62
     0
 10
151.219
 20
146.189
 30
0.0
 11
151.305
 21
145.649
 31
0.0
  0
LINE
  8
0
 62
     0
 10
151.305
 20
145.649
 30
0.0
 11
151.554
 21
145.161
 31
0.0
  0
LINE
  8
0
 62
     0
 10
151.554
 20
145.161
 30
0.0
 11
151.941
 21
144.774
 31
0.0
  0
LINE
  8
0
 62
     0
 10
151.941
 20
144.774
 30
0.0
 11
152.429
 21
144.525
 31
0.0
  0
LINE
  8
0
 62
     0
 10
152.429
 20
144.525
 30
0.0
 11
152.969
 21
144.439
 31
0.0
  0
LINE
  8
0
 62
     0
 10
152.969
 20
144.439
 30
0.0
 11
153.511
 21
144.525
 31
0.0
  0
LINE
  8
0
 62
     0
 10
153.511
 20
144.525
 30
0.0
 11
153.997
 21
144.774
 31
0.0
  0
LINE
  8
0
 62
     0
 10
153.997
 20
144.774
 30
0.0
 11
154.386
 21
145.161
 31
0.0
  0
LINE
  8
0
 62
     0
 10
154.386
 20
145.161
 30
0.0
 11
154.634
 21
145.649
 31
0.0
  0
LINE
  8
0
 62
     0
 10
154.634
 20
145.649
 30
0.0
 11
154.719
 21
146.189
 31
0.0
  0
LINE
  8
0
 62
     0
 10
154.719
 20
146.189
 30
0.0
 11
154.634
 21
146.729
 31
0.0
  0
LINE
  8
0
 62
     0
 10
154.634
 20
146.729
 30
0.0
 11
154.386
 21
147.217
 31
0.0
  0
LINE
  8
0
 62
     0
 10
154.386
 20
147.217
 30
0.0
 11
153.997
 21
147.604
 31
0.0
  0
LINE
  8
0
 62
     0
 10
153.997
 20
147.604
 30
0.0
 11
153.511
 21
147.854
 31
0.0
  0
LINE
  8
0
 62
     0
 10
153.511
 20
147.854
 30
0.0
 11
152.969
 21
147.939
 31
0.0
  0
LINE
  8
0
 62
     0
 10
152.969
 20
147.939
 30
0.0
 11
152.429
 21
147.854
 31
0.0
  0
LINE
  8
0
 62
     0
 10
301.304
 20
147.854
 30
0.0
 11
300.816
 21
147.604
 31
0.0
  0
LINE
  8
0
 62
     0
 10
300.816
 20
147.604
 30
0.0
 11
300.429
 21
147.217
 31
0.0
  0
LINE
  8
0
 62
     0
 10
300.429
 20
147.217
 30
0.0
 11
300.181
 21
146.729
 31
0.0
  0
LINE
  8
0
 62
     0
 10
300.181
 20
146.729
 30
0.0
 11
300.094
 21
146.189
 31
0.0
  0
LINE
  8
0
 62
     0
 10
300.094
 20
146.189
 30
0.0
 11
300.181
 21
145.649
 31
0.0
  0
LINE
  8
0
 62
     0
 10
300.181
 20
145.649
 30
0.0
 11
300.429
 21
145.161
 31
0.0
  0
LINE
  8
0
 62
     0
 10
300.429
 20
145.161
 30
0.0
 11
300.816
 21
144.774
 31
0.0
  0
LINE
  8
0
 62
     0
 10
300.816
 20
144.774
 30
0.0
 11
301.304
 21
144.525
 31
0.0
  0
LINE
  8
0
 62
     0
 10
301.304
 20
144.525
 30
0.0
 11
301.844
 21
144.439
 31
0.0
  0
LINE
  8
0
 62
     0
 10
301.844
 20
144.439
 30
0.0
 11
302.386
 21
144.525
 31
0.0
  0
LINE
  8
0
 62
     0
 10
302.386
 20
144.525
 30
0.0
 11
302.873
 21
144.774
 31
0.0
  0
LINE
  8
0
 62
     0
 10
302.873
 20
144.774
 30
0.0
 11
303.261
 21
145.161
 31
0.0
  0
LINE
  8
0
 62
     0
 10
303.261
 20
145.161
 30
0.0
 11
303.51
 21
145.649
 31
0.0
  0
LINE
  8
0
 62
     0
 10
303.51
 20
145.649
 30
0.0
 11
303.594
 21
146.189
 31
0.0
  0
LINE
  8
0
 62
     0
 10
303.594
 20
146.189
 30
0.0
 11
303.51
 21
146.729
 31
0.0
  0
LINE
  8
0
 62
     0
 10
303.51
 20
146.729
 30
0.0
 11
303.261
 21
147.217
 31
0.0
  0
LINE
  8
0
 62
     0
 10
303.261
 20
147.217
 30
0.0
 11
302.873
 21
147.604
 31
0.0
  0
LINE
  8
0
 62
     0
 10
302.873
 20
147.604
 30
0.0
 11
302.386
 21
147.854
 31
0.0
  0
LINE
  8
0
 62
     0
 10
302.386
 20
147.854
 30
0.0
 11
301.844
 21
147.939
 31
0.0
  0
LINE
  8
0
 62
     0
 10
301.844
 20
147.939
 30
0.0
 11
301.304
 21
147.854
 31
0.0
  0
LINE
  8
0
 62
     0
 10
450.18
 20
147.854
 30
0.0
 11
449.689
 21
147.604
 31
0.0
  0
LINE
  8
0
 62
     0
 10
449.689
 20
147.604
 30
0.0
 11
449.305
 21
147.217
 31
0.0
  0
LINE
  8
0
 62
     0
 10
449.305
 20
147.217
 30
0.0
 11
449.054
 21
146.729
 31
0.0
  0
LINE
  8
0
 62
     0
 10
449.054
 20
146.729
 30
0.0
 11
448.97
 21
146.189
 31
0.0
  0
LINE
  8
0
 62
     0
 10
448.97
 20
146.189
 30
0.0
 11
449.054
 21
145.649
 31
0.0
  0
LINE
  8
0
 62
     0
 10
449.054
 20
145.649
 30
0.0
 11
449.305
 21
145.161
 31
0.0
  0
LINE
  8
0
 62
     0
 10
449.305
 20
145.161
 30
0.0
 11
449.689
 21
144.774
 31
0.0
  0
LINE
  8
0
 62
     0
 10
449.689
 20
144.774
 30
0.0
 11
450.18
 21
144.525
 31
0.0
  0
LINE
  8
0
 62
     0
 10
450.18
 20
144.525
 30
0.0
 11
450.719
 21
144.439
 31
0.0
  0
LINE
  8
0
 62
     0
 10
450.719
 20
144.439
 30
0.0
 11
451.259
 21
144.525
 31
0.0
  0
LINE
  8
0
 62
     0
 10
451.259
 20
144.525
 30
0.0
 11
451.75
 21
144.774
 31
0.0
  0
LINE
  8
0
 62
     0
 10
451.75
 20
144.774
 30
0.0
 11
452.134
 21
145.161
 31
0.0
  0
LINE
  8
0
 62
     0
 10
452.134
 20
145.161
 30
0.0
 11
452.385
 21
145.649
 31
0.0
  0
LINE
  8
0
 62
     0
 10
452.385
 20
145.649
 30
0.0
 11
452.469
 21
146.189
 31
0.0
  0
LINE
  8
0
 62
     0
 10
452.469
 20
146.189
 30
0.0
 11
452.385
 21
146.729
 31
0.0
  0
LINE
  8
0
 62
     0
 10
452.385
 20
146.729
 30
0.0
 11
452.134
 21
147.217
 31
0.0
  0
LINE
  8
0
 62
     0
 10
452.134
 20
147.217
 30
0.0
 11
451.75
 21
147.604
 31
0.0
  0
LINE
  8
0
 62
     0
 10
451.75
 20
147.604
 30
0.0
 11
451.259
 21
147.854
 31
0.0
  0
LINE
  8
0
 62
     0
 10
451.259
 20
147.854
 30
0.0
 11
450.719
 21
147.939
 31
0.0
  0
LINE
  8
0
 62
     0
 10
450.719
 20
147.939
 30
0.0
 11
450.18
 21
147.854
 31
0.0
  0
LINE
  8
0
 62
     0
 10
3.55395
 20
147.854
 30
0.0
 11
3.06614
 21
147.604
 31
0.0
  0
LINE
  8
0
 62
     0
 10
3.06614
 20
147.604
 30
0.0
 11
2.67891
 21
147.217
 31
0.0
  0
LINE
  8
0
 62
     0
 10
2.67891
 20
147.217
 30
0.0
 11
2.42948
 21
146.729
 31
0.0
  0
LINE
  8
0
 62
     0
 10
2.42948
 20
146.729
 30
0.0
 11
2.34404
 21
146.189
 31
0.0
  0
LINE
  8
0
 62
     0
 10
2.34404
 20
146.189
 30
0.0
 11
2.42948
 21
145.649
 31
0.0
  0
LINE
  8
0
 62
     0
 10
2.42948
 20
145.649
 30
0.0
 11
2.67891
 21
145.161
 31
0.0
  0
LINE
  8
0
 62
     0
 10
2.67891
 20
145.161
 30
0.0
 11
3.06614
 21
144.774
 31
0.0
  0
LINE
  8
0
 62
     0
 10
3.06614
 20
144.774
 30
0.0
 11
3.55395
 21
144.525
 31
0.0
  0
LINE
  8
0
 62
     0
 10
3.55395
 20
144.525
 30
0.0
 11
4.09416
 21
144.439
 31
0.0
  0
LINE
  8
0
 62
     0
 10
4.09416
 20
144.439
 30
0.0
 11
4.63434
 21
144.525
 31
0.0
  0
LINE
  8
0
 62
     0
 10
4.63434
 20
144.525
 30
0.0
 11
5.12216
 21
144.774
 31
0.0
  0
LINE
  8
0
 62
     0
 10
5.12216
 20
144.774
 30
0.0
 11
5.5094
 21
145.161
 31
0.0
  0
LINE
  8
0
 62
     0
 10
5.5094
 20
145.161
 30
0.0
 11
5.75881
 21
145.649
 31
0.0
  0
LINE
  8
0
 62
     0
 10
5.75881
 20
145.649
 30
0.0
 11
5.84426
 21
146.189
 31
0.0
  0
LINE
  8
0
 62
     0
 10
5.84426
 20
146.189
 30
0.0
 11
5.75881
 21
146.729
 31
0.0
  0
LINE
  8
0
 62
     0
 10
5.75881
 20
146.729
 30
0.0
 11
5.5094
 21
147.217
 31
0.0
  0
LINE
  8
0
 62
     0
 10
5.5094
 20
147.217
 30
0.0
 11
5.12216
 21
147.604
 31
0.0
  0
LINE
  8
0
 62
     0
 10
5.12216
 20
147.604
 30
0.0
 11
4.63434
 21
147.854
 31
0.0
  0
LINE
  8
0
 62
     0
 10
4.63434
 20
147.854
 30
0.0
 11
4.09416
 21
147.939
 31
0.0
  0
LINE
  8
0
 62
     0
 10
4.09416
 20
147.939
 30
0.0
 11
3.55395
 21
147.854
 31
0.0
  0
ENDSEC
  0
EOF
