%TF.GenerationSoftware,KiCad,Pcbnew,7.0.10*%
%TF.CreationDate,2024-02-09T15:32:17+01:00*%
%TF.ProjectId,k3yb.it,6b337962-2e69-4742-9e6b-696361645f70,rev?*%
%TF.SameCoordinates,Original*%
%TF.FileFunction,Soldermask,Bot*%
%TF.FilePolarity,Negative*%
%FSLAX46Y46*%
G04 Gerber Fmt 4.6, Leading zero omitted, Abs format (unit mm)*
G04 Created by KiCad (PCBNEW 7.0.10) date 2024-02-09 15:32:17*
%MOMM*%
%LPD*%
G01*
G04 APERTURE LIST*
G04 Aperture macros list*
%AMRoundRect*
0 Rectangle with rounded corners*
0 $1 Rounding radius*
0 $2 $3 $4 $5 $6 $7 $8 $9 X,Y pos of 4 corners*
0 Add a 4 corners polygon primitive as box body*
4,1,4,$2,$3,$4,$5,$6,$7,$8,$9,$2,$3,0*
0 Add four circle primitives for the rounded corners*
1,1,$1+$1,$2,$3*
1,1,$1+$1,$4,$5*
1,1,$1+$1,$6,$7*
1,1,$1+$1,$8,$9*
0 Add four rect primitives between the rounded corners*
20,1,$1+$1,$2,$3,$4,$5,0*
20,1,$1+$1,$4,$5,$6,$7,0*
20,1,$1+$1,$6,$7,$8,$9,0*
20,1,$1+$1,$8,$9,$2,$3,0*%
G04 Aperture macros list end*
%ADD10C,1.750000*%
%ADD11C,4.000000*%
%ADD12C,2.500000*%
%ADD13RoundRect,0.150000X0.875000X0.150000X-0.875000X0.150000X-0.875000X-0.150000X0.875000X-0.150000X0*%
%ADD14R,1.752600X1.752600*%
%ADD15C,1.752600*%
%ADD16RoundRect,0.225000X0.375000X-0.225000X0.375000X0.225000X-0.375000X0.225000X-0.375000X-0.225000X0*%
G04 APERTURE END LIST*
D10*
%TO.C,S28*%
X247650000Y-71755000D03*
D11*
X252730000Y-71755000D03*
D10*
X257810000Y-71755000D03*
D12*
X248920000Y-69215000D03*
X255270000Y-66675000D03*
%TD*%
D13*
%TO.C,U5*%
X402636250Y-40957500D03*
X402636250Y-42227500D03*
X402636250Y-43497500D03*
X402636250Y-44767500D03*
X402636250Y-46037500D03*
X402636250Y-47307500D03*
X402636250Y-48577500D03*
X402636250Y-49847500D03*
X402636250Y-51117500D03*
X402636250Y-52387500D03*
X402636250Y-53657500D03*
X402636250Y-54927500D03*
X393336250Y-54927500D03*
X393336250Y-53657500D03*
X393336250Y-52387500D03*
X393336250Y-51117500D03*
X393336250Y-49847500D03*
X393336250Y-48577500D03*
X393336250Y-47307500D03*
X393336250Y-46037500D03*
X393336250Y-44767500D03*
X393336250Y-43497500D03*
X393336250Y-42227500D03*
X393336250Y-40957500D03*
%TD*%
D14*
%TO.C,U1*%
X406915000Y-24655000D03*
D15*
X406915000Y-27195000D03*
X406915000Y-29735000D03*
X406915000Y-32275000D03*
X406915000Y-34815000D03*
X406915000Y-37355000D03*
X406915000Y-39895000D03*
X406915000Y-42435000D03*
X406915000Y-44975000D03*
X406915000Y-47515000D03*
X406915000Y-50055000D03*
X406915000Y-52595000D03*
X422155000Y-52595000D03*
X422155000Y-50055000D03*
X422155000Y-47515000D03*
X422155000Y-44975000D03*
X422155000Y-42435000D03*
X422155000Y-39895000D03*
X422155000Y-37355000D03*
X422155000Y-34815000D03*
X422155000Y-32275000D03*
X422155000Y-29735000D03*
X422155000Y-27195000D03*
X422155000Y-24655000D03*
%TD*%
D10*
%TO.C,S31*%
X291147500Y-110013750D03*
X280987500Y-110013750D03*
D11*
X286067500Y-110013750D03*
D12*
X288607500Y-104933750D03*
X282257500Y-107473750D03*
%TD*%
D16*
%TO.C,D31*%
X302736250Y-120298750D03*
X302736250Y-116998750D03*
%TD*%
D10*
%TO.C,S8*%
X200025000Y-43180000D03*
D11*
X205105000Y-43180000D03*
D10*
X210185000Y-43180000D03*
D12*
X201295000Y-40640000D03*
X207645000Y-38100000D03*
%TD*%
D10*
%TO.C,S75*%
X233362500Y-128905000D03*
D11*
X238442500Y-128905000D03*
D10*
X243522500Y-128905000D03*
D12*
X234632500Y-126365000D03*
X240982500Y-123825000D03*
%TD*%
D10*
%TO.C,S78*%
X347662500Y-128905000D03*
D11*
X352742500Y-128905000D03*
D10*
X357822500Y-128905000D03*
D12*
X348932500Y-126365000D03*
X355282500Y-123825000D03*
%TD*%
%TO.C,S101*%
X398145000Y-85725000D03*
X391795000Y-88265000D03*
D10*
X400685000Y-90805000D03*
D11*
X395605000Y-90805000D03*
D10*
X390525000Y-90805000D03*
%TD*%
D12*
%TO.C,S102*%
X417195000Y-85725000D03*
X410845000Y-88265000D03*
D10*
X419735000Y-90805000D03*
D11*
X414655000Y-90805000D03*
D10*
X409575000Y-90805000D03*
%TD*%
%TO.C,S110*%
X428625000Y-128905000D03*
D11*
X433705000Y-128905000D03*
D10*
X438785000Y-128905000D03*
D12*
X429895000Y-126365000D03*
X436245000Y-123825000D03*
%TD*%
%TO.C,S104*%
X455295000Y-95250000D03*
X448945000Y-97790000D03*
D10*
X457835000Y-100330000D03*
D11*
X452755000Y-100330000D03*
D10*
X447675000Y-100330000D03*
%TD*%
D12*
%TO.C,S103*%
X436245000Y-85725000D03*
X429895000Y-88265000D03*
D10*
X438785000Y-90805000D03*
D11*
X433705000Y-90805000D03*
D10*
X428625000Y-90805000D03*
%TD*%
%TO.C,S108*%
X390525000Y-128905000D03*
D11*
X395605000Y-128905000D03*
D10*
X400685000Y-128905000D03*
D12*
X391795000Y-126365000D03*
X398145000Y-123825000D03*
%TD*%
D16*
%TO.C,D104*%
X462280000Y-109855000D03*
X462280000Y-106555000D03*
%TD*%
%TO.C,D101*%
X405130000Y-100330000D03*
X405130000Y-97030000D03*
%TD*%
%TO.C,D103*%
X443230000Y-100330000D03*
X443230000Y-97030000D03*
%TD*%
%TO.C,D108*%
X405130000Y-138430000D03*
X405130000Y-135130000D03*
%TD*%
%TO.C,D110*%
X443230000Y-138430000D03*
X443230000Y-135130000D03*
%TD*%
%TO.C,D102*%
X424180000Y-100330000D03*
X424180000Y-97030000D03*
%TD*%
D12*
%TO.C,S105*%
X398145000Y-104775000D03*
X391795000Y-107315000D03*
D10*
X400685000Y-109855000D03*
D11*
X395605000Y-109855000D03*
D10*
X390525000Y-109855000D03*
%TD*%
D12*
%TO.C,S109*%
X417195000Y-123825000D03*
X410845000Y-126365000D03*
D10*
X419735000Y-128905000D03*
D11*
X414655000Y-128905000D03*
D10*
X409575000Y-128905000D03*
%TD*%
D12*
%TO.C,S107*%
X436245000Y-104775000D03*
X429895000Y-107315000D03*
D10*
X438785000Y-109855000D03*
D11*
X433705000Y-109855000D03*
D10*
X428625000Y-109855000D03*
%TD*%
D12*
%TO.C,S106*%
X417195000Y-104775000D03*
X410845000Y-107315000D03*
D10*
X419735000Y-109855000D03*
D11*
X414655000Y-109855000D03*
D10*
X409575000Y-109855000D03*
%TD*%
D16*
%TO.C,D105*%
X405130000Y-119380000D03*
X405130000Y-116080000D03*
%TD*%
%TO.C,D107*%
X443230000Y-119380000D03*
X443230000Y-116080000D03*
%TD*%
%TO.C,D109*%
X424180000Y-138430000D03*
X424180000Y-135130000D03*
%TD*%
%TO.C,D106*%
X424180000Y-119380000D03*
X424180000Y-116080000D03*
%TD*%
%TO.C,D13*%
X319405000Y-49405000D03*
X319405000Y-52705000D03*
%TD*%
D10*
%TO.C,S50*%
X71437500Y-109855000D03*
D11*
X76517500Y-109855000D03*
D10*
X81597500Y-109855000D03*
D12*
X72707500Y-107315000D03*
X79057500Y-104775000D03*
%TD*%
D10*
%TO.C,S11*%
X266700000Y-43180000D03*
D11*
X271780000Y-43180000D03*
D10*
X276860000Y-43180000D03*
D12*
X267970000Y-40640000D03*
X274320000Y-38100000D03*
%TD*%
D10*
%TO.C,S18*%
X57150000Y-71755000D03*
D11*
X62230000Y-71755000D03*
D10*
X67310000Y-71755000D03*
D12*
X58420000Y-69215000D03*
X64770000Y-66675000D03*
%TD*%
D10*
%TO.C,S48*%
X366712500Y-71755000D03*
D11*
X371792500Y-71755000D03*
D10*
X376872500Y-71755000D03*
D12*
X367982500Y-69215000D03*
X374332500Y-66675000D03*
%TD*%
D10*
%TO.C,S60*%
X261937500Y-109855000D03*
D11*
X267017500Y-109855000D03*
D10*
X272097500Y-109855000D03*
D12*
X263207500Y-107315000D03*
X269557500Y-104775000D03*
%TD*%
D10*
%TO.C,S56*%
X185737500Y-109855000D03*
D11*
X190817500Y-109855000D03*
D10*
X195897500Y-109855000D03*
D12*
X187007500Y-107315000D03*
X193357500Y-104775000D03*
%TD*%
D10*
%TO.C,S88*%
X302101250Y-147955000D03*
D11*
X307181250Y-147955000D03*
D10*
X312261250Y-147955000D03*
D12*
X303371250Y-145415000D03*
X309721250Y-142875000D03*
%TD*%
D10*
%TO.C,S3*%
X95250000Y-43180000D03*
D11*
X100330000Y-43180000D03*
D10*
X105410000Y-43180000D03*
D12*
X96520000Y-40640000D03*
X102870000Y-38100000D03*
%TD*%
D10*
%TO.C,S52*%
X109537500Y-109855000D03*
D11*
X114617500Y-109855000D03*
D10*
X119697500Y-109855000D03*
D12*
X110807500Y-107315000D03*
X117157500Y-104775000D03*
%TD*%
D10*
%TO.C,S59*%
X242887500Y-109855000D03*
D11*
X247967500Y-109855000D03*
D10*
X253047500Y-109855000D03*
D12*
X244157500Y-107315000D03*
X250507500Y-104775000D03*
%TD*%
D10*
%TO.C,S63*%
X347662500Y-90805000D03*
D11*
X352742500Y-90805000D03*
D10*
X357822500Y-90805000D03*
D12*
X348932500Y-88265000D03*
X355282500Y-85725000D03*
%TD*%
D10*
%TO.C,S20*%
X95250000Y-71755000D03*
D11*
X100330000Y-71755000D03*
D10*
X105410000Y-71755000D03*
D12*
X96520000Y-69215000D03*
X102870000Y-66675000D03*
%TD*%
D10*
%TO.C,S38*%
X142875000Y-90805000D03*
D11*
X147955000Y-90805000D03*
D10*
X153035000Y-90805000D03*
D12*
X144145000Y-88265000D03*
X150495000Y-85725000D03*
%TD*%
D10*
%TO.C,S61*%
X302418750Y-100330000D03*
D11*
X307498750Y-100330000D03*
D10*
X312578750Y-100330000D03*
D12*
X303688750Y-97790000D03*
X310038750Y-95250000D03*
%TD*%
%TO.C,S97*%
X398145000Y-66675000D03*
X391795000Y-69215000D03*
D10*
X400685000Y-71755000D03*
D11*
X395605000Y-71755000D03*
D10*
X390525000Y-71755000D03*
%TD*%
%TO.C,S13*%
X304800000Y-43180000D03*
D11*
X309880000Y-43180000D03*
D10*
X314960000Y-43180000D03*
D12*
X306070000Y-40640000D03*
X312420000Y-38100000D03*
%TD*%
D10*
%TO.C,S54*%
X147637500Y-109855000D03*
D11*
X152717500Y-109855000D03*
D10*
X157797500Y-109855000D03*
D12*
X148907500Y-107315000D03*
X155257500Y-104775000D03*
%TD*%
D10*
%TO.C,S30*%
X295275000Y-71755000D03*
D11*
X300355000Y-71755000D03*
D10*
X305435000Y-71755000D03*
D12*
X296545000Y-69215000D03*
X302895000Y-66675000D03*
%TD*%
D10*
%TO.C,S21*%
X114300000Y-71755000D03*
D11*
X119380000Y-71755000D03*
D10*
X124460000Y-71755000D03*
D12*
X115570000Y-69215000D03*
X121920000Y-66675000D03*
%TD*%
D10*
%TO.C,S26*%
X209550000Y-71755000D03*
D11*
X214630000Y-71755000D03*
D10*
X219710000Y-71755000D03*
D12*
X210820000Y-69215000D03*
X217170000Y-66675000D03*
%TD*%
D10*
%TO.C,S73*%
X195262500Y-128905000D03*
D11*
X200342500Y-128905000D03*
D10*
X205422500Y-128905000D03*
D12*
X196532500Y-126365000D03*
X202882500Y-123825000D03*
%TD*%
D10*
%TO.C,S87*%
X278606250Y-147955000D03*
D11*
X283686250Y-147955000D03*
D10*
X288766250Y-147955000D03*
D12*
X279876250Y-145415000D03*
X286226250Y-142875000D03*
%TD*%
D10*
%TO.C,S53*%
X128587500Y-109855000D03*
D11*
X133667500Y-109855000D03*
D10*
X138747500Y-109855000D03*
D12*
X129857500Y-107315000D03*
X136207500Y-104775000D03*
%TD*%
D10*
%TO.C,S47*%
X347662500Y-71755000D03*
D11*
X352742500Y-71755000D03*
D10*
X357822500Y-71755000D03*
D12*
X348932500Y-69215000D03*
X355282500Y-66675000D03*
%TD*%
D10*
%TO.C,S4*%
X114300000Y-43180000D03*
D11*
X119380000Y-43180000D03*
D10*
X124460000Y-43180000D03*
D12*
X115570000Y-40640000D03*
X121920000Y-38100000D03*
%TD*%
D10*
%TO.C,S2*%
X76200000Y-43180000D03*
D11*
X81280000Y-43180000D03*
D10*
X86360000Y-43180000D03*
D12*
X77470000Y-40640000D03*
X83820000Y-38100000D03*
%TD*%
D10*
%TO.C,S62*%
X328612500Y-90805000D03*
D11*
X333692500Y-90805000D03*
D10*
X338772500Y-90805000D03*
D12*
X329882500Y-88265000D03*
X336232500Y-85725000D03*
%TD*%
D10*
%TO.C,S65*%
X42862500Y-128905000D03*
D11*
X47942500Y-128905000D03*
D10*
X53022500Y-128905000D03*
D12*
X44132500Y-126365000D03*
X50482500Y-123825000D03*
%TD*%
D10*
%TO.C,S64*%
X366712500Y-90805000D03*
D11*
X371792500Y-90805000D03*
D10*
X376872500Y-90805000D03*
D12*
X367982500Y-88265000D03*
X374332500Y-85725000D03*
%TD*%
D10*
%TO.C,S71*%
X157162500Y-128905000D03*
D11*
X162242500Y-128905000D03*
D10*
X167322500Y-128905000D03*
D12*
X158432500Y-126365000D03*
X164782500Y-123825000D03*
%TD*%
D10*
%TO.C,S99*%
X428625000Y-71755000D03*
D11*
X433705000Y-71755000D03*
D10*
X438785000Y-71755000D03*
D12*
X429895000Y-69215000D03*
X436245000Y-66675000D03*
%TD*%
D10*
%TO.C,S19*%
X76200000Y-71755000D03*
D11*
X81280000Y-71755000D03*
D10*
X86360000Y-71755000D03*
D12*
X77470000Y-69215000D03*
X83820000Y-66675000D03*
%TD*%
D10*
%TO.C,S70*%
X138112500Y-128905000D03*
D11*
X143192500Y-128905000D03*
D10*
X148272500Y-128905000D03*
D12*
X139382500Y-126365000D03*
X145732500Y-123825000D03*
%TD*%
D10*
%TO.C,S5*%
X133350000Y-43180000D03*
D11*
X138430000Y-43180000D03*
D10*
X143510000Y-43180000D03*
D12*
X134620000Y-40640000D03*
X140970000Y-38100000D03*
%TD*%
D10*
%TO.C,S39*%
X161925000Y-90805000D03*
D11*
X167005000Y-90805000D03*
D10*
X172085000Y-90805000D03*
D12*
X163195000Y-88265000D03*
X169545000Y-85725000D03*
%TD*%
D10*
%TO.C,S98*%
X409575000Y-71755000D03*
D11*
X414655000Y-71755000D03*
D10*
X419735000Y-71755000D03*
D12*
X410845000Y-69215000D03*
X417195000Y-66675000D03*
%TD*%
D10*
%TO.C,S83*%
X88423750Y-147955000D03*
D11*
X93503750Y-147955000D03*
D10*
X98583750Y-147955000D03*
D12*
X89693750Y-145415000D03*
X96043750Y-142875000D03*
%TD*%
D10*
%TO.C,S82*%
X64293750Y-147955000D03*
D11*
X69373750Y-147955000D03*
D10*
X74453750Y-147955000D03*
D12*
X65563750Y-145415000D03*
X71913750Y-142875000D03*
%TD*%
D10*
%TO.C,S41*%
X200025000Y-90805000D03*
D11*
X205105000Y-90805000D03*
D10*
X210185000Y-90805000D03*
D12*
X201295000Y-88265000D03*
X207645000Y-85725000D03*
%TD*%
D10*
%TO.C,S81*%
X40481250Y-147955000D03*
D11*
X45561250Y-147955000D03*
D10*
X50641250Y-147955000D03*
D12*
X41751250Y-145415000D03*
X48101250Y-142875000D03*
%TD*%
D10*
%TO.C,S45*%
X276225000Y-90805000D03*
D11*
X281305000Y-90805000D03*
D10*
X286385000Y-90805000D03*
D12*
X277495000Y-88265000D03*
X283845000Y-85725000D03*
%TD*%
D10*
%TO.C,S17*%
X38100000Y-71755000D03*
D11*
X43180000Y-71755000D03*
D10*
X48260000Y-71755000D03*
D12*
X39370000Y-69215000D03*
X45720000Y-66675000D03*
%TD*%
D10*
%TO.C,S37*%
X123825000Y-90805000D03*
D11*
X128905000Y-90805000D03*
D10*
X133985000Y-90805000D03*
D12*
X125095000Y-88265000D03*
X131445000Y-85725000D03*
%TD*%
D10*
%TO.C,S35*%
X85725000Y-90805000D03*
D11*
X90805000Y-90805000D03*
D10*
X95885000Y-90805000D03*
D12*
X86995000Y-88265000D03*
X93345000Y-85725000D03*
%TD*%
D16*
%TO.C,D12*%
X300355000Y-49405000D03*
X300355000Y-52705000D03*
%TD*%
D10*
%TO.C,S94*%
X447675000Y-138430000D03*
D11*
X452755000Y-138430000D03*
D10*
X457835000Y-138430000D03*
D12*
X448945000Y-135890000D03*
X455295000Y-133350000D03*
%TD*%
D10*
%TO.C,S85*%
X230981250Y-147955000D03*
D11*
X236061250Y-147955000D03*
D10*
X241141250Y-147955000D03*
D12*
X232251250Y-145415000D03*
X238601250Y-142875000D03*
%TD*%
D10*
%TO.C,S91*%
X366712500Y-147955000D03*
D11*
X371792500Y-147955000D03*
D10*
X376872500Y-147955000D03*
D12*
X367982500Y-145415000D03*
X374332500Y-142875000D03*
%TD*%
D10*
%TO.C,S77*%
X288131250Y-128905000D03*
D11*
X293211250Y-128905000D03*
D10*
X298291250Y-128905000D03*
D12*
X289401250Y-126365000D03*
X295751250Y-123825000D03*
%TD*%
D10*
%TO.C,S68*%
X100012500Y-128905000D03*
D11*
X105092500Y-128905000D03*
D10*
X110172500Y-128905000D03*
D12*
X101282500Y-126365000D03*
X107632500Y-123825000D03*
%TD*%
D10*
%TO.C,S1*%
X38100000Y-43180000D03*
D11*
X43180000Y-43180000D03*
D10*
X48260000Y-43180000D03*
D12*
X39370000Y-40640000D03*
X45720000Y-38100000D03*
%TD*%
D10*
%TO.C,S76*%
X252412500Y-128905000D03*
D11*
X257492500Y-128905000D03*
D10*
X262572500Y-128905000D03*
D12*
X253682500Y-126365000D03*
X260032500Y-123825000D03*
%TD*%
D10*
%TO.C,S34*%
X66675000Y-90805000D03*
D11*
X71755000Y-90805000D03*
D10*
X76835000Y-90805000D03*
D12*
X67945000Y-88265000D03*
X74295000Y-85725000D03*
%TD*%
D10*
%TO.C,S23*%
X152400000Y-71755000D03*
D11*
X157480000Y-71755000D03*
D10*
X162560000Y-71755000D03*
D12*
X153670000Y-69215000D03*
X160020000Y-66675000D03*
%TD*%
D10*
%TO.C,S58*%
X223837500Y-109855000D03*
D11*
X228917500Y-109855000D03*
D10*
X233997500Y-109855000D03*
D12*
X225107500Y-107315000D03*
X231457500Y-104775000D03*
%TD*%
D10*
%TO.C,S92*%
X400050000Y-147955000D03*
D11*
X405130000Y-147955000D03*
D10*
X410210000Y-147955000D03*
D12*
X401320000Y-145415000D03*
X407670000Y-142875000D03*
%TD*%
D10*
%TO.C,S24*%
X171450000Y-71755000D03*
D11*
X176530000Y-71755000D03*
D10*
X181610000Y-71755000D03*
D12*
X172720000Y-69215000D03*
X179070000Y-66675000D03*
%TD*%
D10*
%TO.C,S22*%
X133350000Y-71755000D03*
D11*
X138430000Y-71755000D03*
D10*
X143510000Y-71755000D03*
D12*
X134620000Y-69215000D03*
X140970000Y-66675000D03*
%TD*%
D10*
%TO.C,S46*%
X328612500Y-71755000D03*
D11*
X333692500Y-71755000D03*
D10*
X338772500Y-71755000D03*
D12*
X329882500Y-69215000D03*
X336232500Y-66675000D03*
%TD*%
D10*
%TO.C,S100*%
X447675000Y-71755000D03*
D11*
X452755000Y-71755000D03*
D10*
X457835000Y-71755000D03*
D12*
X448945000Y-69215000D03*
X455295000Y-66675000D03*
%TD*%
D10*
%TO.C,S15*%
X347662500Y-43180000D03*
D11*
X352742500Y-43180000D03*
D10*
X357822500Y-43180000D03*
D12*
X348932500Y-40640000D03*
X355282500Y-38100000D03*
%TD*%
D10*
%TO.C,S51*%
X90487500Y-109855000D03*
D11*
X95567500Y-109855000D03*
D10*
X100647500Y-109855000D03*
D12*
X91757500Y-107315000D03*
X98107500Y-104775000D03*
%TD*%
D10*
%TO.C,S36*%
X104775000Y-90805000D03*
D11*
X109855000Y-90805000D03*
D10*
X114935000Y-90805000D03*
D12*
X106045000Y-88265000D03*
X112395000Y-85725000D03*
%TD*%
D10*
%TO.C,S74*%
X214312500Y-128905000D03*
D11*
X219392500Y-128905000D03*
D10*
X224472500Y-128905000D03*
D12*
X215582500Y-126365000D03*
X221932500Y-123825000D03*
%TD*%
D10*
%TO.C,S25*%
X190500000Y-71755000D03*
D11*
X195580000Y-71755000D03*
D10*
X200660000Y-71755000D03*
D12*
X191770000Y-69215000D03*
X198120000Y-66675000D03*
%TD*%
D10*
%TO.C,S16*%
X366712500Y-43180000D03*
D11*
X371792500Y-43180000D03*
D10*
X376872500Y-43180000D03*
D12*
X367982500Y-40640000D03*
X374332500Y-38100000D03*
%TD*%
D10*
%TO.C,S27*%
X228600000Y-71755000D03*
D11*
X233680000Y-71755000D03*
D10*
X238760000Y-71755000D03*
D12*
X229870000Y-69215000D03*
X236220000Y-66675000D03*
%TD*%
D10*
%TO.C,S6*%
X161925000Y-43180000D03*
D11*
X167005000Y-43180000D03*
D10*
X172085000Y-43180000D03*
D12*
X163195000Y-40640000D03*
X169545000Y-38100000D03*
%TD*%
D10*
%TO.C,S40*%
X180975000Y-90805000D03*
D11*
X186055000Y-90805000D03*
D10*
X191135000Y-90805000D03*
D12*
X182245000Y-88265000D03*
X188595000Y-85725000D03*
%TD*%
D10*
%TO.C,S90*%
X347662500Y-147955000D03*
D11*
X352742500Y-147955000D03*
D10*
X357822500Y-147955000D03*
D12*
X348932500Y-145415000D03*
X355282500Y-142875000D03*
%TD*%
D10*
%TO.C,S84*%
X159543750Y-147955000D03*
D11*
X164623750Y-147955000D03*
D10*
X169703750Y-147955000D03*
D12*
X160813750Y-145415000D03*
X167163750Y-142875000D03*
%TD*%
D10*
%TO.C,S14*%
X328612500Y-43180000D03*
D11*
X333692500Y-43180000D03*
D10*
X338772500Y-43180000D03*
D12*
X329882500Y-40640000D03*
X336232500Y-38100000D03*
%TD*%
D10*
%TO.C,S66*%
X61912500Y-128905000D03*
D11*
X66992500Y-128905000D03*
D10*
X72072500Y-128905000D03*
D12*
X63182500Y-126365000D03*
X69532500Y-123825000D03*
%TD*%
D10*
%TO.C,S72*%
X176212500Y-128905000D03*
D11*
X181292500Y-128905000D03*
D10*
X186372500Y-128905000D03*
D12*
X177482500Y-126365000D03*
X183832500Y-123825000D03*
%TD*%
D10*
%TO.C,S43*%
X238125000Y-90805000D03*
D11*
X243205000Y-90805000D03*
D10*
X248285000Y-90805000D03*
D12*
X239395000Y-88265000D03*
X245745000Y-85725000D03*
%TD*%
D10*
%TO.C,S86*%
X254793750Y-147955000D03*
D11*
X259873750Y-147955000D03*
D10*
X264953750Y-147955000D03*
D12*
X256063750Y-145415000D03*
X262413750Y-142875000D03*
%TD*%
D10*
%TO.C,S42*%
X219075000Y-90805000D03*
D11*
X224155000Y-90805000D03*
D10*
X229235000Y-90805000D03*
D12*
X220345000Y-88265000D03*
X226695000Y-85725000D03*
%TD*%
D10*
%TO.C,S55*%
X166687500Y-109855000D03*
D11*
X171767500Y-109855000D03*
D10*
X176847500Y-109855000D03*
D12*
X167957500Y-107315000D03*
X174307500Y-104775000D03*
%TD*%
D10*
%TO.C,S9*%
X219075000Y-43180000D03*
D11*
X224155000Y-43180000D03*
D10*
X229235000Y-43180000D03*
D12*
X220345000Y-40640000D03*
X226695000Y-38100000D03*
%TD*%
D10*
%TO.C,S67*%
X80962500Y-128905000D03*
D11*
X86042500Y-128905000D03*
D10*
X91122500Y-128905000D03*
D12*
X82232500Y-126365000D03*
X88582500Y-123825000D03*
%TD*%
D10*
%TO.C,S44*%
X257175000Y-90805000D03*
D11*
X262255000Y-90805000D03*
D10*
X267335000Y-90805000D03*
D12*
X258445000Y-88265000D03*
X264795000Y-85725000D03*
%TD*%
D10*
%TO.C,S93*%
X428625000Y-147955000D03*
D11*
X433705000Y-147955000D03*
D10*
X438785000Y-147955000D03*
D12*
X429895000Y-145415000D03*
X436245000Y-142875000D03*
%TD*%
D10*
%TO.C,S10*%
X247650000Y-43180000D03*
D11*
X252730000Y-43180000D03*
D10*
X257810000Y-43180000D03*
D12*
X248920000Y-40640000D03*
X255270000Y-38100000D03*
%TD*%
D10*
%TO.C,S57*%
X204787500Y-109855000D03*
D11*
X209867500Y-109855000D03*
D10*
X214947500Y-109855000D03*
D12*
X206057500Y-107315000D03*
X212407500Y-104775000D03*
%TD*%
D10*
%TO.C,S49*%
X47625000Y-109855000D03*
D11*
X52705000Y-109855000D03*
D10*
X57785000Y-109855000D03*
D12*
X48895000Y-107315000D03*
X55245000Y-104775000D03*
%TD*%
D10*
%TO.C,S7*%
X180975000Y-43180000D03*
D11*
X186055000Y-43180000D03*
D10*
X191135000Y-43180000D03*
D12*
X182245000Y-40640000D03*
X188595000Y-38100000D03*
%TD*%
D10*
%TO.C,S33*%
X42862500Y-90805000D03*
D11*
X47942500Y-90805000D03*
D10*
X53022500Y-90805000D03*
D12*
X44132500Y-88265000D03*
X50482500Y-85725000D03*
%TD*%
%TO.C,S12*%
X293370000Y-38100000D03*
X287020000Y-40640000D03*
D10*
X295910000Y-43180000D03*
D11*
X290830000Y-43180000D03*
D10*
X285750000Y-43180000D03*
%TD*%
%TO.C,S89*%
X328612500Y-147955000D03*
D11*
X333692500Y-147955000D03*
D10*
X338772500Y-147955000D03*
D12*
X329882500Y-145415000D03*
X336232500Y-142875000D03*
%TD*%
D10*
%TO.C,S69*%
X119062500Y-128905000D03*
D11*
X124142500Y-128905000D03*
D10*
X129222500Y-128905000D03*
D12*
X120332500Y-126365000D03*
X126682500Y-123825000D03*
%TD*%
D10*
%TO.C,S29*%
X266700000Y-71755000D03*
D11*
X271780000Y-71755000D03*
D10*
X276860000Y-71755000D03*
D12*
X267970000Y-69215000D03*
X274320000Y-66675000D03*
%TD*%
D16*
%TO.C,D67*%
X95567500Y-138430000D03*
X95567500Y-135130000D03*
%TD*%
%TO.C,D73*%
X209867500Y-138430000D03*
X209867500Y-135130000D03*
%TD*%
%TO.C,D69*%
X133667500Y-138430000D03*
X133667500Y-135130000D03*
%TD*%
%TO.C,D46*%
X343217500Y-81280000D03*
X343217500Y-77980000D03*
%TD*%
%TO.C,D22*%
X147955000Y-81280000D03*
X147955000Y-77980000D03*
%TD*%
%TO.C,D61*%
X317023750Y-109855000D03*
X317023750Y-106555000D03*
%TD*%
%TO.C,D60*%
X276542500Y-119380000D03*
X276542500Y-116080000D03*
%TD*%
%TO.C,D43*%
X252730000Y-100330000D03*
X252730000Y-97030000D03*
%TD*%
%TO.C,D81*%
X55086250Y-157480000D03*
X55086250Y-154180000D03*
%TD*%
%TO.C,D28*%
X262255000Y-81280000D03*
X262255000Y-77980000D03*
%TD*%
%TO.C,D25*%
X205105000Y-81280000D03*
X205105000Y-77980000D03*
%TD*%
%TO.C,D47*%
X362267500Y-81280000D03*
X362267500Y-77980000D03*
%TD*%
%TO.C,D30*%
X317023750Y-81280000D03*
X317023750Y-77980000D03*
%TD*%
%TO.C,D26*%
X224155000Y-81280000D03*
X224155000Y-77980000D03*
%TD*%
%TO.C,D10*%
X262255000Y-52705000D03*
X262255000Y-49405000D03*
%TD*%
%TO.C,D74*%
X228917500Y-138430000D03*
X228917500Y-135130000D03*
%TD*%
%TO.C,D14*%
X343217500Y-52705000D03*
X343217500Y-49405000D03*
%TD*%
%TO.C,D99*%
X443230000Y-77980000D03*
X443230000Y-81280000D03*
%TD*%
%TO.C,D35*%
X100330000Y-100330000D03*
X100330000Y-97030000D03*
%TD*%
%TO.C,D56*%
X200342500Y-119380000D03*
X200342500Y-116080000D03*
%TD*%
%TO.C,D27*%
X243205000Y-81280000D03*
X243205000Y-77980000D03*
%TD*%
%TO.C,D9*%
X233680000Y-52705000D03*
X233680000Y-49405000D03*
%TD*%
%TO.C,D86*%
X269398750Y-154180000D03*
X269398750Y-157480000D03*
%TD*%
%TO.C,D11*%
X281305000Y-52705000D03*
X281305000Y-49405000D03*
%TD*%
%TO.C,D33*%
X57467500Y-100330000D03*
X57467500Y-97030000D03*
%TD*%
%TO.C,D78*%
X362155000Y-134155000D03*
X362155000Y-137455000D03*
%TD*%
%TO.C,D45*%
X290830000Y-100330000D03*
X290830000Y-97030000D03*
%TD*%
%TO.C,D92*%
X421798750Y-157480000D03*
X421798750Y-154180000D03*
%TD*%
%TO.C,D66*%
X76517500Y-138430000D03*
X76517500Y-135130000D03*
%TD*%
%TO.C,D51*%
X105092500Y-119380000D03*
X105092500Y-116080000D03*
%TD*%
%TO.C,D53*%
X143192500Y-119380000D03*
X143192500Y-116080000D03*
%TD*%
%TO.C,D63*%
X362267500Y-100330000D03*
X362267500Y-97030000D03*
%TD*%
%TO.C,D91*%
X381317500Y-157480000D03*
X381317500Y-154180000D03*
%TD*%
%TO.C,D52*%
X124142500Y-119380000D03*
X124142500Y-116080000D03*
%TD*%
%TO.C,D19*%
X90805000Y-81280000D03*
X90805000Y-77980000D03*
%TD*%
%TO.C,D94*%
X462280000Y-147955000D03*
X462280000Y-144655000D03*
%TD*%
%TO.C,D75*%
X247967500Y-138430000D03*
X247967500Y-135130000D03*
%TD*%
%TO.C,D90*%
X362267500Y-157480000D03*
X362267500Y-154180000D03*
%TD*%
%TO.C,D39*%
X176530000Y-100330000D03*
X176530000Y-97030000D03*
%TD*%
%TO.C,D59*%
X257492500Y-119380000D03*
X257492500Y-116080000D03*
%TD*%
%TO.C,D83*%
X102711250Y-157480000D03*
X102711250Y-154180000D03*
%TD*%
%TO.C,D89*%
X343217500Y-154180000D03*
X343217500Y-157480000D03*
%TD*%
%TO.C,D18*%
X71755000Y-81280000D03*
X71755000Y-77980000D03*
%TD*%
%TO.C,D55*%
X181292500Y-119380000D03*
X181292500Y-116080000D03*
%TD*%
%TO.C,D54*%
X162242500Y-119380000D03*
X162242500Y-116080000D03*
%TD*%
%TO.C,D24*%
X186055000Y-81280000D03*
X186055000Y-77980000D03*
%TD*%
%TO.C,D93*%
X443230000Y-157480000D03*
X443230000Y-154180000D03*
%TD*%
%TO.C,D34*%
X81280000Y-100330000D03*
X81280000Y-97030000D03*
%TD*%
%TO.C,D40*%
X195580000Y-100330000D03*
X195580000Y-97030000D03*
%TD*%
%TO.C,D49*%
X62230000Y-119380000D03*
X62230000Y-116080000D03*
%TD*%
%TO.C,D68*%
X114617500Y-138430000D03*
X114617500Y-135130000D03*
%TD*%
%TO.C,D16*%
X381317500Y-52705000D03*
X381317500Y-49405000D03*
%TD*%
%TO.C,D41*%
X214630000Y-100330000D03*
X214630000Y-97030000D03*
%TD*%
%TO.C,D8*%
X214630000Y-52705000D03*
X214630000Y-49405000D03*
%TD*%
%TO.C,D87*%
X293211250Y-154180000D03*
X293211250Y-157480000D03*
%TD*%
%TO.C,D84*%
X174148750Y-157480000D03*
X174148750Y-154180000D03*
%TD*%
%TO.C,D50*%
X86042500Y-119380000D03*
X86042500Y-116080000D03*
%TD*%
%TO.C,D71*%
X171767500Y-138430000D03*
X171767500Y-135130000D03*
%TD*%
%TO.C,D17*%
X52705000Y-81280000D03*
X52705000Y-77980000D03*
%TD*%
%TO.C,D1*%
X52705000Y-52705000D03*
X52705000Y-49405000D03*
%TD*%
%TO.C,D88*%
X317023750Y-157480000D03*
X317023750Y-154180000D03*
%TD*%
%TO.C,D100*%
X462280000Y-77980000D03*
X462280000Y-81280000D03*
%TD*%
%TO.C,D58*%
X238442500Y-119380000D03*
X238442500Y-116080000D03*
%TD*%
%TO.C,D20*%
X109855000Y-81280000D03*
X109855000Y-77980000D03*
%TD*%
%TO.C,D36*%
X119380000Y-100330000D03*
X119380000Y-97030000D03*
%TD*%
%TO.C,D97*%
X405130000Y-77980000D03*
X405130000Y-81280000D03*
%TD*%
%TO.C,D7*%
X195580000Y-52705000D03*
X195580000Y-49405000D03*
%TD*%
%TO.C,D85*%
X245586250Y-154180000D03*
X245586250Y-157480000D03*
%TD*%
%TO.C,D3*%
X109855000Y-52705000D03*
X109855000Y-49405000D03*
%TD*%
%TO.C,D42*%
X233680000Y-100330000D03*
X233680000Y-97030000D03*
%TD*%
%TO.C,D98*%
X424180000Y-77980000D03*
X424180000Y-81280000D03*
%TD*%
%TO.C,D82*%
X78898750Y-157480000D03*
X78898750Y-154180000D03*
%TD*%
%TO.C,D62*%
X343217500Y-100330000D03*
X343217500Y-97030000D03*
%TD*%
%TO.C,D23*%
X167005000Y-81280000D03*
X167005000Y-77980000D03*
%TD*%
%TO.C,D57*%
X219392500Y-119380000D03*
X219392500Y-116080000D03*
%TD*%
%TO.C,D21*%
X128905000Y-81280000D03*
X128905000Y-77980000D03*
%TD*%
%TO.C,D65*%
X57467500Y-138430000D03*
X57467500Y-135130000D03*
%TD*%
%TO.C,D72*%
X190817500Y-138430000D03*
X190817500Y-135130000D03*
%TD*%
%TO.C,D37*%
X138430000Y-100330000D03*
X138430000Y-97030000D03*
%TD*%
%TO.C,D44*%
X271780000Y-100330000D03*
X271780000Y-97030000D03*
%TD*%
%TO.C,D38*%
X157480000Y-100330000D03*
X157480000Y-97030000D03*
%TD*%
%TO.C,D48*%
X381317500Y-81280000D03*
X381317500Y-77980000D03*
%TD*%
%TO.C,D15*%
X362267500Y-52705000D03*
X362267500Y-49405000D03*
%TD*%
%TO.C,D29*%
X281305000Y-81280000D03*
X281305000Y-77980000D03*
%TD*%
%TO.C,D6*%
X176530000Y-52705000D03*
X176530000Y-49405000D03*
%TD*%
%TO.C,D4*%
X128905000Y-52705000D03*
X128905000Y-49405000D03*
%TD*%
%TO.C,D76*%
X267017500Y-138430000D03*
X267017500Y-135130000D03*
%TD*%
%TO.C,D64*%
X381317500Y-100330000D03*
X381317500Y-97030000D03*
%TD*%
%TO.C,D2*%
X90805000Y-52705000D03*
X90805000Y-49405000D03*
%TD*%
%TO.C,D5*%
X147955000Y-52705000D03*
X147955000Y-49405000D03*
%TD*%
%TO.C,D77*%
X309880000Y-138430000D03*
X309880000Y-135130000D03*
%TD*%
%TO.C,D70*%
X152717500Y-138430000D03*
X152717500Y-135130000D03*
%TD*%
M02*
