%TF.GenerationSoftware,KiCad,Pcbnew,7.0.10*%
%TF.CreationDate,2024-04-02T12:10:37+02:00*%
%TF.ProjectId,k3yb.it,6b337962-2e69-4742-9e6b-696361645f70,v1.0b*%
%TF.SameCoordinates,Original*%
%TF.FileFunction,Soldermask,Top*%
%TF.FilePolarity,Negative*%
%FSLAX46Y46*%
G04 Gerber Fmt 4.6, Leading zero omitted, Abs format (unit mm)*
G04 Created by KiCad (PCBNEW 7.0.10) date 2024-04-02 12:10:37*
%MOMM*%
%LPD*%
G01*
G04 APERTURE LIST*
%ADD10C,3.600000*%
%ADD11C,1.750000*%
%ADD12C,4.000000*%
%ADD13C,1.400000*%
%ADD14O,1.400000X1.400000*%
%ADD15R,1.800000X1.800000*%
%ADD16C,1.800000*%
%ADD17C,3.200000*%
%ADD18C,1.752600*%
%ADD19R,1.752600X1.752600*%
G04 APERTURE END LIST*
D10*
%TO.C,S50*%
X79057500Y-104775000D03*
X72707500Y-107315000D03*
D11*
X81597500Y-109855000D03*
D12*
X76517500Y-109855000D03*
D11*
X71437500Y-109855000D03*
%TD*%
%TO.C,S11*%
X266700000Y-43180000D03*
D12*
X271780000Y-43180000D03*
D11*
X276860000Y-43180000D03*
D10*
X267970000Y-40640000D03*
X274320000Y-38100000D03*
%TD*%
D13*
%TO.C,R3*%
X445465000Y-52655000D03*
D14*
X437845000Y-52655000D03*
%TD*%
D11*
%TO.C,S18*%
X57150000Y-71755000D03*
D12*
X62230000Y-71755000D03*
D11*
X67310000Y-71755000D03*
D10*
X58420000Y-69215000D03*
X64770000Y-66675000D03*
%TD*%
D11*
%TO.C,S78*%
X347662500Y-128905000D03*
D12*
X352742500Y-128905000D03*
D11*
X357822500Y-128905000D03*
D10*
X348932500Y-126365000D03*
X355282500Y-123825000D03*
%TD*%
D11*
%TO.C,S48*%
X366712500Y-71755000D03*
D12*
X371792500Y-71755000D03*
D11*
X376872500Y-71755000D03*
D10*
X367982500Y-69215000D03*
X374332500Y-66675000D03*
%TD*%
D11*
%TO.C,S8*%
X200025000Y-43180000D03*
D12*
X205105000Y-43180000D03*
D11*
X210185000Y-43180000D03*
D10*
X201295000Y-40640000D03*
X207645000Y-38100000D03*
%TD*%
D11*
%TO.C,S60*%
X261937500Y-109855000D03*
D12*
X267017500Y-109855000D03*
D11*
X272097500Y-109855000D03*
D10*
X263207500Y-107315000D03*
X269557500Y-104775000D03*
%TD*%
D11*
%TO.C,S56*%
X185737500Y-109855000D03*
D12*
X190817500Y-109855000D03*
D11*
X195897500Y-109855000D03*
D10*
X187007500Y-107315000D03*
X193357500Y-104775000D03*
%TD*%
D11*
%TO.C,S88*%
X302101250Y-147955000D03*
D12*
X307181250Y-147955000D03*
D11*
X312261250Y-147955000D03*
D10*
X303371250Y-145415000D03*
X309721250Y-142875000D03*
%TD*%
D11*
%TO.C,S3*%
X95250000Y-43180000D03*
D12*
X100330000Y-43180000D03*
D11*
X105410000Y-43180000D03*
D10*
X96520000Y-40640000D03*
X102870000Y-38100000D03*
%TD*%
D11*
%TO.C,S52*%
X109537500Y-109855000D03*
D12*
X114617500Y-109855000D03*
D11*
X119697500Y-109855000D03*
D10*
X110807500Y-107315000D03*
X117157500Y-104775000D03*
%TD*%
D11*
%TO.C,S59*%
X242887500Y-109855000D03*
D12*
X247967500Y-109855000D03*
D11*
X253047500Y-109855000D03*
D10*
X244157500Y-107315000D03*
X250507500Y-104775000D03*
%TD*%
D11*
%TO.C,S63*%
X347662500Y-90805000D03*
D12*
X352742500Y-90805000D03*
D11*
X357822500Y-90805000D03*
D10*
X348932500Y-88265000D03*
X355282500Y-85725000D03*
%TD*%
D11*
%TO.C,S20*%
X95250000Y-71755000D03*
D12*
X100330000Y-71755000D03*
D11*
X105410000Y-71755000D03*
D10*
X96520000Y-69215000D03*
X102870000Y-66675000D03*
%TD*%
D11*
%TO.C,S38*%
X142875000Y-90805000D03*
D12*
X147955000Y-90805000D03*
D11*
X153035000Y-90805000D03*
D10*
X144145000Y-88265000D03*
X150495000Y-85725000D03*
%TD*%
D11*
%TO.C,S61*%
X302418750Y-100330000D03*
D12*
X307498750Y-100330000D03*
D11*
X312578750Y-100330000D03*
D10*
X303688750Y-97790000D03*
X310038750Y-95250000D03*
%TD*%
D11*
%TO.C,S97*%
X390525000Y-71755000D03*
D12*
X395605000Y-71755000D03*
D11*
X400685000Y-71755000D03*
D10*
X391795000Y-69215000D03*
X398145000Y-66675000D03*
%TD*%
D11*
%TO.C,S31*%
X280987500Y-110013750D03*
D12*
X286067500Y-110013750D03*
D11*
X291147500Y-110013750D03*
D10*
X282257500Y-107473750D03*
X288607500Y-104933750D03*
%TD*%
D11*
%TO.C,S13*%
X304800000Y-43180000D03*
D12*
X309880000Y-43180000D03*
D11*
X314960000Y-43180000D03*
D10*
X306070000Y-40640000D03*
X312420000Y-38100000D03*
%TD*%
D11*
%TO.C,S54*%
X147637500Y-109855000D03*
D12*
X152717500Y-109855000D03*
D11*
X157797500Y-109855000D03*
D10*
X148907500Y-107315000D03*
X155257500Y-104775000D03*
%TD*%
D15*
%TO.C,D80*%
X443611000Y-31358000D03*
D16*
X443611000Y-33898000D03*
%TD*%
D11*
%TO.C,S30*%
X295275000Y-71755000D03*
D12*
X300355000Y-71755000D03*
D11*
X305435000Y-71755000D03*
D10*
X296545000Y-69215000D03*
X302895000Y-66675000D03*
%TD*%
D11*
%TO.C,S21*%
X114300000Y-71755000D03*
D12*
X119380000Y-71755000D03*
D11*
X124460000Y-71755000D03*
D10*
X115570000Y-69215000D03*
X121920000Y-66675000D03*
%TD*%
D11*
%TO.C,S26*%
X209550000Y-71755000D03*
D12*
X214630000Y-71755000D03*
D11*
X219710000Y-71755000D03*
D10*
X210820000Y-69215000D03*
X217170000Y-66675000D03*
%TD*%
D11*
%TO.C,S73*%
X195262500Y-128905000D03*
D12*
X200342500Y-128905000D03*
D11*
X205422500Y-128905000D03*
D10*
X196532500Y-126365000D03*
X202882500Y-123825000D03*
%TD*%
D11*
%TO.C,S87*%
X278606250Y-147955000D03*
D12*
X283686250Y-147955000D03*
D11*
X288766250Y-147955000D03*
D10*
X279876250Y-145415000D03*
X286226250Y-142875000D03*
%TD*%
D11*
%TO.C,S53*%
X128587500Y-109855000D03*
D12*
X133667500Y-109855000D03*
D11*
X138747500Y-109855000D03*
D10*
X129857500Y-107315000D03*
X136207500Y-104775000D03*
%TD*%
D11*
%TO.C,S47*%
X347662500Y-71755000D03*
D12*
X352742500Y-71755000D03*
D11*
X357822500Y-71755000D03*
D10*
X348932500Y-69215000D03*
X355282500Y-66675000D03*
%TD*%
D17*
%TO.C,M3*%
X173515900Y-166465966D03*
%TD*%
D11*
%TO.C,S4*%
X114300000Y-43180000D03*
D12*
X119380000Y-43180000D03*
D11*
X124460000Y-43180000D03*
D10*
X115570000Y-40640000D03*
X121920000Y-38100000D03*
%TD*%
D11*
%TO.C,S2*%
X76200000Y-43180000D03*
D12*
X81280000Y-43180000D03*
D11*
X86360000Y-43180000D03*
D10*
X77470000Y-40640000D03*
X83820000Y-38100000D03*
%TD*%
D11*
%TO.C,S101*%
X390525000Y-90805000D03*
D12*
X395605000Y-90805000D03*
D11*
X400685000Y-90805000D03*
D10*
X391795000Y-88265000D03*
X398145000Y-85725000D03*
%TD*%
D11*
%TO.C,S62*%
X328612500Y-90805000D03*
D12*
X333692500Y-90805000D03*
D11*
X338772500Y-90805000D03*
D10*
X329882500Y-88265000D03*
X336232500Y-85725000D03*
%TD*%
D11*
%TO.C,S65*%
X42862500Y-128905000D03*
D12*
X47942500Y-128905000D03*
D11*
X53022500Y-128905000D03*
D10*
X44132500Y-126365000D03*
X50482500Y-123825000D03*
%TD*%
D11*
%TO.C,S64*%
X366712500Y-90805000D03*
D12*
X371792500Y-90805000D03*
D11*
X376872500Y-90805000D03*
D10*
X367982500Y-88265000D03*
X374332500Y-85725000D03*
%TD*%
D11*
%TO.C,S71*%
X157162500Y-128905000D03*
D12*
X162242500Y-128905000D03*
D11*
X167322500Y-128905000D03*
D10*
X158432500Y-126365000D03*
X164782500Y-123825000D03*
%TD*%
D11*
%TO.C,S105*%
X390525000Y-109855000D03*
D12*
X395605000Y-109855000D03*
D11*
X400685000Y-109855000D03*
D10*
X391795000Y-107315000D03*
X398145000Y-104775000D03*
%TD*%
D11*
%TO.C,S99*%
X428625000Y-71755000D03*
D12*
X433705000Y-71755000D03*
D11*
X438785000Y-71755000D03*
D10*
X429895000Y-69215000D03*
X436245000Y-66675000D03*
%TD*%
D11*
%TO.C,S102*%
X409575000Y-90805000D03*
D12*
X414655000Y-90805000D03*
D11*
X419735000Y-90805000D03*
D10*
X410845000Y-88265000D03*
X417195000Y-85725000D03*
%TD*%
D11*
%TO.C,S19*%
X76200000Y-71755000D03*
D12*
X81280000Y-71755000D03*
D11*
X86360000Y-71755000D03*
D10*
X77470000Y-69215000D03*
X83820000Y-66675000D03*
%TD*%
D11*
%TO.C,S70*%
X138112500Y-128905000D03*
D12*
X143192500Y-128905000D03*
D11*
X148272500Y-128905000D03*
D10*
X139382500Y-126365000D03*
X145732500Y-123825000D03*
%TD*%
D11*
%TO.C,S5*%
X133350000Y-43180000D03*
D12*
X138430000Y-43180000D03*
D11*
X143510000Y-43180000D03*
D10*
X134620000Y-40640000D03*
X140970000Y-38100000D03*
%TD*%
D17*
%TO.C,M3*%
X471270611Y-166477368D03*
%TD*%
D11*
%TO.C,S28*%
X247650000Y-71755000D03*
D12*
X252730000Y-71755000D03*
D11*
X257810000Y-71755000D03*
D10*
X248920000Y-69215000D03*
X255270000Y-66675000D03*
%TD*%
D11*
%TO.C,S39*%
X161925000Y-90805000D03*
D12*
X167005000Y-90805000D03*
D11*
X172085000Y-90805000D03*
D10*
X163195000Y-88265000D03*
X169545000Y-85725000D03*
%TD*%
D11*
%TO.C,S98*%
X409575000Y-71755000D03*
D12*
X414655000Y-71755000D03*
D11*
X419735000Y-71755000D03*
D10*
X410845000Y-69215000D03*
X417195000Y-66675000D03*
%TD*%
D11*
%TO.C,S83*%
X88423750Y-147955000D03*
D12*
X93503750Y-147955000D03*
D11*
X98583750Y-147955000D03*
D10*
X89693750Y-145415000D03*
X96043750Y-142875000D03*
%TD*%
D11*
%TO.C,S82*%
X64293750Y-147955000D03*
D12*
X69373750Y-147955000D03*
D11*
X74453750Y-147955000D03*
D10*
X65563750Y-145415000D03*
X71913750Y-142875000D03*
%TD*%
D11*
%TO.C,S41*%
X200025000Y-90805000D03*
D12*
X205105000Y-90805000D03*
D11*
X210185000Y-90805000D03*
D10*
X201295000Y-88265000D03*
X207645000Y-85725000D03*
%TD*%
D11*
%TO.C,S81*%
X40481250Y-147955000D03*
D12*
X45561250Y-147955000D03*
D11*
X50641250Y-147955000D03*
D10*
X41751250Y-145415000D03*
X48101250Y-142875000D03*
%TD*%
D17*
%TO.C,M3*%
X322380592Y-166477368D03*
%TD*%
D11*
%TO.C,S45*%
X276225000Y-90805000D03*
D12*
X281305000Y-90805000D03*
D11*
X286385000Y-90805000D03*
D10*
X277495000Y-88265000D03*
X283845000Y-85725000D03*
%TD*%
D17*
%TO.C,M3*%
X173500675Y-24646572D03*
%TD*%
D11*
%TO.C,S17*%
X38100000Y-71755000D03*
D12*
X43180000Y-71755000D03*
D11*
X48260000Y-71755000D03*
D10*
X39370000Y-69215000D03*
X45720000Y-66675000D03*
%TD*%
D17*
%TO.C,M3*%
X322388177Y-24654157D03*
%TD*%
D11*
%TO.C,S37*%
X123825000Y-90805000D03*
D12*
X128905000Y-90805000D03*
D11*
X133985000Y-90805000D03*
D10*
X125095000Y-88265000D03*
X131445000Y-85725000D03*
%TD*%
D11*
%TO.C,S35*%
X85725000Y-90805000D03*
D12*
X90805000Y-90805000D03*
D11*
X95885000Y-90805000D03*
D10*
X86995000Y-88265000D03*
X93345000Y-85725000D03*
%TD*%
D11*
%TO.C,S75*%
X233362500Y-128905000D03*
D12*
X238442500Y-128905000D03*
D11*
X243522500Y-128905000D03*
D10*
X234632500Y-126365000D03*
X240982500Y-123825000D03*
%TD*%
D11*
%TO.C,S94*%
X447675000Y-138430000D03*
D12*
X452755000Y-138430000D03*
D11*
X457835000Y-138430000D03*
D10*
X448945000Y-135890000D03*
X455295000Y-133350000D03*
%TD*%
D11*
%TO.C,S85*%
X230981250Y-147955000D03*
D12*
X236061250Y-147955000D03*
D11*
X241141250Y-147955000D03*
D10*
X232251250Y-145415000D03*
X238601250Y-142875000D03*
%TD*%
D11*
%TO.C,S91*%
X366712500Y-147955000D03*
D12*
X371792500Y-147955000D03*
D11*
X376872500Y-147955000D03*
D10*
X367982500Y-145415000D03*
X374332500Y-142875000D03*
%TD*%
D11*
%TO.C,S77*%
X288131250Y-128905000D03*
D12*
X293211250Y-128905000D03*
D11*
X298291250Y-128905000D03*
D10*
X289401250Y-126365000D03*
X295751250Y-123825000D03*
%TD*%
D11*
%TO.C,S68*%
X100012500Y-128905000D03*
D12*
X105092500Y-128905000D03*
D11*
X110172500Y-128905000D03*
D10*
X101282500Y-126365000D03*
X107632500Y-123825000D03*
%TD*%
D11*
%TO.C,S1*%
X38100000Y-43180000D03*
D12*
X43180000Y-43180000D03*
D11*
X48260000Y-43180000D03*
D10*
X39370000Y-40640000D03*
X45720000Y-38100000D03*
%TD*%
D11*
%TO.C,S76*%
X252412500Y-128905000D03*
D12*
X257492500Y-128905000D03*
D11*
X262572500Y-128905000D03*
D10*
X253682500Y-126365000D03*
X260032500Y-123825000D03*
%TD*%
D11*
%TO.C,S34*%
X66675000Y-90805000D03*
D12*
X71755000Y-90805000D03*
D11*
X76835000Y-90805000D03*
D10*
X67945000Y-88265000D03*
X74295000Y-85725000D03*
%TD*%
D11*
%TO.C,S23*%
X152400000Y-71755000D03*
D12*
X157480000Y-71755000D03*
D11*
X162560000Y-71755000D03*
D10*
X153670000Y-69215000D03*
X160020000Y-66675000D03*
%TD*%
D13*
%TO.C,R4*%
X445465000Y-48655000D03*
D14*
X437845000Y-48655000D03*
%TD*%
D11*
%TO.C,S58*%
X223837500Y-109855000D03*
D12*
X228917500Y-109855000D03*
D11*
X233997500Y-109855000D03*
D10*
X225107500Y-107315000D03*
X231457500Y-104775000D03*
%TD*%
D11*
%TO.C,S92*%
X400050000Y-147955000D03*
D12*
X405130000Y-147955000D03*
D11*
X410210000Y-147955000D03*
D10*
X401320000Y-145415000D03*
X407670000Y-142875000D03*
%TD*%
D11*
%TO.C,S110*%
X428625000Y-128905000D03*
D12*
X433705000Y-128905000D03*
D11*
X438785000Y-128905000D03*
D10*
X429895000Y-126365000D03*
X436245000Y-123825000D03*
%TD*%
D11*
%TO.C,S24*%
X171450000Y-71755000D03*
D12*
X176530000Y-71755000D03*
D11*
X181610000Y-71755000D03*
D10*
X172720000Y-69215000D03*
X179070000Y-66675000D03*
%TD*%
D11*
%TO.C,S22*%
X133350000Y-71755000D03*
D12*
X138430000Y-71755000D03*
D11*
X143510000Y-71755000D03*
D10*
X134620000Y-69215000D03*
X140970000Y-66675000D03*
%TD*%
D11*
%TO.C,S46*%
X328612500Y-71755000D03*
D12*
X333692500Y-71755000D03*
D11*
X338772500Y-71755000D03*
D10*
X329882500Y-69215000D03*
X336232500Y-66675000D03*
%TD*%
D11*
%TO.C,S100*%
X447675000Y-71755000D03*
D12*
X452755000Y-71755000D03*
D11*
X457835000Y-71755000D03*
D10*
X448945000Y-69215000D03*
X455295000Y-66675000D03*
%TD*%
D11*
%TO.C,S109*%
X409575000Y-128905000D03*
D12*
X414655000Y-128905000D03*
D11*
X419735000Y-128905000D03*
D10*
X410845000Y-126365000D03*
X417195000Y-123825000D03*
%TD*%
D11*
%TO.C,S15*%
X347662500Y-43180000D03*
D12*
X352742500Y-43180000D03*
D11*
X357822500Y-43180000D03*
D10*
X348932500Y-40640000D03*
X355282500Y-38100000D03*
%TD*%
D11*
%TO.C,S51*%
X90487500Y-109855000D03*
D12*
X95567500Y-109855000D03*
D11*
X100647500Y-109855000D03*
D10*
X91757500Y-107315000D03*
X98107500Y-104775000D03*
%TD*%
D11*
%TO.C,S36*%
X104775000Y-90805000D03*
D12*
X109855000Y-90805000D03*
D11*
X114935000Y-90805000D03*
D10*
X106045000Y-88265000D03*
X112395000Y-85725000D03*
%TD*%
D11*
%TO.C,S74*%
X214312500Y-128905000D03*
D12*
X219392500Y-128905000D03*
D11*
X224472500Y-128905000D03*
D10*
X215582500Y-126365000D03*
X221932500Y-123825000D03*
%TD*%
D11*
%TO.C,S25*%
X190500000Y-71755000D03*
D12*
X195580000Y-71755000D03*
D11*
X200660000Y-71755000D03*
D10*
X191770000Y-69215000D03*
X198120000Y-66675000D03*
%TD*%
D11*
%TO.C,S16*%
X366712500Y-43180000D03*
D12*
X371792500Y-43180000D03*
D11*
X376872500Y-43180000D03*
D10*
X367982500Y-40640000D03*
X374332500Y-38100000D03*
%TD*%
D11*
%TO.C,S27*%
X228600000Y-71755000D03*
D12*
X233680000Y-71755000D03*
D11*
X238760000Y-71755000D03*
D10*
X229870000Y-69215000D03*
X236220000Y-66675000D03*
%TD*%
D11*
%TO.C,S6*%
X161925000Y-43180000D03*
D12*
X167005000Y-43180000D03*
D11*
X172085000Y-43180000D03*
D10*
X163195000Y-40640000D03*
X169545000Y-38100000D03*
%TD*%
D11*
%TO.C,S40*%
X180975000Y-90805000D03*
D12*
X186055000Y-90805000D03*
D11*
X191135000Y-90805000D03*
D10*
X182245000Y-88265000D03*
X188595000Y-85725000D03*
%TD*%
D11*
%TO.C,S90*%
X347662500Y-147955000D03*
D12*
X352742500Y-147955000D03*
D11*
X357822500Y-147955000D03*
D10*
X348932500Y-145415000D03*
X355282500Y-142875000D03*
%TD*%
D11*
%TO.C,S84*%
X159543750Y-147955000D03*
D12*
X164623750Y-147955000D03*
D11*
X169703750Y-147955000D03*
D10*
X160813750Y-145415000D03*
X167163750Y-142875000D03*
%TD*%
D17*
%TO.C,M3*%
X24625013Y-24625013D03*
%TD*%
D11*
%TO.C,S14*%
X328612500Y-43180000D03*
D12*
X333692500Y-43180000D03*
D11*
X338772500Y-43180000D03*
D10*
X329882500Y-40640000D03*
X336232500Y-38100000D03*
%TD*%
D11*
%TO.C,S66*%
X61912500Y-128905000D03*
D12*
X66992500Y-128905000D03*
D11*
X72072500Y-128905000D03*
D10*
X63182500Y-126365000D03*
X69532500Y-123825000D03*
%TD*%
D11*
%TO.C,S72*%
X176212500Y-128905000D03*
D12*
X181292500Y-128905000D03*
D11*
X186372500Y-128905000D03*
D10*
X177482500Y-126365000D03*
X183832500Y-123825000D03*
%TD*%
D11*
%TO.C,S43*%
X238125000Y-90805000D03*
D12*
X243205000Y-90805000D03*
D11*
X248285000Y-90805000D03*
D10*
X239395000Y-88265000D03*
X245745000Y-85725000D03*
%TD*%
D11*
%TO.C,S107*%
X428625000Y-109855000D03*
D12*
X433705000Y-109855000D03*
D11*
X438785000Y-109855000D03*
D10*
X429895000Y-107315000D03*
X436245000Y-104775000D03*
%TD*%
D11*
%TO.C,S86*%
X254793750Y-147955000D03*
D12*
X259873750Y-147955000D03*
D11*
X264953750Y-147955000D03*
D10*
X256063750Y-145415000D03*
X262413750Y-142875000D03*
%TD*%
D11*
%TO.C,S42*%
X219075000Y-90805000D03*
D12*
X224155000Y-90805000D03*
D11*
X229235000Y-90805000D03*
D10*
X220345000Y-88265000D03*
X226695000Y-85725000D03*
%TD*%
D15*
%TO.C,D95*%
X455803000Y-31364000D03*
D16*
X455803000Y-33904000D03*
%TD*%
D15*
%TO.C,D79*%
X437515000Y-31358000D03*
D16*
X437515000Y-33898000D03*
%TD*%
D11*
%TO.C,S106*%
X409575000Y-109855000D03*
D12*
X414655000Y-109855000D03*
D11*
X419735000Y-109855000D03*
D10*
X410845000Y-107315000D03*
X417195000Y-104775000D03*
%TD*%
%TO.C,S55*%
X174307500Y-104775000D03*
X167957500Y-107315000D03*
D11*
X176847500Y-109855000D03*
D12*
X171767500Y-109855000D03*
D11*
X166687500Y-109855000D03*
%TD*%
%TO.C,S9*%
X219075000Y-43180000D03*
D12*
X224155000Y-43180000D03*
D11*
X229235000Y-43180000D03*
D10*
X220345000Y-40640000D03*
X226695000Y-38100000D03*
%TD*%
D11*
%TO.C,S67*%
X80962500Y-128905000D03*
D12*
X86042500Y-128905000D03*
D11*
X91122500Y-128905000D03*
D10*
X82232500Y-126365000D03*
X88582500Y-123825000D03*
%TD*%
D15*
%TO.C,D32*%
X449707000Y-31364000D03*
D16*
X449707000Y-33904000D03*
%TD*%
D11*
%TO.C,S104*%
X447675000Y-100330000D03*
D12*
X452755000Y-100330000D03*
D11*
X457835000Y-100330000D03*
D10*
X448945000Y-97790000D03*
X455295000Y-95250000D03*
%TD*%
D11*
%TO.C,S44*%
X257175000Y-90805000D03*
D12*
X262255000Y-90805000D03*
D11*
X267335000Y-90805000D03*
D10*
X258445000Y-88265000D03*
X264795000Y-85725000D03*
%TD*%
D13*
%TO.C,R2*%
X445465000Y-44655000D03*
D14*
X437845000Y-44655000D03*
%TD*%
D11*
%TO.C,S93*%
X428625000Y-147955000D03*
D12*
X433705000Y-147955000D03*
D11*
X438785000Y-147955000D03*
D10*
X429895000Y-145415000D03*
X436245000Y-142875000D03*
%TD*%
D11*
%TO.C,S103*%
X428625000Y-90805000D03*
D12*
X433705000Y-90805000D03*
D11*
X438785000Y-90805000D03*
D10*
X429895000Y-88265000D03*
X436245000Y-85725000D03*
%TD*%
D18*
%TO.C,U1*%
X422155000Y-24655000D03*
X422155000Y-27195000D03*
X422155000Y-29735000D03*
X422155000Y-32275000D03*
X422155000Y-34815000D03*
X422155000Y-37355000D03*
X422155000Y-39895000D03*
X422155000Y-42435000D03*
X422155000Y-44975000D03*
X422155000Y-47515000D03*
X422155000Y-50055000D03*
X422155000Y-52595000D03*
X406915000Y-52595000D03*
X406915000Y-50055000D03*
X406915000Y-47515000D03*
X406915000Y-44975000D03*
X406915000Y-42435000D03*
X406915000Y-39895000D03*
X406915000Y-37355000D03*
X406915000Y-34815000D03*
X406915000Y-32275000D03*
X406915000Y-29735000D03*
X406915000Y-27195000D03*
D19*
X406915000Y-24655000D03*
%TD*%
D11*
%TO.C,S10*%
X247650000Y-43180000D03*
D12*
X252730000Y-43180000D03*
D11*
X257810000Y-43180000D03*
D10*
X248920000Y-40640000D03*
X255270000Y-38100000D03*
%TD*%
D11*
%TO.C,S57*%
X204787500Y-109855000D03*
D12*
X209867500Y-109855000D03*
D11*
X214947500Y-109855000D03*
D10*
X206057500Y-107315000D03*
X212407500Y-104775000D03*
%TD*%
D11*
%TO.C,S49*%
X47625000Y-109855000D03*
D12*
X52705000Y-109855000D03*
D11*
X57785000Y-109855000D03*
D10*
X48895000Y-107315000D03*
X55245000Y-104775000D03*
%TD*%
D11*
%TO.C,S7*%
X180975000Y-43180000D03*
D12*
X186055000Y-43180000D03*
D11*
X191135000Y-43180000D03*
D10*
X182245000Y-40640000D03*
X188595000Y-38100000D03*
%TD*%
D17*
%TO.C,M3*%
X471269767Y-24647815D03*
%TD*%
D11*
%TO.C,S33*%
X42862500Y-90805000D03*
D12*
X47942500Y-90805000D03*
D11*
X53022500Y-90805000D03*
D10*
X44132500Y-88265000D03*
X50482500Y-85725000D03*
%TD*%
D11*
%TO.C,S12*%
X285750000Y-43180000D03*
D12*
X290830000Y-43180000D03*
D11*
X295910000Y-43180000D03*
D10*
X287020000Y-40640000D03*
X293370000Y-38100000D03*
%TD*%
D13*
%TO.C,R1*%
X445465000Y-40655000D03*
D14*
X437845000Y-40655000D03*
%TD*%
D11*
%TO.C,S89*%
X328612500Y-147955000D03*
D12*
X333692500Y-147955000D03*
D11*
X338772500Y-147955000D03*
D10*
X329882500Y-145415000D03*
X336232500Y-142875000D03*
%TD*%
D11*
%TO.C,S69*%
X119062500Y-128905000D03*
D12*
X124142500Y-128905000D03*
D11*
X129222500Y-128905000D03*
D10*
X120332500Y-126365000D03*
X126682500Y-123825000D03*
%TD*%
D11*
%TO.C,S108*%
X390525000Y-128905000D03*
D12*
X395605000Y-128905000D03*
D11*
X400685000Y-128905000D03*
D10*
X391795000Y-126365000D03*
X398145000Y-123825000D03*
%TD*%
D17*
%TO.C,M3*%
X24642613Y-166473323D03*
%TD*%
D11*
%TO.C,S29*%
X266700000Y-71755000D03*
D12*
X271780000Y-71755000D03*
D11*
X276860000Y-71755000D03*
D10*
X267970000Y-69215000D03*
X274320000Y-66675000D03*
%TD*%
M02*
