%TF.GenerationSoftware,KiCad,Pcbnew,7.0.10*%
%TF.CreationDate,2024-04-02T12:04:44+02:00*%
%TF.ProjectId,k3yb.it,6b337962-2e69-4742-9e6b-696361645f70,v1.0b*%
%TF.SameCoordinates,Original*%
%TF.FileFunction,Copper,L2,Bot*%
%TF.FilePolarity,Positive*%
%FSLAX46Y46*%
G04 Gerber Fmt 4.6, Leading zero omitted, Abs format (unit mm)*
G04 Created by KiCad (PCBNEW 7.0.10) date 2024-04-02 12:04:44*
%MOMM*%
%LPD*%
G01*
G04 APERTURE LIST*
G04 Aperture macros list*
%AMRoundRect*
0 Rectangle with rounded corners*
0 $1 Rounding radius*
0 $2 $3 $4 $5 $6 $7 $8 $9 X,Y pos of 4 corners*
0 Add a 4 corners polygon primitive as box body*
4,1,4,$2,$3,$4,$5,$6,$7,$8,$9,$2,$3,0*
0 Add four circle primitives for the rounded corners*
1,1,$1+$1,$2,$3*
1,1,$1+$1,$4,$5*
1,1,$1+$1,$6,$7*
1,1,$1+$1,$8,$9*
0 Add four rect primitives between the rounded corners*
20,1,$1+$1,$2,$3,$4,$5,0*
20,1,$1+$1,$4,$5,$6,$7,0*
20,1,$1+$1,$6,$7,$8,$9,0*
20,1,$1+$1,$8,$9,$2,$3,0*%
G04 Aperture macros list end*
%TA.AperFunction,SMDPad,CuDef*%
%ADD10RoundRect,0.250000X-1.525000X-1.000000X1.525000X-1.000000X1.525000X1.000000X-1.525000X1.000000X0*%
%TD*%
%TA.AperFunction,ComponentPad*%
%ADD11C,3.600000*%
%TD*%
%TA.AperFunction,ComponentPad*%
%ADD12C,1.400000*%
%TD*%
%TA.AperFunction,ComponentPad*%
%ADD13O,1.400000X1.400000*%
%TD*%
%TA.AperFunction,ComponentPad*%
%ADD14R,1.800000X1.800000*%
%TD*%
%TA.AperFunction,ComponentPad*%
%ADD15C,1.800000*%
%TD*%
%TA.AperFunction,ComponentPad*%
%ADD16C,1.752600*%
%TD*%
%TA.AperFunction,ComponentPad*%
%ADD17R,1.752600X1.752600*%
%TD*%
%TA.AperFunction,SMDPad,CuDef*%
%ADD18RoundRect,0.225000X0.375000X-0.225000X0.375000X0.225000X-0.375000X0.225000X-0.375000X-0.225000X0*%
%TD*%
%TA.AperFunction,SMDPad,CuDef*%
%ADD19RoundRect,0.150000X0.650000X0.150000X-0.650000X0.150000X-0.650000X-0.150000X0.650000X-0.150000X0*%
%TD*%
%TA.AperFunction,SMDPad,CuDef*%
%ADD20RoundRect,0.150000X0.875000X0.150000X-0.875000X0.150000X-0.875000X-0.150000X0.875000X-0.150000X0*%
%TD*%
%TA.AperFunction,ViaPad*%
%ADD21C,0.800000*%
%TD*%
%TA.AperFunction,Conductor*%
%ADD22C,0.250000*%
%TD*%
G04 APERTURE END LIST*
D10*
%TO.P,S50,2,2*%
%TO.N,Net-(D50-A)*%
X81837500Y-104775000D03*
D11*
X79057500Y-104775000D03*
%TO.P,S50,1,1*%
%TO.N,Col 1*%
X72707500Y-107315000D03*
D10*
X69932500Y-107315000D03*
%TD*%
%TO.P,S11,1,1*%
%TO.N,Col 10*%
X265195000Y-40640000D03*
D11*
X267970000Y-40640000D03*
%TO.P,S11,2,2*%
%TO.N,Net-(D11-A)*%
X274320000Y-38100000D03*
D10*
X277100000Y-38100000D03*
%TD*%
D12*
%TO.P,R3,1*%
%TO.N,Net-(D79-A)*%
X445465000Y-52655000D03*
D13*
%TO.P,R3,2*%
%TO.N,CAPS LOCK LED*%
X437845000Y-52655000D03*
%TD*%
D10*
%TO.P,S18,1,1*%
%TO.N,Col 1*%
X55645000Y-69215000D03*
D11*
X58420000Y-69215000D03*
%TO.P,S18,2,2*%
%TO.N,Net-(D18-A)*%
X64770000Y-66675000D03*
D10*
X67550000Y-66675000D03*
%TD*%
%TO.P,S78,1,1*%
%TO.N,Col 15*%
X346157500Y-126365000D03*
D11*
X348932500Y-126365000D03*
%TO.P,S78,2,2*%
%TO.N,Net-(D78-A)*%
X355282500Y-123825000D03*
D10*
X358062500Y-123825000D03*
%TD*%
%TO.P,S48,1,1*%
%TO.N,Col 15*%
X365207500Y-69215000D03*
D11*
X367982500Y-69215000D03*
%TO.P,S48,2,2*%
%TO.N,Net-(D48-A)*%
X374332500Y-66675000D03*
D10*
X377112500Y-66675000D03*
%TD*%
%TO.P,S8,1,1*%
%TO.N,Col 7*%
X198520000Y-40640000D03*
D11*
X201295000Y-40640000D03*
%TO.P,S8,2,2*%
%TO.N,Net-(D8-A)*%
X207645000Y-38100000D03*
D10*
X210425000Y-38100000D03*
%TD*%
%TO.P,S60,1,1*%
%TO.N,Col 11*%
X260432500Y-107315000D03*
D11*
X263207500Y-107315000D03*
%TO.P,S60,2,2*%
%TO.N,Net-(D60-A)*%
X269557500Y-104775000D03*
D10*
X272337500Y-104775000D03*
%TD*%
%TO.P,S56,1,1*%
%TO.N,Col 7*%
X184232500Y-107315000D03*
D11*
X187007500Y-107315000D03*
%TO.P,S56,2,2*%
%TO.N,Net-(D56-A)*%
X193357500Y-104775000D03*
D10*
X196137500Y-104775000D03*
%TD*%
%TO.P,S88,1,1*%
%TO.N,Col 11*%
X300596250Y-145415000D03*
D11*
X303371250Y-145415000D03*
%TO.P,S88,2,2*%
%TO.N,Net-(D88-A)*%
X309721250Y-142875000D03*
D10*
X312501250Y-142875000D03*
%TD*%
%TO.P,S3,1,1*%
%TO.N,Col 2*%
X93745000Y-40640000D03*
D11*
X96520000Y-40640000D03*
%TO.P,S3,2,2*%
%TO.N,Net-(D3-A)*%
X102870000Y-38100000D03*
D10*
X105650000Y-38100000D03*
%TD*%
%TO.P,S52,1,1*%
%TO.N,Col 3*%
X108032500Y-107315000D03*
D11*
X110807500Y-107315000D03*
%TO.P,S52,2,2*%
%TO.N,Net-(D52-A)*%
X117157500Y-104775000D03*
D10*
X119937500Y-104775000D03*
%TD*%
%TO.P,S59,1,1*%
%TO.N,Col 10*%
X241382500Y-107315000D03*
D11*
X244157500Y-107315000D03*
%TO.P,S59,2,2*%
%TO.N,Net-(D59-A)*%
X250507500Y-104775000D03*
D10*
X253287500Y-104775000D03*
%TD*%
%TO.P,S63,1,1*%
%TO.N,Col 14*%
X346157500Y-88265000D03*
D11*
X348932500Y-88265000D03*
%TO.P,S63,2,2*%
%TO.N,Net-(D63-A)*%
X355282500Y-85725000D03*
D10*
X358062500Y-85725000D03*
%TD*%
%TO.P,S20,1,1*%
%TO.N,Col 3*%
X93745000Y-69215000D03*
D11*
X96520000Y-69215000D03*
%TO.P,S20,2,2*%
%TO.N,Net-(D20-A)*%
X102870000Y-66675000D03*
D10*
X105650000Y-66675000D03*
%TD*%
%TO.P,S38,1,1*%
%TO.N,Col 5*%
X141370000Y-88265000D03*
D11*
X144145000Y-88265000D03*
%TO.P,S38,2,2*%
%TO.N,Net-(D38-A)*%
X150495000Y-85725000D03*
D10*
X153275000Y-85725000D03*
%TD*%
%TO.P,S61,1,1*%
%TO.N,Col 12*%
X300913750Y-97790000D03*
D11*
X303688750Y-97790000D03*
%TO.P,S61,2,2*%
%TO.N,Net-(D61-A)*%
X310038750Y-95250000D03*
D10*
X312818750Y-95250000D03*
%TD*%
%TO.P,S97,1,1*%
%TO.N,Pad Col 0*%
X389020000Y-69215000D03*
D11*
X391795000Y-69215000D03*
%TO.P,S97,2,2*%
%TO.N,Net-(D97-A)*%
X398145000Y-66675000D03*
D10*
X400925000Y-66675000D03*
%TD*%
%TO.P,S31,1,1*%
%TO.N,Col 12*%
X279482500Y-107473750D03*
D11*
X282257500Y-107473750D03*
%TO.P,S31,2,2*%
%TO.N,Net-(D31-A)*%
X288607500Y-104933750D03*
D10*
X291387500Y-104933750D03*
%TD*%
%TO.P,S13,1,1*%
%TO.N,Col 12*%
X303295000Y-40640000D03*
D11*
X306070000Y-40640000D03*
%TO.P,S13,2,2*%
%TO.N,Net-(D13-A)*%
X312420000Y-38100000D03*
D10*
X315200000Y-38100000D03*
%TD*%
%TO.P,S54,1,1*%
%TO.N,Col 5*%
X146132500Y-107315000D03*
D11*
X148907500Y-107315000D03*
%TO.P,S54,2,2*%
%TO.N,Net-(D54-A)*%
X155257500Y-104775000D03*
D10*
X158037500Y-104775000D03*
%TD*%
D14*
%TO.P,D80,1,K*%
%TO.N,LOW*%
X443611000Y-31358000D03*
D15*
%TO.P,D80,2,A*%
%TO.N,Net-(D80-A)*%
X443611000Y-33898000D03*
%TD*%
D10*
%TO.P,S30,1,1*%
%TO.N,Col 13*%
X293770000Y-69215000D03*
D11*
X296545000Y-69215000D03*
%TO.P,S30,2,2*%
%TO.N,Net-(D30-A)*%
X302895000Y-66675000D03*
D10*
X305675000Y-66675000D03*
%TD*%
%TO.P,S21,1,1*%
%TO.N,Col 4*%
X112795000Y-69215000D03*
D11*
X115570000Y-69215000D03*
%TO.P,S21,2,2*%
%TO.N,Net-(D21-A)*%
X121920000Y-66675000D03*
D10*
X124700000Y-66675000D03*
%TD*%
%TO.P,S26,1,1*%
%TO.N,Col 9*%
X208045000Y-69215000D03*
D11*
X210820000Y-69215000D03*
%TO.P,S26,2,2*%
%TO.N,Net-(D26-A)*%
X217170000Y-66675000D03*
D10*
X219950000Y-66675000D03*
%TD*%
%TO.P,S73,1,1*%
%TO.N,Col 8*%
X193757500Y-126365000D03*
D11*
X196532500Y-126365000D03*
%TO.P,S73,2,2*%
%TO.N,Net-(D73-A)*%
X202882500Y-123825000D03*
D10*
X205662500Y-123825000D03*
%TD*%
%TO.P,S87,1,1*%
%TO.N,Col 10*%
X277101250Y-145415000D03*
D11*
X279876250Y-145415000D03*
%TO.P,S87,2,2*%
%TO.N,Net-(D87-A)*%
X286226250Y-142875000D03*
D10*
X289006250Y-142875000D03*
%TD*%
%TO.P,S53,1,1*%
%TO.N,Col 4*%
X127082500Y-107315000D03*
D11*
X129857500Y-107315000D03*
%TO.P,S53,2,2*%
%TO.N,Net-(D53-A)*%
X136207500Y-104775000D03*
D10*
X138987500Y-104775000D03*
%TD*%
%TO.P,S47,1,1*%
%TO.N,Col 14*%
X346157500Y-69215000D03*
D11*
X348932500Y-69215000D03*
%TO.P,S47,2,2*%
%TO.N,Net-(D47-A)*%
X355282500Y-66675000D03*
D10*
X358062500Y-66675000D03*
%TD*%
%TO.P,S4,1,1*%
%TO.N,Col 3*%
X112795000Y-40640000D03*
D11*
X115570000Y-40640000D03*
%TO.P,S4,2,2*%
%TO.N,Net-(D4-A)*%
X121920000Y-38100000D03*
D10*
X124700000Y-38100000D03*
%TD*%
%TO.P,S2,1,1*%
%TO.N,Col 1*%
X74695000Y-40640000D03*
D11*
X77470000Y-40640000D03*
%TO.P,S2,2,2*%
%TO.N,Net-(D2-A)*%
X83820000Y-38100000D03*
D10*
X86600000Y-38100000D03*
%TD*%
%TO.P,S101,1,1*%
%TO.N,Pad Col 0*%
X389020000Y-88265000D03*
D11*
X391795000Y-88265000D03*
%TO.P,S101,2,2*%
%TO.N,Net-(D101-A)*%
X398145000Y-85725000D03*
D10*
X400925000Y-85725000D03*
%TD*%
%TO.P,S62,1,1*%
%TO.N,Col 13*%
X327107500Y-88265000D03*
D11*
X329882500Y-88265000D03*
%TO.P,S62,2,2*%
%TO.N,Net-(D62-A)*%
X336232500Y-85725000D03*
D10*
X339012500Y-85725000D03*
%TD*%
%TO.P,S65,1,1*%
%TO.N,Col 0*%
X41357500Y-126365000D03*
D11*
X44132500Y-126365000D03*
%TO.P,S65,2,2*%
%TO.N,Net-(D65-A)*%
X50482500Y-123825000D03*
D10*
X53262500Y-123825000D03*
%TD*%
%TO.P,S64,1,1*%
%TO.N,Col 15*%
X365207500Y-88265000D03*
D11*
X367982500Y-88265000D03*
%TO.P,S64,2,2*%
%TO.N,Net-(D64-A)*%
X374332500Y-85725000D03*
D10*
X377112500Y-85725000D03*
%TD*%
%TO.P,S71,1,1*%
%TO.N,Col 6*%
X155657500Y-126365000D03*
D11*
X158432500Y-126365000D03*
%TO.P,S71,2,2*%
%TO.N,Net-(D71-A)*%
X164782500Y-123825000D03*
D10*
X167562500Y-123825000D03*
%TD*%
%TO.P,S105,1,1*%
%TO.N,Pad Col 0*%
X389020000Y-107315000D03*
D11*
X391795000Y-107315000D03*
%TO.P,S105,2,2*%
%TO.N,Net-(D105-A)*%
X398145000Y-104775000D03*
D10*
X400925000Y-104775000D03*
%TD*%
%TO.P,S99,1,1*%
%TO.N,Pad Col 2*%
X427120000Y-69215000D03*
D11*
X429895000Y-69215000D03*
%TO.P,S99,2,2*%
%TO.N,Net-(D99-A)*%
X436245000Y-66675000D03*
D10*
X439025000Y-66675000D03*
%TD*%
%TO.P,S102,1,1*%
%TO.N,Pad Col 1*%
X408070000Y-88265000D03*
D11*
X410845000Y-88265000D03*
%TO.P,S102,2,2*%
%TO.N,Net-(D102-A)*%
X417195000Y-85725000D03*
D10*
X419975000Y-85725000D03*
%TD*%
%TO.P,S19,1,1*%
%TO.N,Col 2*%
X74695000Y-69215000D03*
D11*
X77470000Y-69215000D03*
%TO.P,S19,2,2*%
%TO.N,Net-(D19-A)*%
X83820000Y-66675000D03*
D10*
X86600000Y-66675000D03*
%TD*%
%TO.P,S70,1,1*%
%TO.N,Col 5*%
X136607500Y-126365000D03*
D11*
X139382500Y-126365000D03*
%TO.P,S70,2,2*%
%TO.N,Net-(D70-A)*%
X145732500Y-123825000D03*
D10*
X148512500Y-123825000D03*
%TD*%
%TO.P,S5,1,1*%
%TO.N,Col 4*%
X131845000Y-40640000D03*
D11*
X134620000Y-40640000D03*
%TO.P,S5,2,2*%
%TO.N,Net-(D5-A)*%
X140970000Y-38100000D03*
D10*
X143750000Y-38100000D03*
%TD*%
%TO.P,S28,1,1*%
%TO.N,Col 11*%
X246145000Y-69215000D03*
D11*
X248920000Y-69215000D03*
%TO.P,S28,2,2*%
%TO.N,Net-(D28-A)*%
X255270000Y-66675000D03*
D10*
X258050000Y-66675000D03*
%TD*%
%TO.P,S39,1,1*%
%TO.N,Col 6*%
X160420000Y-88265000D03*
D11*
X163195000Y-88265000D03*
%TO.P,S39,2,2*%
%TO.N,Net-(D39-A)*%
X169545000Y-85725000D03*
D10*
X172325000Y-85725000D03*
%TD*%
%TO.P,S98,1,1*%
%TO.N,Pad Col 1*%
X408070000Y-69215000D03*
D11*
X410845000Y-69215000D03*
%TO.P,S98,2,2*%
%TO.N,Net-(D98-A)*%
X417195000Y-66675000D03*
D10*
X419975000Y-66675000D03*
%TD*%
%TO.P,S83,1,1*%
%TO.N,Col 2*%
X86918750Y-145415000D03*
D11*
X89693750Y-145415000D03*
%TO.P,S83,2,2*%
%TO.N,Net-(D83-A)*%
X96043750Y-142875000D03*
D10*
X98823750Y-142875000D03*
%TD*%
%TO.P,S82,1,1*%
%TO.N,Col 1*%
X62788750Y-145415000D03*
D11*
X65563750Y-145415000D03*
%TO.P,S82,2,2*%
%TO.N,Net-(D82-A)*%
X71913750Y-142875000D03*
D10*
X74693750Y-142875000D03*
%TD*%
%TO.P,S41,1,1*%
%TO.N,Col 8*%
X198520000Y-88265000D03*
D11*
X201295000Y-88265000D03*
%TO.P,S41,2,2*%
%TO.N,Net-(D41-A)*%
X207645000Y-85725000D03*
D10*
X210425000Y-85725000D03*
%TD*%
%TO.P,S81,1,1*%
%TO.N,Col 0*%
X38976250Y-145415000D03*
D11*
X41751250Y-145415000D03*
%TO.P,S81,2,2*%
%TO.N,Net-(D81-A)*%
X48101250Y-142875000D03*
D10*
X50881250Y-142875000D03*
%TD*%
%TO.P,S45,1,1*%
%TO.N,Col 12*%
X274720000Y-88265000D03*
D11*
X277495000Y-88265000D03*
%TO.P,S45,2,2*%
%TO.N,Net-(D45-A)*%
X283845000Y-85725000D03*
D10*
X286625000Y-85725000D03*
%TD*%
%TO.P,S17,1,1*%
%TO.N,Col 0*%
X36595000Y-69215000D03*
D11*
X39370000Y-69215000D03*
%TO.P,S17,2,2*%
%TO.N,Net-(D17-A)*%
X45720000Y-66675000D03*
D10*
X48500000Y-66675000D03*
%TD*%
%TO.P,S37,1,1*%
%TO.N,Col 4*%
X122320000Y-88265000D03*
D11*
X125095000Y-88265000D03*
%TO.P,S37,2,2*%
%TO.N,Net-(D37-A)*%
X131445000Y-85725000D03*
D10*
X134225000Y-85725000D03*
%TD*%
%TO.P,S35,1,1*%
%TO.N,Col 2*%
X84220000Y-88265000D03*
D11*
X86995000Y-88265000D03*
%TO.P,S35,2,2*%
%TO.N,Net-(D35-A)*%
X93345000Y-85725000D03*
D10*
X96125000Y-85725000D03*
%TD*%
%TO.P,S75,1,1*%
%TO.N,Col 10*%
X231857500Y-126365000D03*
D11*
X234632500Y-126365000D03*
%TO.P,S75,2,2*%
%TO.N,Net-(D75-A)*%
X240982500Y-123825000D03*
D10*
X243762500Y-123825000D03*
%TD*%
%TO.P,S94,1,1*%
%TO.N,Pad Col 3*%
X446170000Y-135890000D03*
D11*
X448945000Y-135890000D03*
%TO.P,S94,2,2*%
%TO.N,Net-(D94-A)*%
X455295000Y-133350000D03*
D10*
X458075000Y-133350000D03*
%TD*%
%TO.P,S85,1,1*%
%TO.N,Col 8*%
X229476250Y-145415000D03*
D11*
X232251250Y-145415000D03*
%TO.P,S85,2,2*%
%TO.N,Net-(D85-A)*%
X238601250Y-142875000D03*
D10*
X241381250Y-142875000D03*
%TD*%
%TO.P,S91,1,1*%
%TO.N,Col 10*%
X365207500Y-145415000D03*
D11*
X367982500Y-145415000D03*
%TO.P,S91,2,2*%
%TO.N,Net-(D91-A)*%
X374332500Y-142875000D03*
D10*
X377112500Y-142875000D03*
%TD*%
%TO.P,S77,1,1*%
%TO.N,Col 12*%
X286626250Y-126365000D03*
D11*
X289401250Y-126365000D03*
%TO.P,S77,2,2*%
%TO.N,Net-(D77-A)*%
X295751250Y-123825000D03*
D10*
X298531250Y-123825000D03*
%TD*%
%TO.P,S68,1,1*%
%TO.N,Col 3*%
X98507500Y-126365000D03*
D11*
X101282500Y-126365000D03*
%TO.P,S68,2,2*%
%TO.N,Net-(D68-A)*%
X107632500Y-123825000D03*
D10*
X110412500Y-123825000D03*
%TD*%
%TO.P,S1,1,1*%
%TO.N,Col 0*%
X36595000Y-40640000D03*
D11*
X39370000Y-40640000D03*
%TO.P,S1,2,2*%
%TO.N,Net-(D1-A)*%
X45720000Y-38100000D03*
D10*
X48500000Y-38100000D03*
%TD*%
%TO.P,S76,1,1*%
%TO.N,Col 11*%
X250907500Y-126365000D03*
D11*
X253682500Y-126365000D03*
%TO.P,S76,2,2*%
%TO.N,Net-(D76-A)*%
X260032500Y-123825000D03*
D10*
X262812500Y-123825000D03*
%TD*%
%TO.P,S34,1,1*%
%TO.N,Col 1*%
X65170000Y-88265000D03*
D11*
X67945000Y-88265000D03*
%TO.P,S34,2,2*%
%TO.N,Net-(D34-A)*%
X74295000Y-85725000D03*
D10*
X77075000Y-85725000D03*
%TD*%
%TO.P,S23,1,1*%
%TO.N,Col 6*%
X150895000Y-69215000D03*
D11*
X153670000Y-69215000D03*
%TO.P,S23,2,2*%
%TO.N,Net-(D23-A)*%
X160020000Y-66675000D03*
D10*
X162800000Y-66675000D03*
%TD*%
D12*
%TO.P,R4,1*%
%TO.N,Net-(D95-A)*%
X445465000Y-48655000D03*
D13*
%TO.P,R4,2*%
%TO.N,MIC ON LED*%
X437845000Y-48655000D03*
%TD*%
D10*
%TO.P,S58,1,1*%
%TO.N,Col 9*%
X222332500Y-107315000D03*
D11*
X225107500Y-107315000D03*
%TO.P,S58,2,2*%
%TO.N,Net-(D58-A)*%
X231457500Y-104775000D03*
D10*
X234237500Y-104775000D03*
%TD*%
%TO.P,S92,1,1*%
%TO.N,Pad Col 0*%
X398545000Y-145415000D03*
D11*
X401320000Y-145415000D03*
%TO.P,S92,2,2*%
%TO.N,Net-(D92-A)*%
X407670000Y-142875000D03*
D10*
X410450000Y-142875000D03*
%TD*%
%TO.P,S110,1,1*%
%TO.N,Pad Col 2*%
X427120000Y-126365000D03*
D11*
X429895000Y-126365000D03*
%TO.P,S110,2,2*%
%TO.N,Net-(D110-A)*%
X436245000Y-123825000D03*
D10*
X439025000Y-123825000D03*
%TD*%
%TO.P,S24,1,1*%
%TO.N,Col 7*%
X169945000Y-69215000D03*
D11*
X172720000Y-69215000D03*
%TO.P,S24,2,2*%
%TO.N,Net-(D24-A)*%
X179070000Y-66675000D03*
D10*
X181850000Y-66675000D03*
%TD*%
%TO.P,S22,1,1*%
%TO.N,Col 5*%
X131845000Y-69215000D03*
D11*
X134620000Y-69215000D03*
%TO.P,S22,2,2*%
%TO.N,Net-(D22-A)*%
X140970000Y-66675000D03*
D10*
X143750000Y-66675000D03*
%TD*%
%TO.P,S46,1,1*%
%TO.N,Col 13*%
X327107500Y-69215000D03*
D11*
X329882500Y-69215000D03*
%TO.P,S46,2,2*%
%TO.N,Net-(D46-A)*%
X336232500Y-66675000D03*
D10*
X339012500Y-66675000D03*
%TD*%
%TO.P,S100,1,1*%
%TO.N,Pad Col 3*%
X446170000Y-69215000D03*
D11*
X448945000Y-69215000D03*
%TO.P,S100,2,2*%
%TO.N,Net-(D100-A)*%
X455295000Y-66675000D03*
D10*
X458075000Y-66675000D03*
%TD*%
%TO.P,S109,1,1*%
%TO.N,Pad Col 1*%
X408070000Y-126365000D03*
D11*
X410845000Y-126365000D03*
%TO.P,S109,2,2*%
%TO.N,Net-(D109-A)*%
X417195000Y-123825000D03*
D10*
X419975000Y-123825000D03*
%TD*%
%TO.P,S15,1,1*%
%TO.N,Col 14*%
X346157500Y-40640000D03*
D11*
X348932500Y-40640000D03*
%TO.P,S15,2,2*%
%TO.N,Net-(D15-A)*%
X355282500Y-38100000D03*
D10*
X358062500Y-38100000D03*
%TD*%
%TO.P,S51,1,1*%
%TO.N,Col 2*%
X88982500Y-107315000D03*
D11*
X91757500Y-107315000D03*
%TO.P,S51,2,2*%
%TO.N,Net-(D51-A)*%
X98107500Y-104775000D03*
D10*
X100887500Y-104775000D03*
%TD*%
%TO.P,S36,1,1*%
%TO.N,Col 3*%
X103270000Y-88265000D03*
D11*
X106045000Y-88265000D03*
%TO.P,S36,2,2*%
%TO.N,Net-(D36-A)*%
X112395000Y-85725000D03*
D10*
X115175000Y-85725000D03*
%TD*%
%TO.P,S74,1,1*%
%TO.N,Col 9*%
X212807500Y-126365000D03*
D11*
X215582500Y-126365000D03*
%TO.P,S74,2,2*%
%TO.N,Net-(D74-A)*%
X221932500Y-123825000D03*
D10*
X224712500Y-123825000D03*
%TD*%
%TO.P,S25,1,1*%
%TO.N,Col 8*%
X188995000Y-69215000D03*
D11*
X191770000Y-69215000D03*
%TO.P,S25,2,2*%
%TO.N,Net-(D25-A)*%
X198120000Y-66675000D03*
D10*
X200900000Y-66675000D03*
%TD*%
%TO.P,S16,1,1*%
%TO.N,Col 15*%
X365207500Y-40640000D03*
D11*
X367982500Y-40640000D03*
%TO.P,S16,2,2*%
%TO.N,Net-(D16-A)*%
X374332500Y-38100000D03*
D10*
X377112500Y-38100000D03*
%TD*%
%TO.P,S27,1,1*%
%TO.N,Col 10*%
X227095000Y-69215000D03*
D11*
X229870000Y-69215000D03*
%TO.P,S27,2,2*%
%TO.N,Net-(D27-A)*%
X236220000Y-66675000D03*
D10*
X239000000Y-66675000D03*
%TD*%
%TO.P,S6,1,1*%
%TO.N,Col 5*%
X160420000Y-40640000D03*
D11*
X163195000Y-40640000D03*
%TO.P,S6,2,2*%
%TO.N,Net-(D6-A)*%
X169545000Y-38100000D03*
D10*
X172325000Y-38100000D03*
%TD*%
%TO.P,S40,1,1*%
%TO.N,Col 7*%
X179470000Y-88265000D03*
D11*
X182245000Y-88265000D03*
%TO.P,S40,2,2*%
%TO.N,Net-(D40-A)*%
X188595000Y-85725000D03*
D10*
X191375000Y-85725000D03*
%TD*%
%TO.P,S90,1,1*%
%TO.N,Col 14*%
X346157500Y-145415000D03*
D11*
X348932500Y-145415000D03*
%TO.P,S90,2,2*%
%TO.N,Net-(D90-A)*%
X355282500Y-142875000D03*
D10*
X358062500Y-142875000D03*
%TD*%
%TO.P,S84,1,1*%
%TO.N,Col 3*%
X158038750Y-145415000D03*
D11*
X160813750Y-145415000D03*
%TO.P,S84,2,2*%
%TO.N,Net-(D84-A)*%
X167163750Y-142875000D03*
D10*
X169943750Y-142875000D03*
%TD*%
%TO.P,S14,1,1*%
%TO.N,Col 13*%
X327107500Y-40640000D03*
D11*
X329882500Y-40640000D03*
%TO.P,S14,2,2*%
%TO.N,Net-(D14-A)*%
X336232500Y-38100000D03*
D10*
X339012500Y-38100000D03*
%TD*%
%TO.P,S66,1,1*%
%TO.N,Col 1*%
X60407500Y-126365000D03*
D11*
X63182500Y-126365000D03*
%TO.P,S66,2,2*%
%TO.N,Net-(D66-A)*%
X69532500Y-123825000D03*
D10*
X72312500Y-123825000D03*
%TD*%
%TO.P,S72,1,1*%
%TO.N,Col 7*%
X174707500Y-126365000D03*
D11*
X177482500Y-126365000D03*
%TO.P,S72,2,2*%
%TO.N,Net-(D72-A)*%
X183832500Y-123825000D03*
D10*
X186612500Y-123825000D03*
%TD*%
%TO.P,S43,1,1*%
%TO.N,Col 10*%
X236620000Y-88265000D03*
D11*
X239395000Y-88265000D03*
%TO.P,S43,2,2*%
%TO.N,Net-(D43-A)*%
X245745000Y-85725000D03*
D10*
X248525000Y-85725000D03*
%TD*%
%TO.P,S107,1,1*%
%TO.N,Pad Col 2*%
X427120000Y-107315000D03*
D11*
X429895000Y-107315000D03*
%TO.P,S107,2,2*%
%TO.N,Net-(D107-A)*%
X436245000Y-104775000D03*
D10*
X439025000Y-104775000D03*
%TD*%
%TO.P,S86,1,1*%
%TO.N,Col 9*%
X253288750Y-145415000D03*
D11*
X256063750Y-145415000D03*
%TO.P,S86,2,2*%
%TO.N,Net-(D86-A)*%
X262413750Y-142875000D03*
D10*
X265193750Y-142875000D03*
%TD*%
%TO.P,S42,1,1*%
%TO.N,Col 9*%
X217570000Y-88265000D03*
D11*
X220345000Y-88265000D03*
%TO.P,S42,2,2*%
%TO.N,Net-(D42-A)*%
X226695000Y-85725000D03*
D10*
X229475000Y-85725000D03*
%TD*%
D14*
%TO.P,D95,1,K*%
%TO.N,LOW*%
X455803000Y-31364000D03*
D15*
%TO.P,D95,2,A*%
%TO.N,Net-(D95-A)*%
X455803000Y-33904000D03*
%TD*%
D14*
%TO.P,D79,1,K*%
%TO.N,LOW*%
X437515000Y-31358000D03*
D15*
%TO.P,D79,2,A*%
%TO.N,Net-(D79-A)*%
X437515000Y-33898000D03*
%TD*%
D10*
%TO.P,S106,1,1*%
%TO.N,Pad Col 1*%
X408070000Y-107315000D03*
D11*
X410845000Y-107315000D03*
%TO.P,S106,2,2*%
%TO.N,Net-(D106-A)*%
X417195000Y-104775000D03*
D10*
X419975000Y-104775000D03*
%TD*%
%TO.P,S55,2,2*%
%TO.N,Net-(D55-A)*%
X177087500Y-104775000D03*
D11*
X174307500Y-104775000D03*
%TO.P,S55,1,1*%
%TO.N,Col 6*%
X167957500Y-107315000D03*
D10*
X165182500Y-107315000D03*
%TD*%
%TO.P,S9,1,1*%
%TO.N,Col 8*%
X217570000Y-40640000D03*
D11*
X220345000Y-40640000D03*
%TO.P,S9,2,2*%
%TO.N,Net-(D9-A)*%
X226695000Y-38100000D03*
D10*
X229475000Y-38100000D03*
%TD*%
%TO.P,S67,1,1*%
%TO.N,Col 2*%
X79457500Y-126365000D03*
D11*
X82232500Y-126365000D03*
%TO.P,S67,2,2*%
%TO.N,Net-(D67-A)*%
X88582500Y-123825000D03*
D10*
X91362500Y-123825000D03*
%TD*%
D14*
%TO.P,D32,1,K*%
%TO.N,LOW*%
X449707000Y-31364000D03*
D15*
%TO.P,D32,2,A*%
%TO.N,Net-(D32-A)*%
X449707000Y-33904000D03*
%TD*%
D10*
%TO.P,S104,1,1*%
%TO.N,Pad Col 3*%
X446170000Y-97790000D03*
D11*
X448945000Y-97790000D03*
%TO.P,S104,2,2*%
%TO.N,Net-(D104-A)*%
X455295000Y-95250000D03*
D10*
X458075000Y-95250000D03*
%TD*%
%TO.P,S44,1,1*%
%TO.N,Col 11*%
X255670000Y-88265000D03*
D11*
X258445000Y-88265000D03*
%TO.P,S44,2,2*%
%TO.N,Net-(D44-A)*%
X264795000Y-85725000D03*
D10*
X267575000Y-85725000D03*
%TD*%
D12*
%TO.P,R2,1*%
%TO.N,Net-(D32-A)*%
X445465000Y-44655000D03*
D13*
%TO.P,R2,2*%
%TO.N,BLOC SCORR LED*%
X437845000Y-44655000D03*
%TD*%
D10*
%TO.P,S93,1,1*%
%TO.N,Pad Col 2*%
X427120000Y-145415000D03*
D11*
X429895000Y-145415000D03*
%TO.P,S93,2,2*%
%TO.N,Net-(D93-A)*%
X436245000Y-142875000D03*
D10*
X439025000Y-142875000D03*
%TD*%
%TO.P,S103,1,1*%
%TO.N,Pad Col 2*%
X427120000Y-88265000D03*
D11*
X429895000Y-88265000D03*
%TO.P,S103,2,2*%
%TO.N,Net-(D103-A)*%
X436245000Y-85725000D03*
D10*
X439025000Y-85725000D03*
%TD*%
D16*
%TO.P,U1,24,B+*%
%TO.N,unconnected-(U1-B+-Pad24)*%
X422155000Y-24655000D03*
%TO.P,U1,23,GND*%
%TO.N,LOW*%
X422155000Y-27195000D03*
%TO.P,U1,22,RST*%
%TO.N,NANO_RST*%
X422155000Y-29735000D03*
%TO.P,U1,21,3.3v*%
%TO.N,HIGH*%
X422155000Y-32275000D03*
%TO.P,U1,20,D21*%
%TO.N,NANO_MUX 1*%
X422155000Y-34815000D03*
%TO.P,U1,19,D20*%
%TO.N,NANO_MUX 2*%
X422155000Y-37355000D03*
%TO.P,U1,18,D19*%
%TO.N,NANO_MUX 3*%
X422155000Y-39895000D03*
%TO.P,U1,17,D18*%
%TO.N,NANO_MUX 4*%
X422155000Y-42435000D03*
%TO.P,U1,16,D15*%
%TO.N,Pad Col 3*%
X422155000Y-44975000D03*
%TO.P,U1,15,D14*%
%TO.N,Pad Col 2*%
X422155000Y-47515000D03*
%TO.P,U1,14,D16*%
%TO.N,Pad Col 1*%
X422155000Y-50055000D03*
%TO.P,U1,13,D10*%
%TO.N,Pad Col 0*%
X422155000Y-52595000D03*
%TO.P,U1,12,D9*%
%TO.N,LED_OUTPUT*%
X406915000Y-52595000D03*
%TO.P,U1,11,D8*%
%TO.N,Row 0*%
X406915000Y-50055000D03*
%TO.P,U1,10,D7*%
%TO.N,Row 1*%
X406915000Y-47515000D03*
%TO.P,U1,9,D6*%
%TO.N,Row 2*%
X406915000Y-44975000D03*
%TO.P,U1,8,D5*%
%TO.N,Row 3*%
X406915000Y-42435000D03*
%TO.P,U1,7,D4*%
%TO.N,Row 4*%
X406915000Y-39895000D03*
%TO.P,U1,6,D3*%
%TO.N,Row 5*%
X406915000Y-37355000D03*
%TO.P,U1,5,D2*%
%TO.N,Row 6*%
X406915000Y-34815000D03*
%TO.P,U1,4,GND*%
%TO.N,LOW*%
X406915000Y-32275000D03*
%TO.P,U1,3,GND*%
X406915000Y-29735000D03*
%TO.P,U1,2,D0*%
%TO.N,LED_MUX 2*%
X406915000Y-27195000D03*
D17*
%TO.P,U1,1,D1*%
%TO.N,LED_MUX 1*%
X406915000Y-24655000D03*
%TD*%
D10*
%TO.P,S10,1,1*%
%TO.N,Col 9*%
X246145000Y-40640000D03*
D11*
X248920000Y-40640000D03*
%TO.P,S10,2,2*%
%TO.N,Net-(D10-A)*%
X255270000Y-38100000D03*
D10*
X258050000Y-38100000D03*
%TD*%
%TO.P,S57,1,1*%
%TO.N,Col 8*%
X203282500Y-107315000D03*
D11*
X206057500Y-107315000D03*
%TO.P,S57,2,2*%
%TO.N,Net-(D57-A)*%
X212407500Y-104775000D03*
D10*
X215187500Y-104775000D03*
%TD*%
%TO.P,S49,1,1*%
%TO.N,Col 0*%
X46120000Y-107315000D03*
D11*
X48895000Y-107315000D03*
%TO.P,S49,2,2*%
%TO.N,Net-(D49-A)*%
X55245000Y-104775000D03*
D10*
X58025000Y-104775000D03*
%TD*%
%TO.P,S7,1,1*%
%TO.N,Col 6*%
X179470000Y-40640000D03*
D11*
X182245000Y-40640000D03*
%TO.P,S7,2,2*%
%TO.N,Net-(D7-A)*%
X188595000Y-38100000D03*
D10*
X191375000Y-38100000D03*
%TD*%
%TO.P,S33,1,1*%
%TO.N,Col 0*%
X41357500Y-88265000D03*
D11*
X44132500Y-88265000D03*
%TO.P,S33,2,2*%
%TO.N,Net-(D33-A)*%
X50482500Y-85725000D03*
D10*
X53262500Y-85725000D03*
%TD*%
%TO.P,S12,1,1*%
%TO.N,Col 11*%
X284245000Y-40640000D03*
D11*
X287020000Y-40640000D03*
%TO.P,S12,2,2*%
%TO.N,Net-(D12-A)*%
X293370000Y-38100000D03*
D10*
X296150000Y-38100000D03*
%TD*%
D12*
%TO.P,R1,1*%
%TO.N,Net-(D80-A)*%
X445465000Y-40655000D03*
D13*
%TO.P,R1,2*%
%TO.N,BLOC NUM LED*%
X437845000Y-40655000D03*
%TD*%
D10*
%TO.P,S89,1,1*%
%TO.N,Col 13*%
X327107500Y-145415000D03*
D11*
X329882500Y-145415000D03*
%TO.P,S89,2,2*%
%TO.N,Net-(D89-A)*%
X336232500Y-142875000D03*
D10*
X339012500Y-142875000D03*
%TD*%
%TO.P,S69,1,1*%
%TO.N,Col 4*%
X117557500Y-126365000D03*
D11*
X120332500Y-126365000D03*
%TO.P,S69,2,2*%
%TO.N,Net-(D69-A)*%
X126682500Y-123825000D03*
D10*
X129462500Y-123825000D03*
%TD*%
%TO.P,S108,1,1*%
%TO.N,Pad Col 0*%
X389020000Y-126365000D03*
D11*
X391795000Y-126365000D03*
%TO.P,S108,2,2*%
%TO.N,Net-(D108-A)*%
X398145000Y-123825000D03*
D10*
X400925000Y-123825000D03*
%TD*%
%TO.P,S29,1,1*%
%TO.N,Col 12*%
X265195000Y-69215000D03*
D11*
X267970000Y-69215000D03*
%TO.P,S29,2,2*%
%TO.N,Net-(D29-A)*%
X274320000Y-66675000D03*
D10*
X277100000Y-66675000D03*
%TD*%
D18*
%TO.P,D67,1,K*%
%TO.N,Row 4*%
X95567500Y-138430000D03*
%TO.P,D67,2,A*%
%TO.N,Net-(D67-A)*%
X95567500Y-135130000D03*
%TD*%
%TO.P,D73,1,K*%
%TO.N,Row 4*%
X209867500Y-138430000D03*
%TO.P,D73,2,A*%
%TO.N,Net-(D73-A)*%
X209867500Y-135130000D03*
%TD*%
%TO.P,D69,1,K*%
%TO.N,Row 4*%
X133667500Y-138430000D03*
%TO.P,D69,2,A*%
%TO.N,Net-(D69-A)*%
X133667500Y-135130000D03*
%TD*%
%TO.P,D46,1,K*%
%TO.N,Row 2*%
X343217500Y-81280000D03*
%TO.P,D46,2,A*%
%TO.N,Net-(D46-A)*%
X343217500Y-77980000D03*
%TD*%
%TO.P,D22,1,K*%
%TO.N,Row 1*%
X147955000Y-81280000D03*
%TO.P,D22,2,A*%
%TO.N,Net-(D22-A)*%
X147955000Y-77980000D03*
%TD*%
%TO.P,D61,1,K*%
%TO.N,Row 3*%
X317023750Y-109855000D03*
%TO.P,D61,2,A*%
%TO.N,Net-(D61-A)*%
X317023750Y-106555000D03*
%TD*%
%TO.P,D60,1,K*%
%TO.N,Row 3*%
X276542500Y-119380000D03*
%TO.P,D60,2,A*%
%TO.N,Net-(D60-A)*%
X276542500Y-116080000D03*
%TD*%
%TO.P,D43,1,K*%
%TO.N,Row 2*%
X252730000Y-100330000D03*
%TO.P,D43,2,A*%
%TO.N,Net-(D43-A)*%
X252730000Y-97030000D03*
%TD*%
%TO.P,D81,1,K*%
%TO.N,Row 5*%
X55086250Y-157480000D03*
%TO.P,D81,2,A*%
%TO.N,Net-(D81-A)*%
X55086250Y-154180000D03*
%TD*%
%TO.P,D28,1,K*%
%TO.N,Row 1*%
X262255000Y-81280000D03*
%TO.P,D28,2,A*%
%TO.N,Net-(D28-A)*%
X262255000Y-77980000D03*
%TD*%
%TO.P,D104,1,K*%
%TO.N,Row 1*%
X462280000Y-109855000D03*
%TO.P,D104,2,A*%
%TO.N,Net-(D104-A)*%
X462280000Y-106555000D03*
%TD*%
%TO.P,D25,1,K*%
%TO.N,Row 1*%
X205105000Y-81280000D03*
%TO.P,D25,2,A*%
%TO.N,Net-(D25-A)*%
X205105000Y-77980000D03*
%TD*%
%TO.P,D47,1,K*%
%TO.N,Row 2*%
X362267500Y-81280000D03*
%TO.P,D47,2,A*%
%TO.N,Net-(D47-A)*%
X362267500Y-77980000D03*
%TD*%
%TO.P,D101,1,K*%
%TO.N,Row 1*%
X405130000Y-100330000D03*
%TO.P,D101,2,A*%
%TO.N,Net-(D101-A)*%
X405130000Y-97030000D03*
%TD*%
%TO.P,D30,1,K*%
%TO.N,Row 1*%
X317023750Y-81280000D03*
%TO.P,D30,2,A*%
%TO.N,Net-(D30-A)*%
X317023750Y-77980000D03*
%TD*%
%TO.P,D26,1,K*%
%TO.N,Row 1*%
X224155000Y-81280000D03*
%TO.P,D26,2,A*%
%TO.N,Net-(D26-A)*%
X224155000Y-77980000D03*
%TD*%
%TO.P,D10,1,K*%
%TO.N,Row 0*%
X262255000Y-52705000D03*
%TO.P,D10,2,A*%
%TO.N,Net-(D10-A)*%
X262255000Y-49405000D03*
%TD*%
%TO.P,D74,1,K*%
%TO.N,Row 4*%
X228917500Y-138430000D03*
%TO.P,D74,2,A*%
%TO.N,Net-(D74-A)*%
X228917500Y-135130000D03*
%TD*%
%TO.P,D14,1,K*%
%TO.N,Row 0*%
X343217500Y-52705000D03*
%TO.P,D14,2,A*%
%TO.N,Net-(D14-A)*%
X343217500Y-49405000D03*
%TD*%
%TO.P,D99,1,K*%
%TO.N,Row 0*%
X443230000Y-81280000D03*
%TO.P,D99,2,A*%
%TO.N,Net-(D99-A)*%
X443230000Y-77980000D03*
%TD*%
%TO.P,D35,1,K*%
%TO.N,Row 2*%
X100330000Y-100330000D03*
%TO.P,D35,2,A*%
%TO.N,Net-(D35-A)*%
X100330000Y-97030000D03*
%TD*%
%TO.P,D56,1,K*%
%TO.N,Row 3*%
X200342500Y-119380000D03*
%TO.P,D56,2,A*%
%TO.N,Net-(D56-A)*%
X200342500Y-116080000D03*
%TD*%
%TO.P,D27,1,K*%
%TO.N,Row 1*%
X243205000Y-81280000D03*
%TO.P,D27,2,A*%
%TO.N,Net-(D27-A)*%
X243205000Y-77980000D03*
%TD*%
%TO.P,D9,1,K*%
%TO.N,Row 0*%
X233680000Y-52705000D03*
%TO.P,D9,2,A*%
%TO.N,Net-(D9-A)*%
X233680000Y-49405000D03*
%TD*%
%TO.P,D86,1,K*%
%TO.N,Row 6*%
X269398750Y-157480000D03*
%TO.P,D86,2,A*%
%TO.N,Net-(D86-A)*%
X269398750Y-154180000D03*
%TD*%
%TO.P,D11,1,K*%
%TO.N,Row 0*%
X281305000Y-52705000D03*
%TO.P,D11,2,A*%
%TO.N,Net-(D11-A)*%
X281305000Y-49405000D03*
%TD*%
%TO.P,D31,1,K*%
%TO.N,Row 5*%
X295783000Y-120298750D03*
%TO.P,D31,2,A*%
%TO.N,Net-(D31-A)*%
X295783000Y-116998750D03*
%TD*%
%TO.P,D33,1,K*%
%TO.N,Row 2*%
X57467500Y-100330000D03*
%TO.P,D33,2,A*%
%TO.N,Net-(D33-A)*%
X57467500Y-97030000D03*
%TD*%
%TO.P,D103,1,K*%
%TO.N,Row 1*%
X442087000Y-100330000D03*
%TO.P,D103,2,A*%
%TO.N,Net-(D103-A)*%
X442087000Y-97030000D03*
%TD*%
%TO.P,D78,1,K*%
%TO.N,Row 4*%
X362155000Y-137455000D03*
%TO.P,D78,2,A*%
%TO.N,Net-(D78-A)*%
X362155000Y-134155000D03*
%TD*%
%TO.P,D45,1,K*%
%TO.N,Row 2*%
X290830000Y-100330000D03*
%TO.P,D45,2,A*%
%TO.N,Net-(D45-A)*%
X290830000Y-97030000D03*
%TD*%
%TO.P,D92,1,K*%
%TO.N,Row 4*%
X421798750Y-157480000D03*
%TO.P,D92,2,A*%
%TO.N,Net-(D92-A)*%
X421798750Y-154180000D03*
%TD*%
%TO.P,D66,1,K*%
%TO.N,Row 4*%
X76517500Y-138430000D03*
%TO.P,D66,2,A*%
%TO.N,Net-(D66-A)*%
X76517500Y-135130000D03*
%TD*%
%TO.P,D51,1,K*%
%TO.N,Row 3*%
X105092500Y-119380000D03*
%TO.P,D51,2,A*%
%TO.N,Net-(D51-A)*%
X105092500Y-116080000D03*
%TD*%
%TO.P,D105,1,K*%
%TO.N,Row 2*%
X405130000Y-119380000D03*
%TO.P,D105,2,A*%
%TO.N,Net-(D105-A)*%
X405130000Y-116080000D03*
%TD*%
%TO.P,D53,1,K*%
%TO.N,Row 3*%
X143192500Y-119380000D03*
%TO.P,D53,2,A*%
%TO.N,Net-(D53-A)*%
X143192500Y-116080000D03*
%TD*%
%TO.P,D63,1,K*%
%TO.N,Row 3*%
X362267500Y-100330000D03*
%TO.P,D63,2,A*%
%TO.N,Net-(D63-A)*%
X362267500Y-97030000D03*
%TD*%
%TO.P,D91,1,K*%
%TO.N,Row 5*%
X381317500Y-157480000D03*
%TO.P,D91,2,A*%
%TO.N,Net-(D91-A)*%
X381317500Y-154180000D03*
%TD*%
%TO.P,D52,1,K*%
%TO.N,Row 3*%
X124142500Y-119380000D03*
%TO.P,D52,2,A*%
%TO.N,Net-(D52-A)*%
X124142500Y-116080000D03*
%TD*%
%TO.P,D19,1,K*%
%TO.N,Row 1*%
X90805000Y-81280000D03*
%TO.P,D19,2,A*%
%TO.N,Net-(D19-A)*%
X90805000Y-77980000D03*
%TD*%
%TO.P,D94,1,K*%
%TO.N,Row 4*%
X462280000Y-147955000D03*
%TO.P,D94,2,A*%
%TO.N,Net-(D94-A)*%
X462280000Y-144655000D03*
%TD*%
%TO.P,D12,1,K*%
%TO.N,Row 0*%
X300355000Y-52705000D03*
%TO.P,D12,2,A*%
%TO.N,Net-(D12-A)*%
X300355000Y-49405000D03*
%TD*%
%TO.P,D75,1,K*%
%TO.N,Row 4*%
X247967500Y-138430000D03*
%TO.P,D75,2,A*%
%TO.N,Net-(D75-A)*%
X247967500Y-135130000D03*
%TD*%
%TO.P,D90,1,K*%
%TO.N,Row 6*%
X362267500Y-157480000D03*
%TO.P,D90,2,A*%
%TO.N,Net-(D90-A)*%
X362267500Y-154180000D03*
%TD*%
%TO.P,D39,1,K*%
%TO.N,Row 2*%
X176530000Y-100330000D03*
%TO.P,D39,2,A*%
%TO.N,Net-(D39-A)*%
X176530000Y-97030000D03*
%TD*%
%TO.P,D59,1,K*%
%TO.N,Row 3*%
X257492500Y-119380000D03*
%TO.P,D59,2,A*%
%TO.N,Net-(D59-A)*%
X257492500Y-116080000D03*
%TD*%
%TO.P,D83,1,K*%
%TO.N,Row 5*%
X102711250Y-157480000D03*
%TO.P,D83,2,A*%
%TO.N,Net-(D83-A)*%
X102711250Y-154180000D03*
%TD*%
%TO.P,D89,1,K*%
%TO.N,Row 6*%
X343217500Y-157480000D03*
%TO.P,D89,2,A*%
%TO.N,Net-(D89-A)*%
X343217500Y-154180000D03*
%TD*%
%TO.P,D18,1,K*%
%TO.N,Row 1*%
X71755000Y-81280000D03*
%TO.P,D18,2,A*%
%TO.N,Net-(D18-A)*%
X71755000Y-77980000D03*
%TD*%
%TO.P,D13,1,K*%
%TO.N,Row 0*%
X319405000Y-52705000D03*
%TO.P,D13,2,A*%
%TO.N,Net-(D13-A)*%
X319405000Y-49405000D03*
%TD*%
%TO.P,D108,1,K*%
%TO.N,Row 3*%
X405130000Y-138430000D03*
%TO.P,D108,2,A*%
%TO.N,Net-(D108-A)*%
X405130000Y-135130000D03*
%TD*%
%TO.P,D55,1,K*%
%TO.N,Row 3*%
X181292500Y-119380000D03*
%TO.P,D55,2,A*%
%TO.N,Net-(D55-A)*%
X181292500Y-116080000D03*
%TD*%
%TO.P,D54,1,K*%
%TO.N,Row 3*%
X162242500Y-119380000D03*
%TO.P,D54,2,A*%
%TO.N,Net-(D54-A)*%
X162242500Y-116080000D03*
%TD*%
%TO.P,D24,1,K*%
%TO.N,Row 1*%
X186055000Y-81280000D03*
%TO.P,D24,2,A*%
%TO.N,Net-(D24-A)*%
X186055000Y-77980000D03*
%TD*%
%TO.P,D93,1,K*%
%TO.N,Row 4*%
X443230000Y-157480000D03*
%TO.P,D93,2,A*%
%TO.N,Net-(D93-A)*%
X443230000Y-154180000D03*
%TD*%
%TO.P,D34,1,K*%
%TO.N,Row 2*%
X81280000Y-100330000D03*
%TO.P,D34,2,A*%
%TO.N,Net-(D34-A)*%
X81280000Y-97030000D03*
%TD*%
%TO.P,D40,1,K*%
%TO.N,Row 2*%
X195580000Y-100330000D03*
%TO.P,D40,2,A*%
%TO.N,Net-(D40-A)*%
X195580000Y-97030000D03*
%TD*%
%TO.P,D49,1,K*%
%TO.N,Row 3*%
X62230000Y-119380000D03*
%TO.P,D49,2,A*%
%TO.N,Net-(D49-A)*%
X62230000Y-116080000D03*
%TD*%
%TO.P,D68,1,K*%
%TO.N,Row 4*%
X114617500Y-138430000D03*
%TO.P,D68,2,A*%
%TO.N,Net-(D68-A)*%
X114617500Y-135130000D03*
%TD*%
%TO.P,D16,1,K*%
%TO.N,Row 0*%
X381317500Y-52705000D03*
%TO.P,D16,2,A*%
%TO.N,Net-(D16-A)*%
X381317500Y-49405000D03*
%TD*%
%TO.P,D41,1,K*%
%TO.N,Row 2*%
X214630000Y-100330000D03*
%TO.P,D41,2,A*%
%TO.N,Net-(D41-A)*%
X214630000Y-97030000D03*
%TD*%
%TO.P,D8,1,K*%
%TO.N,Row 0*%
X214630000Y-52705000D03*
%TO.P,D8,2,A*%
%TO.N,Net-(D8-A)*%
X214630000Y-49405000D03*
%TD*%
%TO.P,D87,1,K*%
%TO.N,Row 6*%
X293211250Y-157480000D03*
%TO.P,D87,2,A*%
%TO.N,Net-(D87-A)*%
X293211250Y-154180000D03*
%TD*%
%TO.P,D110,1,K*%
%TO.N,Row 3*%
X441579000Y-138429000D03*
%TO.P,D110,2,A*%
%TO.N,Net-(D110-A)*%
X441579000Y-135129000D03*
%TD*%
%TO.P,D84,1,K*%
%TO.N,Row 5*%
X174148750Y-157480000D03*
%TO.P,D84,2,A*%
%TO.N,Net-(D84-A)*%
X174148750Y-154180000D03*
%TD*%
%TO.P,D50,1,K*%
%TO.N,Row 3*%
X86042500Y-119380000D03*
%TO.P,D50,2,A*%
%TO.N,Net-(D50-A)*%
X86042500Y-116080000D03*
%TD*%
D19*
%TO.P,U2,1,Y0*%
%TO.N,BLOC NUM LED*%
X432435000Y-31115000D03*
%TO.P,U2,2,Y2*%
%TO.N,BLOC SCORR LED*%
X432435000Y-32385000D03*
%TO.P,U2,3,Y*%
%TO.N,Net-(U2-X)*%
X432435000Y-33655000D03*
%TO.P,U2,4,Y3*%
%TO.N,MIC ON LED*%
X432435000Y-34925000D03*
%TO.P,U2,5,Y1*%
%TO.N,CAPS LOCK LED*%
X432435000Y-36195000D03*
%TO.P,U2,6,Inh*%
%TO.N,LED_OUTPUT*%
X432435000Y-37465000D03*
%TO.P,U2,7,VEE*%
%TO.N,LOW*%
X432435000Y-38735000D03*
%TO.P,U2,8,VSS*%
X432435000Y-40005000D03*
%TO.P,U2,9,B*%
%TO.N,LED_MUX 2*%
X425935000Y-40005000D03*
%TO.P,U2,10,A*%
%TO.N,LED_MUX 1*%
X425935000Y-38735000D03*
%TO.P,U2,11,X3*%
%TO.N,HIGH*%
X425935000Y-37465000D03*
%TO.P,U2,12,X0*%
X425935000Y-36195000D03*
%TO.P,U2,13,X*%
%TO.N,Net-(U2-X)*%
X425935000Y-34925000D03*
%TO.P,U2,14,X1*%
%TO.N,HIGH*%
X425935000Y-33655000D03*
%TO.P,U2,15,X2*%
X425935000Y-32385000D03*
%TO.P,U2,16,VDD*%
X425935000Y-31115000D03*
%TD*%
D18*
%TO.P,D71,1,K*%
%TO.N,Row 4*%
X171767500Y-138430000D03*
%TO.P,D71,2,A*%
%TO.N,Net-(D71-A)*%
X171767500Y-135130000D03*
%TD*%
%TO.P,D17,1,K*%
%TO.N,Row 1*%
X52705000Y-81280000D03*
%TO.P,D17,2,A*%
%TO.N,Net-(D17-A)*%
X52705000Y-77980000D03*
%TD*%
%TO.P,D1,1,K*%
%TO.N,Row 0*%
X52705000Y-52705000D03*
%TO.P,D1,2,A*%
%TO.N,Net-(D1-A)*%
X52705000Y-49405000D03*
%TD*%
%TO.P,D88,1,K*%
%TO.N,Row 6*%
X317023750Y-157480000D03*
%TO.P,D88,2,A*%
%TO.N,Net-(D88-A)*%
X317023750Y-154180000D03*
%TD*%
%TO.P,D100,1,K*%
%TO.N,Row 0*%
X462280000Y-81280000D03*
%TO.P,D100,2,A*%
%TO.N,Net-(D100-A)*%
X462280000Y-77980000D03*
%TD*%
%TO.P,D58,1,K*%
%TO.N,Row 3*%
X238442500Y-119380000D03*
%TO.P,D58,2,A*%
%TO.N,Net-(D58-A)*%
X238442500Y-116080000D03*
%TD*%
%TO.P,D20,1,K*%
%TO.N,Row 1*%
X109855000Y-81280000D03*
%TO.P,D20,2,A*%
%TO.N,Net-(D20-A)*%
X109855000Y-77980000D03*
%TD*%
%TO.P,D36,1,K*%
%TO.N,Row 2*%
X119380000Y-100330000D03*
%TO.P,D36,2,A*%
%TO.N,Net-(D36-A)*%
X119380000Y-97030000D03*
%TD*%
%TO.P,D97,1,K*%
%TO.N,Row 0*%
X405130000Y-81280000D03*
%TO.P,D97,2,A*%
%TO.N,Net-(D97-A)*%
X405130000Y-77980000D03*
%TD*%
%TO.P,D107,1,K*%
%TO.N,Row 2*%
X443230000Y-119380000D03*
%TO.P,D107,2,A*%
%TO.N,Net-(D107-A)*%
X443230000Y-116080000D03*
%TD*%
%TO.P,D7,1,K*%
%TO.N,Row 0*%
X195580000Y-52705000D03*
%TO.P,D7,2,A*%
%TO.N,Net-(D7-A)*%
X195580000Y-49405000D03*
%TD*%
%TO.P,D85,1,K*%
%TO.N,Row 6*%
X245586250Y-157480000D03*
%TO.P,D85,2,A*%
%TO.N,Net-(D85-A)*%
X245586250Y-154180000D03*
%TD*%
%TO.P,D3,1,K*%
%TO.N,Row 0*%
X109855000Y-52705000D03*
%TO.P,D3,2,A*%
%TO.N,Net-(D3-A)*%
X109855000Y-49405000D03*
%TD*%
%TO.P,D42,1,K*%
%TO.N,Row 2*%
X233680000Y-100330000D03*
%TO.P,D42,2,A*%
%TO.N,Net-(D42-A)*%
X233680000Y-97030000D03*
%TD*%
%TO.P,D98,1,K*%
%TO.N,Row 0*%
X424180000Y-81280000D03*
%TO.P,D98,2,A*%
%TO.N,Net-(D98-A)*%
X424180000Y-77980000D03*
%TD*%
%TO.P,D82,1,K*%
%TO.N,Row 5*%
X78898750Y-157480000D03*
%TO.P,D82,2,A*%
%TO.N,Net-(D82-A)*%
X78898750Y-154180000D03*
%TD*%
D20*
%TO.P,U5,1,COM*%
%TO.N,LOW*%
X402636250Y-40957500D03*
%TO.P,U5,2,I7*%
%TO.N,Col 8*%
X402636250Y-42227500D03*
%TO.P,U5,3,I6*%
%TO.N,Col 9*%
X402636250Y-43497500D03*
%TO.P,U5,4,I5*%
%TO.N,Col 10*%
X402636250Y-44767500D03*
%TO.P,U5,5,I4*%
%TO.N,Col 11*%
X402636250Y-46037500D03*
%TO.P,U5,6,I3*%
%TO.N,Col 12*%
X402636250Y-47307500D03*
%TO.P,U5,7,I2*%
%TO.N,Col 13*%
X402636250Y-48577500D03*
%TO.P,U5,8,I1*%
%TO.N,Col 14*%
X402636250Y-49847500D03*
%TO.P,U5,9,I0*%
%TO.N,Col 15*%
X402636250Y-51117500D03*
%TO.P,U5,10,S0*%
%TO.N,NANO_MUX 1*%
X402636250Y-52387500D03*
%TO.P,U5,11,S1*%
%TO.N,NANO_MUX 2*%
X402636250Y-53657500D03*
%TO.P,U5,12,GND*%
%TO.N,LOW*%
X402636250Y-54927500D03*
%TO.P,U5,13,S3*%
%TO.N,NANO_MUX 4*%
X393336250Y-54927500D03*
%TO.P,U5,14,S2*%
%TO.N,NANO_MUX 3*%
X393336250Y-53657500D03*
%TO.P,U5,15,~{E}*%
%TO.N,LOW*%
X393336250Y-52387500D03*
%TO.P,U5,16,I15*%
%TO.N,Col 7*%
X393336250Y-51117500D03*
%TO.P,U5,17,I14*%
%TO.N,Col 6*%
X393336250Y-49847500D03*
%TO.P,U5,18,I13*%
%TO.N,Col 5*%
X393336250Y-48577500D03*
%TO.P,U5,19,I12*%
%TO.N,Col 4*%
X393336250Y-47307500D03*
%TO.P,U5,20,I11*%
%TO.N,Col 3*%
X393336250Y-46037500D03*
%TO.P,U5,21,I10*%
%TO.N,Col 2*%
X393336250Y-44767500D03*
%TO.P,U5,22,I9*%
%TO.N,Col 1*%
X393336250Y-43497500D03*
%TO.P,U5,23,I8*%
%TO.N,Col 0*%
X393336250Y-42227500D03*
%TO.P,U5,24,VCC*%
%TO.N,HIGH*%
X393336250Y-40957500D03*
%TD*%
D18*
%TO.P,D62,1,K*%
%TO.N,Row 3*%
X343217500Y-100330000D03*
%TO.P,D62,2,A*%
%TO.N,Net-(D62-A)*%
X343217500Y-97030000D03*
%TD*%
%TO.P,D23,1,K*%
%TO.N,Row 1*%
X167005000Y-81280000D03*
%TO.P,D23,2,A*%
%TO.N,Net-(D23-A)*%
X167005000Y-77980000D03*
%TD*%
%TO.P,D57,1,K*%
%TO.N,Row 3*%
X219392500Y-119380000D03*
%TO.P,D57,2,A*%
%TO.N,Net-(D57-A)*%
X219392500Y-116080000D03*
%TD*%
%TO.P,D109,1,K*%
%TO.N,Row 3*%
X424180000Y-138430000D03*
%TO.P,D109,2,A*%
%TO.N,Net-(D109-A)*%
X424180000Y-135130000D03*
%TD*%
%TO.P,D21,1,K*%
%TO.N,Row 1*%
X128905000Y-81280000D03*
%TO.P,D21,2,A*%
%TO.N,Net-(D21-A)*%
X128905000Y-77980000D03*
%TD*%
%TO.P,D65,1,K*%
%TO.N,Row 4*%
X57467500Y-138430000D03*
%TO.P,D65,2,A*%
%TO.N,Net-(D65-A)*%
X57467500Y-135130000D03*
%TD*%
%TO.P,D72,1,K*%
%TO.N,Row 4*%
X190817500Y-138430000D03*
%TO.P,D72,2,A*%
%TO.N,Net-(D72-A)*%
X190817500Y-135130000D03*
%TD*%
%TO.P,D106,1,K*%
%TO.N,Row 2*%
X424180000Y-119380000D03*
%TO.P,D106,2,A*%
%TO.N,Net-(D106-A)*%
X424180000Y-116080000D03*
%TD*%
%TO.P,D37,1,K*%
%TO.N,Row 2*%
X138430000Y-100330000D03*
%TO.P,D37,2,A*%
%TO.N,Net-(D37-A)*%
X138430000Y-97030000D03*
%TD*%
%TO.P,D44,1,K*%
%TO.N,Row 2*%
X271780000Y-100330000D03*
%TO.P,D44,2,A*%
%TO.N,Net-(D44-A)*%
X271780000Y-97030000D03*
%TD*%
%TO.P,D38,1,K*%
%TO.N,Row 2*%
X157480000Y-100330000D03*
%TO.P,D38,2,A*%
%TO.N,Net-(D38-A)*%
X157480000Y-97030000D03*
%TD*%
%TO.P,D48,1,K*%
%TO.N,Row 2*%
X381317500Y-81280000D03*
%TO.P,D48,2,A*%
%TO.N,Net-(D48-A)*%
X381317500Y-77980000D03*
%TD*%
%TO.P,D15,1,K*%
%TO.N,Row 0*%
X362267500Y-52705000D03*
%TO.P,D15,2,A*%
%TO.N,Net-(D15-A)*%
X362267500Y-49405000D03*
%TD*%
%TO.P,D29,1,K*%
%TO.N,Row 1*%
X281305000Y-81280000D03*
%TO.P,D29,2,A*%
%TO.N,Net-(D29-A)*%
X281305000Y-77980000D03*
%TD*%
%TO.P,D6,1,K*%
%TO.N,Row 0*%
X176530000Y-52705000D03*
%TO.P,D6,2,A*%
%TO.N,Net-(D6-A)*%
X176530000Y-49405000D03*
%TD*%
%TO.P,D102,1,K*%
%TO.N,Row 1*%
X424180000Y-100330000D03*
%TO.P,D102,2,A*%
%TO.N,Net-(D102-A)*%
X424180000Y-97030000D03*
%TD*%
%TO.P,D4,1,K*%
%TO.N,Row 0*%
X128905000Y-52705000D03*
%TO.P,D4,2,A*%
%TO.N,Net-(D4-A)*%
X128905000Y-49405000D03*
%TD*%
%TO.P,D76,1,K*%
%TO.N,Row 4*%
X267017500Y-138430000D03*
%TO.P,D76,2,A*%
%TO.N,Net-(D76-A)*%
X267017500Y-135130000D03*
%TD*%
%TO.P,D64,1,K*%
%TO.N,Row 3*%
X381317500Y-100330000D03*
%TO.P,D64,2,A*%
%TO.N,Net-(D64-A)*%
X381317500Y-97030000D03*
%TD*%
%TO.P,D2,1,K*%
%TO.N,Row 0*%
X90805000Y-52705000D03*
%TO.P,D2,2,A*%
%TO.N,Net-(D2-A)*%
X90805000Y-49405000D03*
%TD*%
%TO.P,D5,1,K*%
%TO.N,Row 0*%
X147955000Y-52705000D03*
%TO.P,D5,2,A*%
%TO.N,Net-(D5-A)*%
X147955000Y-49405000D03*
%TD*%
%TO.P,D77,1,K*%
%TO.N,Row 4*%
X309880000Y-138430000D03*
%TO.P,D77,2,A*%
%TO.N,Net-(D77-A)*%
X309880000Y-135130000D03*
%TD*%
%TO.P,D70,1,K*%
%TO.N,Row 4*%
X152717500Y-138430000D03*
%TO.P,D70,2,A*%
%TO.N,Net-(D70-A)*%
X152717500Y-135130000D03*
%TD*%
D21*
%TO.N,LOW*%
X431927000Y-43815000D03*
X429155000Y-29155000D03*
%TO.N,Col 7*%
X182583617Y-57583617D03*
%TO.N,Col 6*%
X164155000Y-56880000D03*
%TO.N,Col 5*%
X145533617Y-56533617D03*
%TO.N,Col 4*%
X128780000Y-56005000D03*
%TO.N,Col 3*%
X110117500Y-55617500D03*
%TO.N,Col 2*%
X91617500Y-55067500D03*
%TO.N,Col 1*%
X62058617Y-54380000D03*
%TO.N,Col 0*%
X39370000Y-53655000D03*
%TO.N,NANO_MUX 2*%
X407155000Y-58155000D03*
X415155000Y-58155000D03*
%TO.N,NANO_MUX 1*%
X414155000Y-59155000D03*
X406155000Y-59155000D03*
%TO.N,NANO_MUX 4*%
X387138522Y-56144772D03*
%TO.N,NANO_MUX 3*%
X389248872Y-54034422D03*
%TO.N,Col 15*%
X365155000Y-62155000D03*
%TO.N,Col 14*%
X348932500Y-61155000D03*
%TO.N,Col 13*%
X329882500Y-60155000D03*
%TO.N,Col 12*%
X295155000Y-59680000D03*
%TO.N,Col 11*%
X276337500Y-59337500D03*
%TO.N,Col 10*%
X258155000Y-58780000D03*
%TO.N,Col 9*%
X239530000Y-58330000D03*
%TO.N,Col 8*%
X201358617Y-57880000D03*
%TO.N,HIGH*%
X399155000Y-34155000D03*
X404655000Y-34155000D03*
%TO.N,Row 0*%
X383698750Y-52705000D03*
X383698750Y-64611250D03*
%TO.N,Net-(D1-A)*%
X52705000Y-40798750D03*
%TO.N,Net-(D2-A)*%
X90805000Y-40798750D03*
%TO.N,Net-(D3-A)*%
X109855000Y-40798750D03*
%TO.N,Net-(D4-A)*%
X128905000Y-40798750D03*
%TO.N,Net-(D5-A)*%
X147955000Y-40798750D03*
%TO.N,Net-(D6-A)*%
X176530000Y-40798750D03*
%TO.N,Net-(D7-A)*%
X195580000Y-40798750D03*
%TO.N,Net-(D8-A)*%
X214630000Y-40798750D03*
%TO.N,Net-(D9-A)*%
X233680000Y-40798750D03*
%TO.N,Net-(D10-A)*%
X262255000Y-40798750D03*
%TO.N,Net-(D11-A)*%
X281305000Y-40798750D03*
%TO.N,Net-(D12-A)*%
X300355000Y-40798750D03*
%TO.N,Net-(D13-A)*%
X319405000Y-40798750D03*
%TO.N,Net-(D14-A)*%
X343217500Y-40798750D03*
%TO.N,Net-(D15-A)*%
X362267500Y-40798750D03*
%TO.N,Net-(D16-A)*%
X381317500Y-40798750D03*
%TO.N,Net-(D17-A)*%
X52705000Y-69373750D03*
%TO.N,Net-(D18-A)*%
X71755000Y-69373750D03*
%TO.N,Net-(D19-A)*%
X90805000Y-69373750D03*
%TO.N,Net-(D20-A)*%
X109855000Y-69373750D03*
%TO.N,Net-(D21-A)*%
X128905000Y-69373750D03*
%TO.N,Net-(D22-A)*%
X147955000Y-69373750D03*
%TO.N,Net-(D23-A)*%
X167005000Y-69373750D03*
%TO.N,Net-(D24-A)*%
X186055000Y-69373750D03*
%TO.N,Net-(D25-A)*%
X205105000Y-69373750D03*
%TO.N,Net-(D26-A)*%
X224155000Y-69373750D03*
%TO.N,Net-(D27-A)*%
X243205000Y-69373750D03*
%TO.N,Net-(D28-A)*%
X262255000Y-69373750D03*
%TO.N,Net-(D29-A)*%
X281305000Y-69373750D03*
%TO.N,Net-(D30-A)*%
X317023750Y-69373750D03*
%TO.N,Net-(D33-A)*%
X57467500Y-88423750D03*
%TO.N,Net-(D34-A)*%
X81280000Y-88423750D03*
%TO.N,Net-(D35-A)*%
X100330000Y-88423750D03*
%TO.N,Net-(D36-A)*%
X119380000Y-88423750D03*
%TO.N,Net-(D37-A)*%
X138430000Y-88423750D03*
%TO.N,Net-(D38-A)*%
X157480000Y-88423750D03*
%TO.N,Net-(D39-A)*%
X176530000Y-88423750D03*
%TO.N,Net-(D40-A)*%
X195580000Y-88423750D03*
%TO.N,Net-(D41-A)*%
X214630000Y-88423750D03*
%TO.N,Net-(D42-A)*%
X233680000Y-88423750D03*
%TO.N,Net-(D43-A)*%
X252730000Y-88423750D03*
%TO.N,Net-(D44-A)*%
X271780000Y-88423750D03*
%TO.N,Net-(D45-A)*%
X290830000Y-88423750D03*
%TO.N,Net-(D46-A)*%
X343217500Y-69373750D03*
%TO.N,Net-(D47-A)*%
X362267500Y-69373750D03*
%TO.N,Net-(D48-A)*%
X381317500Y-69373750D03*
%TO.N,Net-(D49-A)*%
X62230000Y-107473750D03*
%TO.N,Net-(D50-A)*%
X86042500Y-107473750D03*
%TO.N,Net-(D51-A)*%
X105092500Y-107473750D03*
%TO.N,Net-(D52-A)*%
X124142500Y-107473750D03*
%TO.N,Net-(D53-A)*%
X143192500Y-107473750D03*
%TO.N,Net-(D54-A)*%
X162242500Y-107473750D03*
%TO.N,Net-(D55-A)*%
X181292500Y-107473750D03*
%TO.N,Net-(D56-A)*%
X200342500Y-107473750D03*
%TO.N,Net-(D57-A)*%
X219392500Y-107473750D03*
%TO.N,Net-(D58-A)*%
X238442500Y-107473750D03*
%TO.N,Net-(D59-A)*%
X257492500Y-107473750D03*
%TO.N,Net-(D60-A)*%
X276542500Y-107473750D03*
%TO.N,Net-(D61-A)*%
X317023750Y-97948750D03*
%TO.N,Net-(D62-A)*%
X343217500Y-88423750D03*
%TO.N,Net-(D63-A)*%
X362267500Y-88423750D03*
%TO.N,Net-(D64-A)*%
X381317500Y-88423750D03*
%TO.N,Net-(D65-A)*%
X57467500Y-126523750D03*
%TO.N,Net-(D66-A)*%
X76517500Y-126523750D03*
%TO.N,Net-(D67-A)*%
X95567500Y-126523750D03*
%TO.N,Net-(D68-A)*%
X114617500Y-126523750D03*
%TO.N,Net-(D69-A)*%
X133667500Y-126523750D03*
%TO.N,Net-(D70-A)*%
X152717500Y-126523750D03*
%TO.N,Net-(D71-A)*%
X171767500Y-126523750D03*
%TO.N,Net-(D72-A)*%
X190817500Y-126619000D03*
%TO.N,Net-(D73-A)*%
X209867500Y-126523750D03*
%TO.N,Net-(D74-A)*%
X228917500Y-126523750D03*
%TO.N,Net-(D75-A)*%
X247967500Y-126523750D03*
%TO.N,Net-(D76-A)*%
X267017500Y-126523750D03*
%TO.N,Net-(D77-A)*%
X309880000Y-126523750D03*
%TO.N,Net-(D78-A)*%
X362267500Y-126523750D03*
%TO.N,Row 5*%
X317023750Y-121761250D03*
X321786250Y-152717500D03*
%TO.N,Net-(D81-A)*%
X55086250Y-145573750D03*
%TO.N,Net-(D82-A)*%
X78898750Y-145573750D03*
%TO.N,Net-(D83-A)*%
X102711250Y-145573750D03*
%TO.N,Net-(D84-A)*%
X174148750Y-145573750D03*
%TO.N,Net-(D85-A)*%
X245586250Y-145573750D03*
%TO.N,Net-(D86-A)*%
X269398750Y-145573750D03*
%TO.N,Net-(D87-A)*%
X293211250Y-145573750D03*
%TO.N,Net-(D88-A)*%
X317023750Y-145573750D03*
%TO.N,Net-(D89-A)*%
X343217500Y-145573750D03*
%TO.N,Net-(D90-A)*%
X362267500Y-145573750D03*
%TO.N,Net-(D91-A)*%
X381317500Y-145573750D03*
%TO.N,Net-(D92-A)*%
X421798750Y-145573750D03*
%TO.N,Net-(D93-A)*%
X443230000Y-145573750D03*
%TO.N,Net-(D94-A)*%
X462280000Y-136048750D03*
%TO.N,Net-(D97-A)*%
X405130000Y-69373750D03*
%TO.N,Net-(D98-A)*%
X424180000Y-69373750D03*
%TO.N,Net-(D99-A)*%
X443230000Y-69373750D03*
%TO.N,Net-(D100-A)*%
X462280000Y-69373750D03*
%TO.N,LED_OUTPUT*%
X426847000Y-43815000D03*
%TO.N,Net-(D110-A)*%
X443230000Y-126523750D03*
%TO.N,Net-(D108-A)*%
X405130000Y-126523750D03*
%TO.N,Net-(D104-A)*%
X462280000Y-97948750D03*
%TO.N,Net-(D103-A)*%
X443230000Y-88423750D03*
%TO.N,Net-(D102-A)*%
X424180000Y-88423750D03*
%TO.N,Net-(D101-A)*%
X405130000Y-88423750D03*
%TO.N,Net-(D109-A)*%
X424180000Y-126523750D03*
%TO.N,Net-(D107-A)*%
X443230000Y-107473750D03*
%TO.N,Net-(D106-A)*%
X424180000Y-107473750D03*
%TO.N,Net-(D105-A)*%
X405130000Y-107473750D03*
%TO.N,Net-(D31-A)*%
X295592500Y-107473750D03*
%TO.N,LED_MUX 1*%
X426847000Y-42155000D03*
X426847000Y-42155000D03*
%TO.N,LED_MUX 2*%
X427655000Y-37655000D03*
%TD*%
D22*
%TO.N,Net-(D72-A)*%
X190817500Y-126619000D02*
X190817500Y-135130000D01*
%TO.N,Row 3*%
X444119000Y-134595900D02*
X440284900Y-138430000D01*
X444119000Y-122691000D02*
X444119000Y-134595900D01*
X446980000Y-119830000D02*
X444119000Y-122691000D01*
X440284900Y-138430000D02*
X424180000Y-138430000D01*
X454325448Y-119830000D02*
X446980000Y-119830000D01*
X465155000Y-109000448D02*
X454325448Y-119830000D01*
X459164188Y-61255000D02*
X465155000Y-67245812D01*
X409935000Y-42435000D02*
X411655000Y-44155000D01*
X411655000Y-44155000D02*
X411655000Y-60745812D01*
X411655000Y-60745812D02*
X412164188Y-61255000D01*
X412164188Y-61255000D02*
X459164188Y-61255000D01*
X406915000Y-42435000D02*
X409935000Y-42435000D01*
X465155000Y-67245812D02*
X465155000Y-109000448D01*
%TO.N,LED_OUTPUT*%
X429895000Y-38227000D02*
X430657000Y-37465000D01*
X429895000Y-42799000D02*
X429895000Y-38227000D01*
X430657000Y-37465000D02*
X432435000Y-37465000D01*
X428879000Y-43815000D02*
X429895000Y-42799000D01*
X426847000Y-43815000D02*
X428879000Y-43815000D01*
%TO.N,LOW*%
X431927000Y-40513000D02*
X432435000Y-40005000D01*
X431927000Y-43815000D02*
X431927000Y-40513000D01*
%TO.N,LED_MUX 1*%
X424307000Y-41057000D02*
X424307000Y-38735000D01*
X425405000Y-42155000D02*
X424307000Y-41057000D01*
X426847000Y-42155000D02*
X425405000Y-42155000D01*
X424307000Y-38735000D02*
X425935000Y-38735000D01*
%TO.N,HIGH*%
X423315000Y-31115000D02*
X425935000Y-31115000D01*
X422155000Y-32275000D02*
X423315000Y-31115000D01*
X424307000Y-33655000D02*
X425935000Y-33655000D01*
X424307000Y-36195000D02*
X424307000Y-33655000D01*
X425935000Y-36195000D02*
X424307000Y-36195000D01*
X425935000Y-31115000D02*
X425935000Y-32385000D01*
%TO.N,Net-(U2-X)*%
X427609000Y-34925000D02*
X428879000Y-33655000D01*
X425935000Y-34925000D02*
X427609000Y-34925000D01*
X428879000Y-33655000D02*
X432435000Y-33655000D01*
%TO.N,LOW*%
X394686250Y-52062499D02*
X394686250Y-40623750D01*
X402636250Y-40957500D02*
X402636250Y-36553750D01*
X406915000Y-29735000D02*
X412067646Y-29735000D01*
X403986250Y-41282501D02*
X403986250Y-54602499D01*
X449707000Y-31364000D02*
X443617000Y-31364000D01*
X394686250Y-40623750D02*
X402636250Y-32673750D01*
X412067646Y-29735000D02*
X414607646Y-27195000D01*
X443611000Y-31358000D02*
X437515000Y-31358000D01*
X455803000Y-31364000D02*
X449707000Y-31364000D01*
X406915000Y-29735000D02*
X405575000Y-29735000D01*
X393336250Y-52387500D02*
X394361249Y-52387500D01*
X443617000Y-31364000D02*
X443611000Y-31358000D01*
X402636250Y-32673750D02*
X404975000Y-30335000D01*
X432435000Y-38735000D02*
X432435000Y-40005000D01*
X394361249Y-52387500D02*
X394686250Y-52062499D01*
X403661249Y-54927500D02*
X402636250Y-54927500D01*
X405575000Y-29735000D02*
X404975000Y-30335000D01*
X427195000Y-27195000D02*
X429155000Y-29155000D01*
X422155000Y-27195000D02*
X427195000Y-27195000D01*
X403661249Y-40957500D02*
X403986250Y-41282501D01*
X402636250Y-40957500D02*
X403661249Y-40957500D01*
X403986250Y-54602499D02*
X403661249Y-54927500D01*
X414607646Y-27195000D02*
X422155000Y-27195000D01*
X435312000Y-29155000D02*
X437515000Y-31358000D01*
X429155000Y-29155000D02*
X435312000Y-29155000D01*
X402636250Y-32673750D02*
X402636250Y-36553750D01*
X406915000Y-29735000D02*
X406915000Y-32275000D01*
%TO.N,Col 7*%
X393336250Y-51117500D02*
X389230000Y-51117500D01*
X385102988Y-57155000D02*
X369411250Y-57155000D01*
X389230000Y-51117500D02*
X389230000Y-53027988D01*
X389230000Y-53027988D02*
X385102988Y-57155000D01*
X372155000Y-57155000D02*
X183012234Y-57155000D01*
X183012234Y-57155000D02*
X182583617Y-57583617D01*
%TO.N,Col 6*%
X164380000Y-56655000D02*
X164155000Y-56880000D01*
X388780000Y-52841592D02*
X384966592Y-56655000D01*
X384966592Y-56655000D02*
X164380000Y-56655000D01*
X388780000Y-49847500D02*
X388780000Y-52841592D01*
X393336250Y-49847500D02*
X388780000Y-49847500D01*
%TO.N,Col 5*%
X393336250Y-48577500D02*
X388330000Y-48577500D01*
X145912234Y-56155000D02*
X145533617Y-56533617D01*
X388330000Y-52569676D02*
X384744676Y-56155000D01*
X384744676Y-56155000D02*
X145912234Y-56155000D01*
X388330000Y-48577500D02*
X388330000Y-52569676D01*
%TO.N,Col 4*%
X384608280Y-55655000D02*
X129130000Y-55655000D01*
X129130000Y-55655000D02*
X128780000Y-56005000D01*
X387880000Y-52383280D02*
X384608280Y-55655000D01*
X393336250Y-47307500D02*
X387880000Y-47307500D01*
X387880000Y-47307500D02*
X387880000Y-52383280D01*
%TO.N,Col 3*%
X393336250Y-46037500D02*
X387430000Y-46037500D01*
X384471884Y-55155000D02*
X110580000Y-55155000D01*
X110580000Y-55155000D02*
X110117500Y-55617500D01*
X387430000Y-46037500D02*
X387430000Y-52196884D01*
X387430000Y-52196884D02*
X384471884Y-55155000D01*
%TO.N,Col 2*%
X393336250Y-44767500D02*
X386999092Y-44767500D01*
X92030000Y-54655000D02*
X91617500Y-55067500D01*
X386980000Y-52010488D02*
X384335488Y-54655000D01*
X384335488Y-54655000D02*
X92030000Y-54655000D01*
X386980000Y-44786592D02*
X386980000Y-52010488D01*
X386999092Y-44767500D02*
X386980000Y-44786592D01*
%TO.N,Col 1*%
X62283617Y-54155000D02*
X62058617Y-54380000D01*
X386530000Y-43497500D02*
X386530000Y-51824092D01*
X386530000Y-51824092D02*
X384199092Y-54155000D01*
X384199092Y-54155000D02*
X62283617Y-54155000D01*
X393336250Y-43497500D02*
X386530000Y-43497500D01*
%TO.N,Col 0*%
X387032500Y-42227500D02*
X386080000Y-43180000D01*
X386080000Y-51637696D02*
X384062696Y-53655000D01*
X393336250Y-42227500D02*
X387032500Y-42227500D01*
X386080000Y-43180000D02*
X386080000Y-51637696D01*
X384062696Y-53655000D02*
X39370000Y-53655000D01*
%TO.N,NANO_MUX 2*%
X415155000Y-40155000D02*
X417955000Y-37355000D01*
X400791396Y-58155000D02*
X399205000Y-56568604D01*
X399205000Y-53657500D02*
X402636250Y-53657500D01*
X417955000Y-37355000D02*
X422155000Y-37355000D01*
X399205000Y-56568604D02*
X399205000Y-53657500D01*
X415155000Y-58155000D02*
X415155000Y-40155000D01*
X407155000Y-58155000D02*
X400791396Y-58155000D01*
%TO.N,NANO_MUX 1*%
X406155000Y-59155000D02*
X401155000Y-59155000D01*
X398755000Y-52387500D02*
X402636250Y-52387500D01*
X414155000Y-38655000D02*
X417995000Y-34815000D01*
X401155000Y-59155000D02*
X398755000Y-56755000D01*
X417995000Y-34815000D02*
X422155000Y-34815000D01*
X398755000Y-56755000D02*
X398755000Y-52387500D01*
X414155000Y-59155000D02*
X414155000Y-38655000D01*
%TO.N,NANO_MUX 4*%
X388355794Y-54927500D02*
X387138522Y-56144772D01*
X393336250Y-54927500D02*
X388355794Y-54927500D01*
%TO.N,NANO_MUX 3*%
X389625794Y-53657500D02*
X389248872Y-54034422D01*
X393336250Y-53657500D02*
X389625794Y-53657500D01*
%TO.N,Col 15*%
X398305000Y-57005000D02*
X398305000Y-51117500D01*
X394555000Y-60755000D02*
X398305000Y-57005000D01*
X398305000Y-51117500D02*
X402636250Y-51117500D01*
X365155000Y-62155000D02*
X366555000Y-60755000D01*
X366555000Y-60755000D02*
X394555000Y-60755000D01*
%TO.N,Col 14*%
X349782500Y-60305000D02*
X394368604Y-60305000D01*
X394368604Y-60305000D02*
X397855000Y-56818604D01*
X348932500Y-61155000D02*
X349782500Y-60305000D01*
X397855000Y-56818604D02*
X397855000Y-49847500D01*
X397855000Y-49847500D02*
X402636250Y-49847500D01*
%TO.N,Col 13*%
X397405000Y-56632208D02*
X397405000Y-48577500D01*
X329882500Y-60155000D02*
X330182500Y-59855000D01*
X330182500Y-59855000D02*
X394182208Y-59855000D01*
X394182208Y-59855000D02*
X397405000Y-56632208D01*
X397405000Y-48577500D02*
X402636250Y-48577500D01*
%TO.N,Col 12*%
X295430000Y-59405000D02*
X393995812Y-59405000D01*
X396955000Y-56445812D02*
X396955000Y-47307500D01*
X396955000Y-47307500D02*
X402636250Y-47307500D01*
X393995812Y-59405000D02*
X396955000Y-56445812D01*
X295155000Y-59680000D02*
X295430000Y-59405000D01*
%TO.N,Col 11*%
X396505000Y-56259416D02*
X393809416Y-58955000D01*
X396505000Y-46037500D02*
X396505000Y-56259416D01*
X402636250Y-46037500D02*
X396505000Y-46037500D01*
X276720000Y-58955000D02*
X276337500Y-59337500D01*
X393809416Y-58955000D02*
X276720000Y-58955000D01*
%TO.N,Col 10*%
X393623020Y-58505000D02*
X396055000Y-56073020D01*
X396055000Y-56073020D02*
X396055000Y-44767500D01*
X258430000Y-58505000D02*
X393623020Y-58505000D01*
X396055000Y-44767500D02*
X402636250Y-44767500D01*
X258155000Y-58780000D02*
X258430000Y-58505000D01*
%TO.N,Col 9*%
X239530000Y-58330000D02*
X239805000Y-58055000D01*
X393436624Y-58055000D02*
X395605000Y-55886624D01*
X239805000Y-58055000D02*
X393436624Y-58055000D01*
X395605000Y-43497500D02*
X402636250Y-43497500D01*
X395605000Y-55886624D02*
X395605000Y-43497500D01*
%TO.N,Col 8*%
X393250228Y-57605000D02*
X201633617Y-57605000D01*
X201633617Y-57605000D02*
X201358617Y-57880000D01*
X395155000Y-55700228D02*
X393250228Y-57605000D01*
X395155000Y-43155000D02*
X395155000Y-55700228D01*
X396082500Y-42227500D02*
X395155000Y-43155000D01*
X402636250Y-42227500D02*
X396082500Y-42227500D01*
%TO.N,HIGH*%
X399155000Y-34155000D02*
X398155000Y-34155000D01*
X422155000Y-32275000D02*
X420953700Y-33476300D01*
X405333700Y-33476300D02*
X404655000Y-34155000D01*
X398155000Y-34155000D02*
X393336250Y-38973750D01*
X420953700Y-33476300D02*
X405333700Y-33476300D01*
X393336250Y-38973750D02*
X393336250Y-40957500D01*
%TO.N,Row 0*%
X319405000Y-52705000D02*
X343217500Y-52705000D01*
X387280000Y-81280000D02*
X405130000Y-81280000D01*
X128905000Y-52705000D02*
X109855000Y-52705000D01*
X443230000Y-81280000D02*
X462280000Y-81280000D01*
X381317500Y-52705000D02*
X383698750Y-52705000D01*
X128905000Y-52705000D02*
X147955000Y-52705000D01*
X424180000Y-81280000D02*
X443230000Y-81280000D01*
X411655000Y-62655000D02*
X458655000Y-62655000D01*
X195580000Y-52705000D02*
X214630000Y-52705000D01*
X383698750Y-64611250D02*
X383698750Y-77698750D01*
X405130000Y-81280000D02*
X424180000Y-81280000D01*
X90805000Y-52705000D02*
X109855000Y-52705000D01*
X383698750Y-77698750D02*
X387280000Y-81280000D01*
X233680000Y-52705000D02*
X262255000Y-52705000D01*
X410155000Y-61155000D02*
X411655000Y-62655000D01*
X362267500Y-52705000D02*
X381317500Y-52705000D01*
X262255000Y-52705000D02*
X281305000Y-52705000D01*
X147955000Y-52705000D02*
X176530000Y-52705000D01*
X281305000Y-52705000D02*
X300355000Y-52705000D01*
X406915000Y-50055000D02*
X409555000Y-50055000D01*
X458655000Y-62655000D02*
X463655000Y-67655000D01*
X343217500Y-52705000D02*
X362267500Y-52705000D01*
X409555000Y-50055000D02*
X410155000Y-50655000D01*
X300355000Y-52705000D02*
X319405000Y-52705000D01*
X176530000Y-52705000D02*
X195580000Y-52705000D01*
X463655000Y-79905000D02*
X462280000Y-81280000D01*
X214630000Y-52705000D02*
X233680000Y-52705000D01*
X463655000Y-67655000D02*
X463655000Y-79905000D01*
X410155000Y-50655000D02*
X410155000Y-61155000D01*
X52705000Y-52705000D02*
X90805000Y-52705000D01*
%TO.N,Net-(D1-A)*%
X52705000Y-40798750D02*
X52705000Y-49405000D01*
%TO.N,Net-(D2-A)*%
X90805000Y-40798750D02*
X90805000Y-49405000D01*
%TO.N,Net-(D3-A)*%
X109855000Y-49405000D02*
X109855000Y-40798750D01*
%TO.N,Net-(D4-A)*%
X128905000Y-40798750D02*
X128905000Y-49405000D01*
%TO.N,Net-(D5-A)*%
X147955000Y-40798750D02*
X147955000Y-49405000D01*
%TO.N,Net-(D6-A)*%
X176530000Y-40798750D02*
X176530000Y-49405000D01*
%TO.N,Net-(D7-A)*%
X195580000Y-40798750D02*
X195580000Y-49405000D01*
%TO.N,Net-(D8-A)*%
X214630000Y-40798750D02*
X214630000Y-49405000D01*
%TO.N,Net-(D9-A)*%
X233680000Y-40798750D02*
X233680000Y-49405000D01*
%TO.N,Net-(D10-A)*%
X262255000Y-40798750D02*
X262255000Y-49405000D01*
%TO.N,Net-(D11-A)*%
X281305000Y-40798750D02*
X281305000Y-49405000D01*
%TO.N,Net-(D12-A)*%
X300355000Y-40798750D02*
X300355000Y-49405000D01*
%TO.N,Net-(D13-A)*%
X319405000Y-40798750D02*
X319405000Y-49405000D01*
%TO.N,Net-(D14-A)*%
X343217500Y-40798750D02*
X343217500Y-49405000D01*
%TO.N,Net-(D15-A)*%
X362267500Y-49405000D02*
X362267500Y-40798750D01*
%TO.N,Net-(D16-A)*%
X381317500Y-40798750D02*
X381317500Y-49405000D01*
%TO.N,Row 1*%
X382923750Y-80505000D02*
X317798750Y-80505000D01*
X443230000Y-100330000D02*
X452755000Y-109855000D01*
X109855000Y-81280000D02*
X128905000Y-81280000D01*
X452755000Y-109855000D02*
X462280000Y-109855000D01*
X281305000Y-81280000D02*
X317023750Y-81280000D01*
X186055000Y-81280000D02*
X205105000Y-81280000D01*
X147955000Y-81280000D02*
X167005000Y-81280000D01*
X224155000Y-81280000D02*
X243205000Y-81280000D01*
X167005000Y-81280000D02*
X186055000Y-81280000D01*
X409515000Y-47515000D02*
X406915000Y-47515000D01*
X410655000Y-48655000D02*
X409515000Y-47515000D01*
X90805000Y-81280000D02*
X109855000Y-81280000D01*
X128905000Y-81280000D02*
X147955000Y-81280000D01*
X205105000Y-81280000D02*
X224155000Y-81280000D01*
X405130000Y-100330000D02*
X388830000Y-100330000D01*
X424180000Y-100330000D02*
X443230000Y-100330000D01*
X386080000Y-83661250D02*
X382923750Y-80505000D01*
X317798750Y-80505000D02*
X317023750Y-81280000D01*
X464155000Y-107980000D02*
X464155000Y-67518604D01*
X71755000Y-81280000D02*
X90805000Y-81280000D01*
X458791396Y-62155000D02*
X411791396Y-62155000D01*
X388830000Y-100330000D02*
X386080000Y-97580000D01*
X405130000Y-100330000D02*
X424180000Y-100330000D01*
X386080000Y-97580000D02*
X386080000Y-83661250D01*
X464155000Y-67518604D02*
X458791396Y-62155000D01*
X262255000Y-81280000D02*
X281305000Y-81280000D01*
X52705000Y-81280000D02*
X71755000Y-81280000D01*
X243205000Y-81280000D02*
X262255000Y-81280000D01*
X462280000Y-109855000D02*
X464155000Y-107980000D01*
X411791396Y-62155000D02*
X410655000Y-61018604D01*
X410655000Y-61018604D02*
X410655000Y-48655000D01*
%TO.N,Net-(D17-A)*%
X52705000Y-69373750D02*
X52705000Y-77980000D01*
%TO.N,Net-(D18-A)*%
X71755000Y-69373750D02*
X71755000Y-77980000D01*
%TO.N,Net-(D19-A)*%
X90805000Y-69373750D02*
X90805000Y-77980000D01*
%TO.N,Net-(D20-A)*%
X109855000Y-69373750D02*
X109855000Y-77980000D01*
%TO.N,Net-(D21-A)*%
X128905000Y-69373750D02*
X128905000Y-77980000D01*
%TO.N,Net-(D22-A)*%
X147955000Y-69373750D02*
X147955000Y-77980000D01*
%TO.N,Net-(D23-A)*%
X167005000Y-69373750D02*
X167005000Y-77980000D01*
%TO.N,Net-(D24-A)*%
X186055000Y-69373750D02*
X186055000Y-77980000D01*
%TO.N,Net-(D25-A)*%
X205105000Y-69373750D02*
X205105000Y-77980000D01*
%TO.N,Net-(D26-A)*%
X224155000Y-69373750D02*
X224155000Y-77980000D01*
%TO.N,Net-(D27-A)*%
X243205000Y-69373750D02*
X243205000Y-77980000D01*
%TO.N,Net-(D28-A)*%
X262255000Y-69373750D02*
X262255000Y-77980000D01*
%TO.N,Net-(D29-A)*%
X281305000Y-69373750D02*
X281305000Y-77980000D01*
%TO.N,Net-(D30-A)*%
X317023750Y-69373750D02*
X317023750Y-77980000D01*
%TO.N,Row 2*%
X362267500Y-81280000D02*
X381317500Y-81280000D01*
X383698750Y-83661250D02*
X383698750Y-114617500D01*
X214630000Y-100330000D02*
X233680000Y-100330000D01*
X233680000Y-100330000D02*
X252730000Y-100330000D01*
X383698750Y-114617500D02*
X388461250Y-119380000D01*
X57467500Y-100330000D02*
X81280000Y-100330000D01*
X343217500Y-81280000D02*
X362267500Y-81280000D01*
X81280000Y-100330000D02*
X100330000Y-100330000D01*
X119380000Y-100330000D02*
X138430000Y-100330000D01*
X195580000Y-100330000D02*
X214630000Y-100330000D01*
X424180000Y-119380000D02*
X443230000Y-119380000D01*
X458977792Y-61705000D02*
X411977792Y-61705000D01*
X300355000Y-83661250D02*
X323148750Y-83661250D01*
X443230000Y-119380000D02*
X454139052Y-119380000D01*
X411155000Y-46655000D02*
X409475000Y-44975000D01*
X323148750Y-83661250D02*
X325530000Y-81280000D01*
X464655000Y-67382208D02*
X458977792Y-61705000D01*
X195580000Y-100330000D02*
X176530000Y-100330000D01*
X252730000Y-100330000D02*
X271780000Y-100330000D01*
X405130000Y-119380000D02*
X424180000Y-119380000D01*
X325530000Y-81280000D02*
X343217500Y-81280000D01*
X388461250Y-119380000D02*
X405130000Y-119380000D01*
X100330000Y-100330000D02*
X119380000Y-100330000D01*
X138430000Y-100330000D02*
X157480000Y-100330000D01*
X411155000Y-60882208D02*
X411155000Y-46655000D01*
X409475000Y-44975000D02*
X406915000Y-44975000D01*
X271780000Y-100330000D02*
X290830000Y-100330000D01*
X300355000Y-83661250D02*
X295592500Y-88423750D01*
X295592500Y-88423750D02*
X295592500Y-95567500D01*
X454139052Y-119380000D02*
X464655000Y-108864052D01*
X411977792Y-61705000D02*
X411155000Y-60882208D01*
X290830000Y-100330000D02*
X295592500Y-95567500D01*
X464655000Y-108864052D02*
X464655000Y-67382208D01*
X157480000Y-100330000D02*
X176530000Y-100330000D01*
X381317500Y-81280000D02*
X383698750Y-83661250D01*
%TO.N,Net-(D33-A)*%
X57467500Y-88423750D02*
X57467500Y-97030000D01*
%TO.N,Net-(D34-A)*%
X81280000Y-88423750D02*
X81280000Y-97030000D01*
%TO.N,Net-(D35-A)*%
X100330000Y-88423750D02*
X100330000Y-97030000D01*
%TO.N,Net-(D36-A)*%
X119380000Y-88423750D02*
X119380000Y-97030000D01*
%TO.N,Net-(D37-A)*%
X138430000Y-88423750D02*
X138430000Y-97030000D01*
%TO.N,Net-(D38-A)*%
X157480000Y-88423750D02*
X157480000Y-97030000D01*
%TO.N,Net-(D39-A)*%
X176530000Y-88423750D02*
X176530000Y-97030000D01*
%TO.N,Net-(D40-A)*%
X195580000Y-88423750D02*
X195580000Y-97030000D01*
%TO.N,Net-(D41-A)*%
X214630000Y-88423750D02*
X214630000Y-97030000D01*
%TO.N,Net-(D42-A)*%
X233680000Y-88423750D02*
X233680000Y-97030000D01*
%TO.N,Net-(D43-A)*%
X252730000Y-88423750D02*
X252730000Y-97030000D01*
%TO.N,Net-(D44-A)*%
X271780000Y-88423750D02*
X271780000Y-97030000D01*
%TO.N,Net-(D45-A)*%
X290830000Y-88423750D02*
X290830000Y-97030000D01*
%TO.N,Net-(D46-A)*%
X343217500Y-69373750D02*
X343217500Y-77980000D01*
%TO.N,Net-(D47-A)*%
X362267500Y-69373750D02*
X362267500Y-77980000D01*
%TO.N,Net-(D48-A)*%
X381317500Y-69373750D02*
X381317500Y-77980000D01*
%TO.N,Row 3*%
X362267500Y-100330000D02*
X381317500Y-100330000D01*
X317023750Y-109855000D02*
X326548750Y-100330000D01*
X381317500Y-131817500D02*
X381317500Y-100330000D01*
X62230000Y-119380000D02*
X86042500Y-119380000D01*
X219392500Y-119380000D02*
X238442500Y-119380000D01*
X276542500Y-119380000D02*
X312261250Y-119380000D01*
X181292500Y-119380000D02*
X162242500Y-119380000D01*
X86042500Y-119380000D02*
X105092500Y-119380000D01*
X387930000Y-138430000D02*
X381317500Y-131817500D01*
X124142500Y-119380000D02*
X143192500Y-119380000D01*
X405130000Y-138430000D02*
X424180000Y-138430000D01*
X143192500Y-119380000D02*
X181292500Y-119380000D01*
X238442500Y-119380000D02*
X257492500Y-119380000D01*
X312261250Y-119380000D02*
X317023750Y-114617500D01*
X200342500Y-119380000D02*
X219392500Y-119380000D01*
X105092500Y-119380000D02*
X124142500Y-119380000D01*
X317023750Y-114617500D02*
X317023750Y-109855000D01*
X326548750Y-100330000D02*
X343217500Y-100330000D01*
X405130000Y-138430000D02*
X387930000Y-138430000D01*
X181292500Y-119380000D02*
X200342500Y-119380000D01*
X343217500Y-100330000D02*
X362267500Y-100330000D01*
X276542500Y-119380000D02*
X257492500Y-119380000D01*
%TO.N,Net-(D49-A)*%
X62230000Y-107473750D02*
X62230000Y-116080000D01*
%TO.N,Net-(D50-A)*%
X86042500Y-107473750D02*
X86042500Y-116080000D01*
%TO.N,Net-(D51-A)*%
X105092500Y-107473750D02*
X105092500Y-116080000D01*
%TO.N,Net-(D52-A)*%
X124142500Y-107473750D02*
X124142500Y-116080000D01*
%TO.N,Net-(D53-A)*%
X143192500Y-107473750D02*
X143192500Y-116080000D01*
%TO.N,Net-(D54-A)*%
X162242500Y-107473750D02*
X162242500Y-116080000D01*
%TO.N,Net-(D55-A)*%
X181292500Y-107473750D02*
X181292500Y-116080000D01*
%TO.N,Net-(D56-A)*%
X200342500Y-107473750D02*
X200342500Y-116080000D01*
%TO.N,Net-(D57-A)*%
X219392500Y-107473750D02*
X219392500Y-116080000D01*
%TO.N,Net-(D58-A)*%
X238442500Y-107473750D02*
X238442500Y-116080000D01*
%TO.N,Net-(D59-A)*%
X257492500Y-107473750D02*
X257492500Y-116080000D01*
%TO.N,Net-(D60-A)*%
X276542500Y-107473750D02*
X276542500Y-116080000D01*
%TO.N,Net-(D61-A)*%
X317023750Y-97948750D02*
X317023750Y-106555000D01*
%TO.N,Net-(D62-A)*%
X343217500Y-88423750D02*
X343217500Y-97030000D01*
%TO.N,Net-(D63-A)*%
X362267500Y-88423750D02*
X362267500Y-97030000D01*
%TO.N,Net-(D64-A)*%
X381317500Y-88423750D02*
X381317500Y-97030000D01*
%TO.N,Row 4*%
X442905000Y-157805000D02*
X443230000Y-157480000D01*
X267017500Y-138430000D02*
X309880000Y-138430000D01*
X421473750Y-157805000D02*
X421798750Y-157480000D01*
X463655000Y-147180000D02*
X463655000Y-111136844D01*
X421798750Y-157480000D02*
X422123750Y-157805000D01*
X462280000Y-147955000D02*
X462880000Y-147955000D01*
X412105000Y-60559416D02*
X412105000Y-42105000D01*
X443555000Y-157805000D02*
X455868604Y-157805000D01*
X459350584Y-60805000D02*
X412350584Y-60805000D01*
X76517500Y-138430000D02*
X95567500Y-138430000D01*
X462880000Y-147955000D02*
X463655000Y-147180000D01*
X455868604Y-157805000D02*
X462280000Y-151393604D01*
X393233448Y-157805000D02*
X421473750Y-157805000D01*
X190817500Y-138430000D02*
X209867500Y-138430000D01*
X465605000Y-67059416D02*
X459350584Y-60805000D01*
X309880000Y-138430000D02*
X310655000Y-137655000D01*
X114617500Y-138430000D02*
X133667500Y-138430000D01*
X412350584Y-60805000D02*
X412105000Y-60559416D01*
X171767500Y-138430000D02*
X190817500Y-138430000D01*
X386155000Y-150726552D02*
X393233448Y-157805000D01*
X57467500Y-138430000D02*
X76517500Y-138430000D01*
X247967500Y-138430000D02*
X267017500Y-138430000D01*
X152717500Y-138430000D02*
X171767500Y-138430000D01*
X443230000Y-157480000D02*
X443555000Y-157805000D01*
X95567500Y-138430000D02*
X114617500Y-138430000D01*
X465605000Y-109186844D02*
X465605000Y-67059416D01*
X462280000Y-151393604D02*
X462280000Y-147955000D01*
X310655000Y-137655000D02*
X380655000Y-137655000D01*
X380655000Y-137655000D02*
X386155000Y-143155000D01*
X463655000Y-111136844D02*
X465605000Y-109186844D01*
X133667500Y-138430000D02*
X152717500Y-138430000D01*
X422123750Y-157805000D02*
X442905000Y-157805000D01*
X412105000Y-42105000D02*
X409895000Y-39895000D01*
X386155000Y-143155000D02*
X386155000Y-150726552D01*
X409895000Y-39895000D02*
X406915000Y-39895000D01*
X209867500Y-138430000D02*
X228917500Y-138430000D01*
X228917500Y-138430000D02*
X247967500Y-138430000D01*
%TO.N,Net-(D65-A)*%
X57467500Y-126523750D02*
X57467500Y-135130000D01*
%TO.N,Net-(D66-A)*%
X76517500Y-126523750D02*
X76517500Y-135130000D01*
%TO.N,Net-(D67-A)*%
X95567500Y-126523750D02*
X95567500Y-135130000D01*
%TO.N,Net-(D68-A)*%
X114617500Y-126523750D02*
X114617500Y-135130000D01*
%TO.N,Net-(D69-A)*%
X133667500Y-126523750D02*
X133667500Y-135130000D01*
%TO.N,Net-(D70-A)*%
X152717500Y-126523750D02*
X152717500Y-135130000D01*
%TO.N,Net-(D71-A)*%
X171767500Y-126523750D02*
X171767500Y-135130000D01*
%TO.N,Net-(D73-A)*%
X209867500Y-126523750D02*
X209867500Y-135130000D01*
%TO.N,Net-(D74-A)*%
X228917500Y-126523750D02*
X228917500Y-135130000D01*
%TO.N,Net-(D75-A)*%
X247967500Y-126523750D02*
X247967500Y-135130000D01*
%TO.N,Net-(D76-A)*%
X267017500Y-126523750D02*
X267017500Y-135130000D01*
%TO.N,Net-(D77-A)*%
X309880000Y-126523750D02*
X309880000Y-135130000D01*
%TO.N,Net-(D78-A)*%
X362267500Y-126523750D02*
X362267500Y-134042500D01*
X362267500Y-134042500D02*
X362155000Y-134155000D01*
%TO.N,Row 5*%
X321786250Y-152717500D02*
X321786250Y-156705000D01*
X464155000Y-150155000D02*
X464155000Y-111273240D01*
X466055000Y-66873020D02*
X459536980Y-60355000D01*
X456055000Y-158255000D02*
X464155000Y-150155000D01*
X459536980Y-60355000D02*
X412555000Y-60355000D01*
X409778198Y-37355000D02*
X406915000Y-37355000D01*
X412555000Y-60355000D02*
X412555000Y-40131802D01*
X380542500Y-156705000D02*
X381317500Y-157480000D01*
X321786250Y-156705000D02*
X380542500Y-156705000D01*
X315561250Y-120298750D02*
X317023750Y-121761250D01*
X174923750Y-156705000D02*
X321786250Y-156705000D01*
X466055000Y-109373240D02*
X466055000Y-66873020D01*
X174148750Y-157480000D02*
X102711250Y-157480000D01*
X464155000Y-111273240D02*
X466055000Y-109373240D01*
X382092500Y-158255000D02*
X456055000Y-158255000D01*
X55086250Y-157480000D02*
X78898750Y-157480000D01*
X381317500Y-157480000D02*
X382092500Y-158255000D01*
X295783000Y-120298750D02*
X315561250Y-120298750D01*
X174148750Y-157480000D02*
X174923750Y-156705000D01*
X412555000Y-40131802D02*
X409778198Y-37355000D01*
X102711250Y-157480000D02*
X78898750Y-157480000D01*
%TO.N,Net-(D81-A)*%
X55086250Y-145573750D02*
X55086250Y-154180000D01*
%TO.N,Net-(D82-A)*%
X78898750Y-145573750D02*
X78898750Y-154180000D01*
%TO.N,Net-(D83-A)*%
X102711250Y-145573750D02*
X102711250Y-154180000D01*
%TO.N,Net-(D84-A)*%
X174148750Y-145573750D02*
X174148750Y-154180000D01*
%TO.N,Net-(D85-A)*%
X245586250Y-145573750D02*
X245586250Y-154180000D01*
%TO.N,Net-(D86-A)*%
X269398750Y-145573750D02*
X269398750Y-154180000D01*
%TO.N,Net-(D87-A)*%
X293211250Y-145573750D02*
X293211250Y-154180000D01*
%TO.N,Net-(D88-A)*%
X317023750Y-145573750D02*
X317023750Y-154180000D01*
%TO.N,Net-(D89-A)*%
X343217500Y-145573750D02*
X343217500Y-154180000D01*
%TO.N,Net-(D90-A)*%
X362267500Y-145573750D02*
X362267500Y-154180000D01*
%TO.N,Net-(D91-A)*%
X381317500Y-145573750D02*
X381317500Y-154180000D01*
%TO.N,Net-(D92-A)*%
X421798750Y-145573750D02*
X421798750Y-154180000D01*
%TO.N,Net-(D93-A)*%
X443230000Y-145573750D02*
X443230000Y-154180000D01*
%TO.N,Net-(D94-A)*%
X462280000Y-136048750D02*
X462280000Y-144655000D01*
%TO.N,Row 6*%
X409815000Y-34815000D02*
X406915000Y-34815000D01*
X459723376Y-59905000D02*
X413005000Y-59905000D01*
X344155000Y-157480000D02*
X343217500Y-157480000D01*
X413005000Y-59905000D02*
X413005000Y-38005000D01*
X363492500Y-158705000D02*
X456241396Y-158705000D01*
X293211250Y-157480000D02*
X344155000Y-157480000D01*
X456241396Y-158705000D02*
X464655000Y-150291396D01*
X362267500Y-157480000D02*
X344155000Y-157480000D01*
X464655000Y-150291396D02*
X464655000Y-111409636D01*
X245586250Y-157480000D02*
X269398750Y-157480000D01*
X466505000Y-109559636D02*
X466505000Y-66686624D01*
X413005000Y-38005000D02*
X409815000Y-34815000D01*
X362267500Y-157480000D02*
X363492500Y-158705000D01*
X466505000Y-66686624D02*
X459723376Y-59905000D01*
X464655000Y-111409636D02*
X466505000Y-109559636D01*
X269398750Y-157480000D02*
X293211250Y-157480000D01*
%TO.N,Net-(D97-A)*%
X405130000Y-69373750D02*
X405130000Y-77980000D01*
%TO.N,Net-(D98-A)*%
X424180000Y-69373750D02*
X424180000Y-77980000D01*
%TO.N,Net-(D99-A)*%
X443230000Y-69373750D02*
X443230000Y-77980000D01*
%TO.N,Net-(D100-A)*%
X462280000Y-69373750D02*
X462280000Y-77980000D01*
%TO.N,HIGH*%
X425935000Y-36195000D02*
X425935000Y-37465000D01*
X425895000Y-36155000D02*
X425935000Y-36195000D01*
X425935000Y-33655000D02*
X425935000Y-32385000D01*
%TO.N,Net-(D110-A)*%
X441579000Y-135129000D02*
X443103000Y-133605000D01*
X443103000Y-126650750D02*
X443230000Y-126523750D01*
X443103000Y-133605000D02*
X443103000Y-126650750D01*
%TO.N,Net-(D108-A)*%
X405130000Y-126523750D02*
X405130000Y-135130000D01*
%TO.N,Net-(D104-A)*%
X462280000Y-97948750D02*
X462280000Y-106555000D01*
%TO.N,Net-(D103-A)*%
X443230000Y-95887000D02*
X442087000Y-97030000D01*
X443230000Y-88423750D02*
X443230000Y-95887000D01*
%TO.N,Net-(D102-A)*%
X424180000Y-88423750D02*
X424180000Y-97030000D01*
%TO.N,Net-(D101-A)*%
X405130000Y-88423750D02*
X405130000Y-97030000D01*
%TO.N,Net-(D109-A)*%
X424180000Y-126523750D02*
X424180000Y-135130000D01*
%TO.N,Net-(D107-A)*%
X443230000Y-107473750D02*
X443230000Y-116080000D01*
%TO.N,Net-(D106-A)*%
X424180000Y-107473750D02*
X424180000Y-116080000D01*
%TO.N,Net-(D105-A)*%
X405130000Y-107473750D02*
X405130000Y-116080000D01*
%TO.N,Net-(D31-A)*%
X295592500Y-116808250D02*
X295783000Y-116998750D01*
X295592500Y-107473750D02*
X295592500Y-116808250D01*
%TO.N,Net-(D32-A)*%
X449707000Y-40413000D02*
X445465000Y-44655000D01*
X449707000Y-33904000D02*
X449707000Y-40413000D01*
%TO.N,Net-(D79-A)*%
X441155000Y-48345000D02*
X441155000Y-35655000D01*
X445465000Y-52655000D02*
X441155000Y-48345000D01*
X439398000Y-33898000D02*
X437515000Y-33898000D01*
X441155000Y-35655000D02*
X439398000Y-33898000D01*
%TO.N,Net-(D80-A)*%
X445465000Y-35752000D02*
X443611000Y-33898000D01*
X445465000Y-40655000D02*
X445465000Y-35752000D01*
%TO.N,Net-(D95-A)*%
X455803000Y-33904000D02*
X455803000Y-38317000D01*
X455803000Y-38317000D02*
X445465000Y-48655000D01*
%TO.N,LED_MUX 1*%
X406915000Y-24655000D02*
X407440000Y-24130000D01*
%TO.N,LED_MUX 2*%
X427655000Y-39084999D02*
X426734999Y-40005000D01*
X426734999Y-40005000D02*
X425935000Y-40005000D01*
X427655000Y-37655000D02*
X427655000Y-39084999D01*
%TO.N,BLOC NUM LED*%
X437270000Y-40080000D02*
X437845000Y-40655000D01*
X432435000Y-31115000D02*
X432640908Y-31115000D01*
X432640908Y-31115000D02*
X437270000Y-35744092D01*
X437270000Y-35744092D02*
X437270000Y-40080000D01*
%TO.N,BLOC SCORR LED*%
X433234999Y-32385000D02*
X436820000Y-35970001D01*
X432435000Y-32385000D02*
X433234999Y-32385000D01*
X436820000Y-43630000D02*
X437845000Y-44655000D01*
X436820000Y-35970001D02*
X436820000Y-43630000D01*
%TO.N,CAPS LOCK LED*%
X434695000Y-36195000D02*
X435920000Y-37420000D01*
X435920000Y-50730000D02*
X437845000Y-52655000D01*
X432435000Y-36195000D02*
X434695000Y-36195000D01*
X435920000Y-37420000D02*
X435920000Y-50730000D01*
%TO.N,MIC ON LED*%
X436370000Y-47180000D02*
X437845000Y-48655000D01*
X436370000Y-37233604D02*
X436370000Y-47180000D01*
X432435000Y-34925000D02*
X434061396Y-34925000D01*
X434061396Y-34925000D02*
X436370000Y-37233604D01*
%TD*%
M02*
