%TF.GenerationSoftware,KiCad,Pcbnew,7.0.10*%
%TF.CreationDate,2024-04-02T12:10:37+02:00*%
%TF.ProjectId,k3yb.it,6b337962-2e69-4742-9e6b-696361645f70,v1.0b*%
%TF.SameCoordinates,Original*%
%TF.FileFunction,Paste,Bot*%
%TF.FilePolarity,Positive*%
%FSLAX46Y46*%
G04 Gerber Fmt 4.6, Leading zero omitted, Abs format (unit mm)*
G04 Created by KiCad (PCBNEW 7.0.10) date 2024-04-02 12:10:37*
%MOMM*%
%LPD*%
G01*
G04 APERTURE LIST*
G04 Aperture macros list*
%AMRoundRect*
0 Rectangle with rounded corners*
0 $1 Rounding radius*
0 $2 $3 $4 $5 $6 $7 $8 $9 X,Y pos of 4 corners*
0 Add a 4 corners polygon primitive as box body*
4,1,4,$2,$3,$4,$5,$6,$7,$8,$9,$2,$3,0*
0 Add four circle primitives for the rounded corners*
1,1,$1+$1,$2,$3*
1,1,$1+$1,$4,$5*
1,1,$1+$1,$6,$7*
1,1,$1+$1,$8,$9*
0 Add four rect primitives between the rounded corners*
20,1,$1+$1,$2,$3,$4,$5,0*
20,1,$1+$1,$4,$5,$6,$7,0*
20,1,$1+$1,$6,$7,$8,$9,0*
20,1,$1+$1,$8,$9,$2,$3,0*%
G04 Aperture macros list end*
%ADD10RoundRect,0.250000X-1.025000X-1.000000X1.025000X-1.000000X1.025000X1.000000X-1.025000X1.000000X0*%
%ADD11RoundRect,0.225000X0.375000X-0.225000X0.375000X0.225000X-0.375000X0.225000X-0.375000X-0.225000X0*%
%ADD12RoundRect,0.150000X0.650000X0.150000X-0.650000X0.150000X-0.650000X-0.150000X0.650000X-0.150000X0*%
%ADD13RoundRect,0.150000X0.875000X0.150000X-0.875000X0.150000X-0.875000X-0.150000X0.875000X-0.150000X0*%
G04 APERTURE END LIST*
D10*
%TO.C,S50*%
X82359500Y-104775000D03*
X69432500Y-107315000D03*
%TD*%
%TO.C,S11*%
X264695000Y-40640000D03*
X277622000Y-38100000D03*
%TD*%
%TO.C,S18*%
X55145000Y-69215000D03*
X68072000Y-66675000D03*
%TD*%
%TO.C,S78*%
X345657500Y-126365000D03*
X358584500Y-123825000D03*
%TD*%
%TO.C,S48*%
X364707500Y-69215000D03*
X377634500Y-66675000D03*
%TD*%
%TO.C,S8*%
X198020000Y-40640000D03*
X210947000Y-38100000D03*
%TD*%
%TO.C,S60*%
X259932500Y-107315000D03*
X272859500Y-104775000D03*
%TD*%
%TO.C,S56*%
X183732500Y-107315000D03*
X196659500Y-104775000D03*
%TD*%
%TO.C,S88*%
X300096250Y-145415000D03*
X313023250Y-142875000D03*
%TD*%
%TO.C,S3*%
X93245000Y-40640000D03*
X106172000Y-38100000D03*
%TD*%
%TO.C,S52*%
X107532500Y-107315000D03*
X120459500Y-104775000D03*
%TD*%
%TO.C,S59*%
X240882500Y-107315000D03*
X253809500Y-104775000D03*
%TD*%
%TO.C,S63*%
X345657500Y-88265000D03*
X358584500Y-85725000D03*
%TD*%
%TO.C,S20*%
X93245000Y-69215000D03*
X106172000Y-66675000D03*
%TD*%
%TO.C,S38*%
X140870000Y-88265000D03*
X153797000Y-85725000D03*
%TD*%
%TO.C,S61*%
X300413750Y-97790000D03*
X313340750Y-95250000D03*
%TD*%
%TO.C,S97*%
X388520000Y-69215000D03*
X401447000Y-66675000D03*
%TD*%
%TO.C,S31*%
X278982500Y-107473750D03*
X291909500Y-104933750D03*
%TD*%
%TO.C,S13*%
X302795000Y-40640000D03*
X315722000Y-38100000D03*
%TD*%
%TO.C,S54*%
X145632500Y-107315000D03*
X158559500Y-104775000D03*
%TD*%
%TO.C,S30*%
X293270000Y-69215000D03*
X306197000Y-66675000D03*
%TD*%
%TO.C,S21*%
X112295000Y-69215000D03*
X125222000Y-66675000D03*
%TD*%
%TO.C,S26*%
X207545000Y-69215000D03*
X220472000Y-66675000D03*
%TD*%
%TO.C,S73*%
X193257500Y-126365000D03*
X206184500Y-123825000D03*
%TD*%
%TO.C,S87*%
X276601250Y-145415000D03*
X289528250Y-142875000D03*
%TD*%
%TO.C,S53*%
X126582500Y-107315000D03*
X139509500Y-104775000D03*
%TD*%
%TO.C,S47*%
X345657500Y-69215000D03*
X358584500Y-66675000D03*
%TD*%
%TO.C,S4*%
X112295000Y-40640000D03*
X125222000Y-38100000D03*
%TD*%
%TO.C,S2*%
X74195000Y-40640000D03*
X87122000Y-38100000D03*
%TD*%
%TO.C,S101*%
X388520000Y-88265000D03*
X401447000Y-85725000D03*
%TD*%
%TO.C,S62*%
X326607500Y-88265000D03*
X339534500Y-85725000D03*
%TD*%
%TO.C,S65*%
X40857500Y-126365000D03*
X53784500Y-123825000D03*
%TD*%
%TO.C,S64*%
X364707500Y-88265000D03*
X377634500Y-85725000D03*
%TD*%
%TO.C,S71*%
X155157500Y-126365000D03*
X168084500Y-123825000D03*
%TD*%
%TO.C,S105*%
X388520000Y-107315000D03*
X401447000Y-104775000D03*
%TD*%
%TO.C,S99*%
X426620000Y-69215000D03*
X439547000Y-66675000D03*
%TD*%
%TO.C,S102*%
X407570000Y-88265000D03*
X420497000Y-85725000D03*
%TD*%
%TO.C,S19*%
X74195000Y-69215000D03*
X87122000Y-66675000D03*
%TD*%
%TO.C,S70*%
X136107500Y-126365000D03*
X149034500Y-123825000D03*
%TD*%
%TO.C,S5*%
X131345000Y-40640000D03*
X144272000Y-38100000D03*
%TD*%
%TO.C,S28*%
X245645000Y-69215000D03*
X258572000Y-66675000D03*
%TD*%
%TO.C,S39*%
X159920000Y-88265000D03*
X172847000Y-85725000D03*
%TD*%
%TO.C,S98*%
X407570000Y-69215000D03*
X420497000Y-66675000D03*
%TD*%
%TO.C,S83*%
X86418750Y-145415000D03*
X99345750Y-142875000D03*
%TD*%
%TO.C,S82*%
X62288750Y-145415000D03*
X75215750Y-142875000D03*
%TD*%
%TO.C,S41*%
X198020000Y-88265000D03*
X210947000Y-85725000D03*
%TD*%
%TO.C,S81*%
X38476250Y-145415000D03*
X51403250Y-142875000D03*
%TD*%
%TO.C,S45*%
X274220000Y-88265000D03*
X287147000Y-85725000D03*
%TD*%
%TO.C,S17*%
X36095000Y-69215000D03*
X49022000Y-66675000D03*
%TD*%
%TO.C,S37*%
X121820000Y-88265000D03*
X134747000Y-85725000D03*
%TD*%
%TO.C,S35*%
X83720000Y-88265000D03*
X96647000Y-85725000D03*
%TD*%
%TO.C,S75*%
X231357500Y-126365000D03*
X244284500Y-123825000D03*
%TD*%
%TO.C,S94*%
X445670000Y-135890000D03*
X458597000Y-133350000D03*
%TD*%
%TO.C,S85*%
X228976250Y-145415000D03*
X241903250Y-142875000D03*
%TD*%
%TO.C,S91*%
X364707500Y-145415000D03*
X377634500Y-142875000D03*
%TD*%
%TO.C,S77*%
X286126250Y-126365000D03*
X299053250Y-123825000D03*
%TD*%
%TO.C,S68*%
X98007500Y-126365000D03*
X110934500Y-123825000D03*
%TD*%
%TO.C,S1*%
X36095000Y-40640000D03*
X49022000Y-38100000D03*
%TD*%
%TO.C,S76*%
X250407500Y-126365000D03*
X263334500Y-123825000D03*
%TD*%
%TO.C,S34*%
X64670000Y-88265000D03*
X77597000Y-85725000D03*
%TD*%
%TO.C,S23*%
X150395000Y-69215000D03*
X163322000Y-66675000D03*
%TD*%
%TO.C,S58*%
X221832500Y-107315000D03*
X234759500Y-104775000D03*
%TD*%
%TO.C,S92*%
X398045000Y-145415000D03*
X410972000Y-142875000D03*
%TD*%
%TO.C,S110*%
X426620000Y-126365000D03*
X439547000Y-123825000D03*
%TD*%
%TO.C,S24*%
X169445000Y-69215000D03*
X182372000Y-66675000D03*
%TD*%
%TO.C,S22*%
X131345000Y-69215000D03*
X144272000Y-66675000D03*
%TD*%
%TO.C,S46*%
X326607500Y-69215000D03*
X339534500Y-66675000D03*
%TD*%
%TO.C,S100*%
X445670000Y-69215000D03*
X458597000Y-66675000D03*
%TD*%
%TO.C,S109*%
X407570000Y-126365000D03*
X420497000Y-123825000D03*
%TD*%
%TO.C,S15*%
X345657500Y-40640000D03*
X358584500Y-38100000D03*
%TD*%
%TO.C,S51*%
X88482500Y-107315000D03*
X101409500Y-104775000D03*
%TD*%
%TO.C,S36*%
X102770000Y-88265000D03*
X115697000Y-85725000D03*
%TD*%
%TO.C,S74*%
X212307500Y-126365000D03*
X225234500Y-123825000D03*
%TD*%
%TO.C,S25*%
X188495000Y-69215000D03*
X201422000Y-66675000D03*
%TD*%
%TO.C,S16*%
X364707500Y-40640000D03*
X377634500Y-38100000D03*
%TD*%
%TO.C,S27*%
X226595000Y-69215000D03*
X239522000Y-66675000D03*
%TD*%
%TO.C,S6*%
X159920000Y-40640000D03*
X172847000Y-38100000D03*
%TD*%
%TO.C,S40*%
X178970000Y-88265000D03*
X191897000Y-85725000D03*
%TD*%
%TO.C,S90*%
X345657500Y-145415000D03*
X358584500Y-142875000D03*
%TD*%
%TO.C,S84*%
X157538750Y-145415000D03*
X170465750Y-142875000D03*
%TD*%
%TO.C,S14*%
X326607500Y-40640000D03*
X339534500Y-38100000D03*
%TD*%
%TO.C,S66*%
X59907500Y-126365000D03*
X72834500Y-123825000D03*
%TD*%
%TO.C,S72*%
X174207500Y-126365000D03*
X187134500Y-123825000D03*
%TD*%
%TO.C,S43*%
X236120000Y-88265000D03*
X249047000Y-85725000D03*
%TD*%
%TO.C,S107*%
X426620000Y-107315000D03*
X439547000Y-104775000D03*
%TD*%
%TO.C,S86*%
X252788750Y-145415000D03*
X265715750Y-142875000D03*
%TD*%
%TO.C,S42*%
X217070000Y-88265000D03*
X229997000Y-85725000D03*
%TD*%
%TO.C,S106*%
X407570000Y-107315000D03*
X420497000Y-104775000D03*
%TD*%
%TO.C,S55*%
X177609500Y-104775000D03*
X164682500Y-107315000D03*
%TD*%
%TO.C,S9*%
X217070000Y-40640000D03*
X229997000Y-38100000D03*
%TD*%
%TO.C,S67*%
X78957500Y-126365000D03*
X91884500Y-123825000D03*
%TD*%
%TO.C,S104*%
X445670000Y-97790000D03*
X458597000Y-95250000D03*
%TD*%
%TO.C,S44*%
X255170000Y-88265000D03*
X268097000Y-85725000D03*
%TD*%
%TO.C,S93*%
X426620000Y-145415000D03*
X439547000Y-142875000D03*
%TD*%
%TO.C,S103*%
X426620000Y-88265000D03*
X439547000Y-85725000D03*
%TD*%
%TO.C,S10*%
X245645000Y-40640000D03*
X258572000Y-38100000D03*
%TD*%
%TO.C,S57*%
X202782500Y-107315000D03*
X215709500Y-104775000D03*
%TD*%
%TO.C,S49*%
X45620000Y-107315000D03*
X58547000Y-104775000D03*
%TD*%
%TO.C,S7*%
X178970000Y-40640000D03*
X191897000Y-38100000D03*
%TD*%
%TO.C,S33*%
X40857500Y-88265000D03*
X53784500Y-85725000D03*
%TD*%
%TO.C,S12*%
X283745000Y-40640000D03*
X296672000Y-38100000D03*
%TD*%
%TO.C,S89*%
X326607500Y-145415000D03*
X339534500Y-142875000D03*
%TD*%
%TO.C,S69*%
X117057500Y-126365000D03*
X129984500Y-123825000D03*
%TD*%
%TO.C,S108*%
X388520000Y-126365000D03*
X401447000Y-123825000D03*
%TD*%
%TO.C,S29*%
X264695000Y-69215000D03*
X277622000Y-66675000D03*
%TD*%
D11*
%TO.C,D67*%
X95567500Y-138430000D03*
X95567500Y-135130000D03*
%TD*%
%TO.C,D73*%
X209867500Y-138430000D03*
X209867500Y-135130000D03*
%TD*%
%TO.C,D69*%
X133667500Y-138430000D03*
X133667500Y-135130000D03*
%TD*%
%TO.C,D46*%
X343217500Y-81280000D03*
X343217500Y-77980000D03*
%TD*%
%TO.C,D22*%
X147955000Y-81280000D03*
X147955000Y-77980000D03*
%TD*%
%TO.C,D61*%
X317023750Y-109855000D03*
X317023750Y-106555000D03*
%TD*%
%TO.C,D60*%
X276542500Y-119380000D03*
X276542500Y-116080000D03*
%TD*%
%TO.C,D43*%
X252730000Y-100330000D03*
X252730000Y-97030000D03*
%TD*%
%TO.C,D81*%
X55086250Y-157480000D03*
X55086250Y-154180000D03*
%TD*%
%TO.C,D28*%
X262255000Y-81280000D03*
X262255000Y-77980000D03*
%TD*%
%TO.C,D104*%
X462280000Y-109855000D03*
X462280000Y-106555000D03*
%TD*%
%TO.C,D25*%
X205105000Y-81280000D03*
X205105000Y-77980000D03*
%TD*%
%TO.C,D47*%
X362267500Y-81280000D03*
X362267500Y-77980000D03*
%TD*%
%TO.C,D101*%
X405130000Y-100330000D03*
X405130000Y-97030000D03*
%TD*%
%TO.C,D30*%
X317023750Y-81280000D03*
X317023750Y-77980000D03*
%TD*%
%TO.C,D26*%
X224155000Y-81280000D03*
X224155000Y-77980000D03*
%TD*%
%TO.C,D10*%
X262255000Y-52705000D03*
X262255000Y-49405000D03*
%TD*%
%TO.C,D74*%
X228917500Y-138430000D03*
X228917500Y-135130000D03*
%TD*%
%TO.C,D14*%
X343217500Y-52705000D03*
X343217500Y-49405000D03*
%TD*%
%TO.C,D99*%
X443230000Y-81280000D03*
X443230000Y-77980000D03*
%TD*%
%TO.C,D35*%
X100330000Y-100330000D03*
X100330000Y-97030000D03*
%TD*%
%TO.C,D56*%
X200342500Y-119380000D03*
X200342500Y-116080000D03*
%TD*%
%TO.C,D27*%
X243205000Y-81280000D03*
X243205000Y-77980000D03*
%TD*%
%TO.C,D9*%
X233680000Y-52705000D03*
X233680000Y-49405000D03*
%TD*%
%TO.C,D86*%
X269398750Y-157480000D03*
X269398750Y-154180000D03*
%TD*%
%TO.C,D11*%
X281305000Y-52705000D03*
X281305000Y-49405000D03*
%TD*%
%TO.C,D31*%
X295783000Y-120298750D03*
X295783000Y-116998750D03*
%TD*%
%TO.C,D33*%
X57467500Y-100330000D03*
X57467500Y-97030000D03*
%TD*%
%TO.C,D103*%
X442087000Y-100330000D03*
X442087000Y-97030000D03*
%TD*%
%TO.C,D78*%
X362155000Y-137455000D03*
X362155000Y-134155000D03*
%TD*%
%TO.C,D45*%
X290830000Y-100330000D03*
X290830000Y-97030000D03*
%TD*%
%TO.C,D92*%
X421798750Y-157480000D03*
X421798750Y-154180000D03*
%TD*%
%TO.C,D66*%
X76517500Y-138430000D03*
X76517500Y-135130000D03*
%TD*%
%TO.C,D51*%
X105092500Y-119380000D03*
X105092500Y-116080000D03*
%TD*%
%TO.C,D105*%
X405130000Y-119380000D03*
X405130000Y-116080000D03*
%TD*%
%TO.C,D53*%
X143192500Y-119380000D03*
X143192500Y-116080000D03*
%TD*%
%TO.C,D63*%
X362267500Y-100330000D03*
X362267500Y-97030000D03*
%TD*%
%TO.C,D91*%
X381317500Y-157480000D03*
X381317500Y-154180000D03*
%TD*%
%TO.C,D52*%
X124142500Y-119380000D03*
X124142500Y-116080000D03*
%TD*%
%TO.C,D19*%
X90805000Y-81280000D03*
X90805000Y-77980000D03*
%TD*%
%TO.C,D94*%
X462280000Y-147955000D03*
X462280000Y-144655000D03*
%TD*%
%TO.C,D12*%
X300355000Y-52705000D03*
X300355000Y-49405000D03*
%TD*%
%TO.C,D75*%
X247967500Y-138430000D03*
X247967500Y-135130000D03*
%TD*%
%TO.C,D90*%
X362267500Y-157480000D03*
X362267500Y-154180000D03*
%TD*%
%TO.C,D39*%
X176530000Y-100330000D03*
X176530000Y-97030000D03*
%TD*%
%TO.C,D59*%
X257492500Y-119380000D03*
X257492500Y-116080000D03*
%TD*%
%TO.C,D83*%
X102711250Y-157480000D03*
X102711250Y-154180000D03*
%TD*%
%TO.C,D89*%
X343217500Y-157480000D03*
X343217500Y-154180000D03*
%TD*%
%TO.C,D18*%
X71755000Y-81280000D03*
X71755000Y-77980000D03*
%TD*%
%TO.C,D13*%
X319405000Y-52705000D03*
X319405000Y-49405000D03*
%TD*%
%TO.C,D108*%
X405130000Y-138430000D03*
X405130000Y-135130000D03*
%TD*%
%TO.C,D55*%
X181292500Y-119380000D03*
X181292500Y-116080000D03*
%TD*%
%TO.C,D54*%
X162242500Y-119380000D03*
X162242500Y-116080000D03*
%TD*%
%TO.C,D24*%
X186055000Y-81280000D03*
X186055000Y-77980000D03*
%TD*%
%TO.C,D93*%
X443230000Y-157480000D03*
X443230000Y-154180000D03*
%TD*%
%TO.C,D34*%
X81280000Y-100330000D03*
X81280000Y-97030000D03*
%TD*%
%TO.C,D40*%
X195580000Y-100330000D03*
X195580000Y-97030000D03*
%TD*%
%TO.C,D49*%
X62230000Y-119380000D03*
X62230000Y-116080000D03*
%TD*%
%TO.C,D68*%
X114617500Y-138430000D03*
X114617500Y-135130000D03*
%TD*%
%TO.C,D16*%
X381317500Y-52705000D03*
X381317500Y-49405000D03*
%TD*%
%TO.C,D41*%
X214630000Y-100330000D03*
X214630000Y-97030000D03*
%TD*%
%TO.C,D8*%
X214630000Y-52705000D03*
X214630000Y-49405000D03*
%TD*%
%TO.C,D87*%
X293211250Y-157480000D03*
X293211250Y-154180000D03*
%TD*%
%TO.C,D110*%
X441579000Y-138429000D03*
X441579000Y-135129000D03*
%TD*%
%TO.C,D84*%
X174148750Y-157480000D03*
X174148750Y-154180000D03*
%TD*%
%TO.C,D50*%
X86042500Y-119380000D03*
X86042500Y-116080000D03*
%TD*%
D12*
%TO.C,U2*%
X432435000Y-31115000D03*
X432435000Y-32385000D03*
X432435000Y-33655000D03*
X432435000Y-34925000D03*
X432435000Y-36195000D03*
X432435000Y-37465000D03*
X432435000Y-38735000D03*
X432435000Y-40005000D03*
X425935000Y-40005000D03*
X425935000Y-38735000D03*
X425935000Y-37465000D03*
X425935000Y-36195000D03*
X425935000Y-34925000D03*
X425935000Y-33655000D03*
X425935000Y-32385000D03*
X425935000Y-31115000D03*
%TD*%
D11*
%TO.C,D71*%
X171767500Y-138430000D03*
X171767500Y-135130000D03*
%TD*%
%TO.C,D17*%
X52705000Y-81280000D03*
X52705000Y-77980000D03*
%TD*%
%TO.C,D1*%
X52705000Y-52705000D03*
X52705000Y-49405000D03*
%TD*%
%TO.C,D88*%
X317023750Y-157480000D03*
X317023750Y-154180000D03*
%TD*%
%TO.C,D100*%
X462280000Y-81280000D03*
X462280000Y-77980000D03*
%TD*%
%TO.C,D58*%
X238442500Y-119380000D03*
X238442500Y-116080000D03*
%TD*%
%TO.C,D20*%
X109855000Y-81280000D03*
X109855000Y-77980000D03*
%TD*%
%TO.C,D36*%
X119380000Y-100330000D03*
X119380000Y-97030000D03*
%TD*%
%TO.C,D97*%
X405130000Y-81280000D03*
X405130000Y-77980000D03*
%TD*%
%TO.C,D107*%
X443230000Y-119380000D03*
X443230000Y-116080000D03*
%TD*%
%TO.C,D7*%
X195580000Y-52705000D03*
X195580000Y-49405000D03*
%TD*%
%TO.C,D85*%
X245586250Y-157480000D03*
X245586250Y-154180000D03*
%TD*%
%TO.C,D3*%
X109855000Y-52705000D03*
X109855000Y-49405000D03*
%TD*%
%TO.C,D42*%
X233680000Y-100330000D03*
X233680000Y-97030000D03*
%TD*%
%TO.C,D98*%
X424180000Y-81280000D03*
X424180000Y-77980000D03*
%TD*%
%TO.C,D82*%
X78898750Y-157480000D03*
X78898750Y-154180000D03*
%TD*%
D13*
%TO.C,U5*%
X402636250Y-40957500D03*
X402636250Y-42227500D03*
X402636250Y-43497500D03*
X402636250Y-44767500D03*
X402636250Y-46037500D03*
X402636250Y-47307500D03*
X402636250Y-48577500D03*
X402636250Y-49847500D03*
X402636250Y-51117500D03*
X402636250Y-52387500D03*
X402636250Y-53657500D03*
X402636250Y-54927500D03*
X393336250Y-54927500D03*
X393336250Y-53657500D03*
X393336250Y-52387500D03*
X393336250Y-51117500D03*
X393336250Y-49847500D03*
X393336250Y-48577500D03*
X393336250Y-47307500D03*
X393336250Y-46037500D03*
X393336250Y-44767500D03*
X393336250Y-43497500D03*
X393336250Y-42227500D03*
X393336250Y-40957500D03*
%TD*%
D11*
%TO.C,D62*%
X343217500Y-100330000D03*
X343217500Y-97030000D03*
%TD*%
%TO.C,D23*%
X167005000Y-81280000D03*
X167005000Y-77980000D03*
%TD*%
%TO.C,D57*%
X219392500Y-119380000D03*
X219392500Y-116080000D03*
%TD*%
%TO.C,D109*%
X424180000Y-138430000D03*
X424180000Y-135130000D03*
%TD*%
%TO.C,D21*%
X128905000Y-81280000D03*
X128905000Y-77980000D03*
%TD*%
%TO.C,D65*%
X57467500Y-138430000D03*
X57467500Y-135130000D03*
%TD*%
%TO.C,D72*%
X190817500Y-138430000D03*
X190817500Y-135130000D03*
%TD*%
%TO.C,D106*%
X424180000Y-119380000D03*
X424180000Y-116080000D03*
%TD*%
%TO.C,D37*%
X138430000Y-100330000D03*
X138430000Y-97030000D03*
%TD*%
%TO.C,D44*%
X271780000Y-100330000D03*
X271780000Y-97030000D03*
%TD*%
%TO.C,D38*%
X157480000Y-100330000D03*
X157480000Y-97030000D03*
%TD*%
%TO.C,D48*%
X381317500Y-81280000D03*
X381317500Y-77980000D03*
%TD*%
%TO.C,D15*%
X362267500Y-52705000D03*
X362267500Y-49405000D03*
%TD*%
%TO.C,D29*%
X281305000Y-81280000D03*
X281305000Y-77980000D03*
%TD*%
%TO.C,D6*%
X176530000Y-52705000D03*
X176530000Y-49405000D03*
%TD*%
%TO.C,D102*%
X424180000Y-100330000D03*
X424180000Y-97030000D03*
%TD*%
%TO.C,D4*%
X128905000Y-52705000D03*
X128905000Y-49405000D03*
%TD*%
%TO.C,D76*%
X267017500Y-138430000D03*
X267017500Y-135130000D03*
%TD*%
%TO.C,D64*%
X381317500Y-100330000D03*
X381317500Y-97030000D03*
%TD*%
%TO.C,D2*%
X90805000Y-52705000D03*
X90805000Y-49405000D03*
%TD*%
%TO.C,D5*%
X147955000Y-52705000D03*
X147955000Y-49405000D03*
%TD*%
%TO.C,D77*%
X309880000Y-138430000D03*
X309880000Y-135130000D03*
%TD*%
%TO.C,D70*%
X152717500Y-138430000D03*
X152717500Y-135130000D03*
%TD*%
M02*
