M48
; DRILL file {KiCad 7.0.10} date Tue Apr  2 15:17:19 2024
; FORMAT={-:-/ absolute / inch / decimal}
; #@! TF.CreationDate,2024-04-02T15:17:19+02:00
; #@! TF.GenerationSoftware,Kicad,Pcbnew,7.0.10
; #@! TF.FileFunction,Plated,1,2,PTH
FMAT,2
INCH
; #@! TA.AperFunction,Plated,PTH,ViaDrill
T1C0.0157
; #@! TA.AperFunction,Plated,PTH,ComponentDrill
T2C0.0276
; #@! TA.AperFunction,Plated,PTH,ComponentDrill
T3C0.0354
; #@! TA.AperFunction,Plated,PTH,ComponentDrill
T4C0.0430
; #@! TA.AperFunction,Plated,PTH,ComponentDrill
T5C0.1201
%
G90
G05
T1
X1.55Y-2.1124
X2.075Y-1.6062
X2.075Y-2.7312
X2.1687Y-5.7313
X2.2625Y-3.4812
X2.2625Y-4.9813
X2.4433Y-2.1409
X2.45Y-4.2313
X2.825Y-2.7312
X3.0125Y-4.9813
X3.1062Y-5.7313
X3.2Y-3.4812
X3.3875Y-4.2313
X3.575Y-1.6062
X3.575Y-2.7312
X3.607Y-2.168
X3.7625Y-4.9813
X3.95Y-3.4812
X4.0438Y-5.7313
X4.1375Y-4.2313
X4.325Y-1.6062
X4.325Y-2.7312
X4.3353Y-2.1897
X4.5125Y-4.9813
X4.7Y-3.4812
X4.8875Y-4.2313
X5.0701Y-2.2049
X5.075Y-1.6062
X5.075Y-2.7312
X5.2625Y-4.9813
X5.45Y-3.4812
X5.6375Y-4.2313
X5.7297Y-2.2257
X5.825Y-1.6062
X5.825Y-2.7312
X6.0125Y-4.9813
X6.2Y-3.4812
X6.3875Y-4.2313
X6.4628Y-2.2394
X6.575Y-2.7312
X6.7625Y-4.9813
X6.8563Y-5.7313
X6.95Y-1.6062
X6.95Y-3.4812
X7.1375Y-4.2313
X7.1883Y-2.2671
X7.325Y-2.7312
X7.5125Y-4.985
X7.7Y-1.6062
X7.7Y-3.4812
X7.8875Y-4.2313
X7.9275Y-2.2787
X8.075Y-2.7312
X8.2625Y-4.9813
X8.45Y-1.6062
X8.45Y-3.4812
X8.6375Y-4.2313
X8.825Y-2.7312
X9.0125Y-4.9813
X9.2Y-1.6062
X9.2Y-3.4812
X9.3875Y-4.2313
X9.4303Y-2.2965
X9.575Y-2.7312
X9.6687Y-5.7313
X9.7625Y-4.9813
X9.95Y-3.4812
X10.1375Y-4.2313
X10.1636Y-2.3142
X10.325Y-1.6062
X10.325Y-2.7312
X10.5125Y-4.9813
X10.6062Y-5.7313
X10.7Y-3.4812
X10.8794Y-2.3361
X10.8875Y-4.2313
X11.075Y-1.6062
X11.075Y-2.7312
X11.45Y-3.4812
X11.5437Y-5.7313
X11.6203Y-2.3496
X11.6375Y-4.2313
X11.825Y-1.6062
X12.2Y-4.9813
X12.4812Y-2.7312
X12.4812Y-3.8562
X12.4812Y-4.7938
X12.4812Y-5.7313
X12.575Y-1.6062
X12.6687Y-6.0125
X12.9875Y-2.3683
X13.5125Y-1.6062
X13.5125Y-2.7312
X13.5125Y-3.4812
X13.5125Y-5.7313
X13.7375Y-2.4077
X14.2625Y-1.6062
X14.2625Y-2.7312
X14.2625Y-3.4812
X14.2625Y-4.9813
X14.2625Y-5.7313
X14.3762Y-2.447
X15.0125Y-1.6062
X15.0125Y-2.7312
X15.0125Y-3.4812
X15.0125Y-5.7313
X15.1062Y-2.075
X15.1062Y-2.5437
X15.2417Y-2.2104
X15.3248Y-2.1273
X15.7148Y-1.3447
X15.9313Y-1.3447
X15.95Y-2.7312
X15.95Y-3.4812
X15.95Y-4.2313
X15.95Y-4.9813
X15.9904Y-2.3289
X16.0297Y-2.2896
X16.3053Y-2.3289
X16.3447Y-2.2896
X16.6062Y-5.7313
X16.7Y-2.7312
X16.7Y-3.4812
X16.7Y-4.2313
X16.7Y-4.9813
X16.805Y-1.6596
X16.805Y-1.6596
X16.805Y-1.725
X16.8368Y-1.4825
X16.8959Y-1.1478
X17.005Y-1.725
X17.45Y-2.7312
X17.45Y-3.4812
X17.45Y-4.2313
X17.45Y-4.9813
X17.45Y-5.7313
X18.2Y-2.7312
X18.2Y-3.8562
X18.2Y-5.3563
T2
X17.238Y-1.6006
X17.238Y-1.7581
X17.238Y-1.9156
X17.238Y-2.073
X17.538Y-1.6006
X17.538Y-1.7581
X17.538Y-1.9156
X17.538Y-2.073
T3
X17.225Y-1.2346
X17.225Y-1.3346
X17.465Y-1.2346
X17.465Y-1.3346
X17.705Y-1.2348
X17.705Y-1.3348
X17.945Y-1.2348
X17.945Y-1.3348
T4
X16.0203Y-0.9707
X16.0203Y-1.0707
X16.0203Y-1.1707
X16.0203Y-1.2707
X16.0203Y-1.3707
X16.0203Y-1.4707
X16.0203Y-1.5707
X16.0203Y-1.6707
X16.0203Y-1.7707
X16.0203Y-1.8707
X16.0203Y-1.9707
X16.0203Y-2.0707
X16.6203Y-0.9707
X16.6203Y-1.0707
X16.6203Y-1.1707
X16.6203Y-1.2707
X16.6203Y-1.3707
X16.6203Y-1.4707
X16.6203Y-1.5707
X16.6203Y-1.6707
X16.6203Y-1.7707
X16.6203Y-1.8707
X16.6203Y-1.9707
X16.6203Y-2.0707
T5
X1.55Y-1.6
X1.55Y-2.725
X1.6438Y-5.725
X1.7375Y-3.475
X1.7375Y-4.975
X1.8Y-1.5
X1.8Y-2.625
X1.8938Y-5.625
X1.925Y-4.225
X1.9875Y-3.375
X1.9875Y-4.875
X2.175Y-4.125
X2.3Y-2.725
X2.4875Y-4.975
X2.55Y-2.625
X2.5812Y-5.725
X2.675Y-3.475
X2.7375Y-4.875
X2.8312Y-5.625
X2.8625Y-4.225
X2.925Y-3.375
X3.05Y-1.6
X3.05Y-2.725
X3.1125Y-4.125
X3.2375Y-4.975
X3.3Y-1.5
X3.3Y-2.625
X3.425Y-3.475
X3.4875Y-4.875
X3.5312Y-5.725
X3.6125Y-4.225
X3.675Y-3.375
X3.7812Y-5.625
X3.8Y-1.6
X3.8Y-2.725
X3.8625Y-4.125
X3.9875Y-4.975
X4.05Y-1.5
X4.05Y-2.625
X4.175Y-3.475
X4.2375Y-4.875
X4.3625Y-4.225
X4.425Y-3.375
X4.55Y-1.6
X4.55Y-2.725
X4.6125Y-4.125
X4.7375Y-4.975
X4.8Y-1.5
X4.8Y-2.625
X4.925Y-3.475
X4.9875Y-4.875
X5.1125Y-4.225
X5.175Y-3.375
X5.3Y-1.6
X5.3Y-2.725
X5.3625Y-4.125
X5.4875Y-4.975
X5.55Y-1.5
X5.55Y-2.625
X5.675Y-3.475
X5.7375Y-4.875
X5.8625Y-4.225
X5.925Y-3.375
X6.05Y-2.725
X6.1125Y-4.125
X6.2375Y-4.975
X6.3Y-2.625
X6.3312Y-5.725
X6.425Y-1.6
X6.425Y-3.475
X6.4875Y-4.875
X6.5812Y-5.625
X6.6125Y-4.225
X6.675Y-1.5
X6.675Y-3.375
X6.8Y-2.725
X6.8625Y-4.125
X6.9875Y-4.975
X7.05Y-2.625
X7.175Y-1.6
X7.175Y-3.475
X7.2375Y-4.875
X7.3625Y-4.225
X7.425Y-1.5
X7.425Y-3.375
X7.55Y-2.725
X7.6125Y-4.125
X7.7375Y-4.975
X7.8Y-2.625
X7.925Y-1.6
X7.925Y-3.475
X7.9875Y-4.875
X8.1125Y-4.225
X8.175Y-1.5
X8.175Y-3.375
X8.3Y-2.725
X8.3625Y-4.125
X8.4875Y-4.975
X8.55Y-2.625
X8.675Y-1.6
X8.675Y-3.475
X8.7375Y-4.875
X8.8625Y-4.225
X8.925Y-1.5
X8.925Y-3.375
X9.05Y-2.725
X9.1125Y-4.125
X9.1437Y-5.725
X9.2375Y-4.975
X9.3Y-2.625
X9.3937Y-5.625
X9.425Y-3.475
X9.4875Y-4.875
X9.6125Y-4.225
X9.675Y-3.375
X9.8Y-1.6
X9.8Y-2.725
X9.8625Y-4.125
X9.9875Y-4.975
X10.05Y-1.5
X10.05Y-2.625
X10.0812Y-5.725
X10.175Y-3.475
X10.2375Y-4.875
X10.3312Y-5.625
X10.3625Y-4.225
X10.425Y-3.375
X10.55Y-1.6
X10.55Y-2.725
X10.6125Y-4.125
X10.8Y-1.5
X10.8Y-2.625
X10.925Y-3.475
X11.0187Y-5.725
X11.1125Y-4.2313
X11.175Y-3.375
X11.2687Y-5.625
X11.3Y-1.6
X11.3625Y-4.1312
X11.3937Y-4.975
X11.55Y-1.5
X11.6437Y-4.875
X11.675Y-2.725
X11.925Y-2.625
X11.9437Y-5.725
X11.9562Y-3.85
X12.05Y-1.6
X12.1937Y-5.625
X12.2062Y-3.75
X12.3Y-1.5
X12.9875Y-1.6
X12.9875Y-2.725
X12.9875Y-3.475
X12.9875Y-5.725
X13.2375Y-1.5
X13.2375Y-2.625
X13.2375Y-3.375
X13.2375Y-5.625
X13.7375Y-1.6
X13.7375Y-2.725
X13.7375Y-3.475
X13.7375Y-4.975
X13.7375Y-5.725
X13.9875Y-1.5
X13.9875Y-2.625
X13.9875Y-3.375
X13.9875Y-4.875
X13.9875Y-5.625
X14.4875Y-1.6
X14.4875Y-2.725
X14.4875Y-3.475
X14.4875Y-5.725
X14.7375Y-1.5
X14.7375Y-2.625
X14.7375Y-3.375
X14.7375Y-5.625
X15.425Y-2.725
X15.425Y-3.475
X15.425Y-4.225
X15.425Y-4.975
X15.675Y-2.625
X15.675Y-3.375
X15.675Y-4.125
X15.675Y-4.875
X15.8Y-5.725
X16.05Y-5.625
X16.175Y-2.725
X16.175Y-3.475
X16.175Y-4.225
X16.175Y-4.975
X16.425Y-2.625
X16.425Y-3.375
X16.425Y-4.125
X16.425Y-4.875
X16.925Y-2.725
X16.925Y-3.475
X16.925Y-4.225
X16.925Y-4.975
X16.925Y-5.725
X17.175Y-2.625
X17.175Y-3.375
X17.175Y-4.125
X17.175Y-4.875
X17.175Y-5.625
X17.675Y-2.725
X17.675Y-3.85
X17.675Y-5.35
X17.925Y-2.625
X17.925Y-3.75
X17.925Y-5.25
M30
