%TF.GenerationSoftware,KiCad,Pcbnew,7.0.10*%
%TF.CreationDate,2024-02-09T15:32:17+01:00*%
%TF.ProjectId,k3yb.it,6b337962-2e69-4742-9e6b-696361645f70,rev?*%
%TF.SameCoordinates,Original*%
%TF.FileFunction,Paste,Bot*%
%TF.FilePolarity,Positive*%
%FSLAX46Y46*%
G04 Gerber Fmt 4.6, Leading zero omitted, Abs format (unit mm)*
G04 Created by KiCad (PCBNEW 7.0.10) date 2024-02-09 15:32:17*
%MOMM*%
%LPD*%
G01*
G04 APERTURE LIST*
G04 Aperture macros list*
%AMRoundRect*
0 Rectangle with rounded corners*
0 $1 Rounding radius*
0 $2 $3 $4 $5 $6 $7 $8 $9 X,Y pos of 4 corners*
0 Add a 4 corners polygon primitive as box body*
4,1,4,$2,$3,$4,$5,$6,$7,$8,$9,$2,$3,0*
0 Add four circle primitives for the rounded corners*
1,1,$1+$1,$2,$3*
1,1,$1+$1,$4,$5*
1,1,$1+$1,$6,$7*
1,1,$1+$1,$8,$9*
0 Add four rect primitives between the rounded corners*
20,1,$1+$1,$2,$3,$4,$5,0*
20,1,$1+$1,$4,$5,$6,$7,0*
20,1,$1+$1,$6,$7,$8,$9,0*
20,1,$1+$1,$8,$9,$2,$3,0*%
G04 Aperture macros list end*
%ADD10RoundRect,0.150000X0.875000X0.150000X-0.875000X0.150000X-0.875000X-0.150000X0.875000X-0.150000X0*%
%ADD11RoundRect,0.225000X0.375000X-0.225000X0.375000X0.225000X-0.375000X0.225000X-0.375000X-0.225000X0*%
G04 APERTURE END LIST*
D10*
%TO.C,U5*%
X402636250Y-40957500D03*
X402636250Y-42227500D03*
X402636250Y-43497500D03*
X402636250Y-44767500D03*
X402636250Y-46037500D03*
X402636250Y-47307500D03*
X402636250Y-48577500D03*
X402636250Y-49847500D03*
X402636250Y-51117500D03*
X402636250Y-52387500D03*
X402636250Y-53657500D03*
X402636250Y-54927500D03*
X393336250Y-54927500D03*
X393336250Y-53657500D03*
X393336250Y-52387500D03*
X393336250Y-51117500D03*
X393336250Y-49847500D03*
X393336250Y-48577500D03*
X393336250Y-47307500D03*
X393336250Y-46037500D03*
X393336250Y-44767500D03*
X393336250Y-43497500D03*
X393336250Y-42227500D03*
X393336250Y-40957500D03*
%TD*%
D11*
%TO.C,D31*%
X302736250Y-120298750D03*
X302736250Y-116998750D03*
%TD*%
%TO.C,D104*%
X462280000Y-109855000D03*
X462280000Y-106555000D03*
%TD*%
%TO.C,D101*%
X405130000Y-100330000D03*
X405130000Y-97030000D03*
%TD*%
%TO.C,D103*%
X443230000Y-100330000D03*
X443230000Y-97030000D03*
%TD*%
%TO.C,D108*%
X405130000Y-138430000D03*
X405130000Y-135130000D03*
%TD*%
%TO.C,D110*%
X443230000Y-138430000D03*
X443230000Y-135130000D03*
%TD*%
%TO.C,D102*%
X424180000Y-100330000D03*
X424180000Y-97030000D03*
%TD*%
%TO.C,D105*%
X405130000Y-119380000D03*
X405130000Y-116080000D03*
%TD*%
%TO.C,D107*%
X443230000Y-119380000D03*
X443230000Y-116080000D03*
%TD*%
%TO.C,D109*%
X424180000Y-138430000D03*
X424180000Y-135130000D03*
%TD*%
%TO.C,D106*%
X424180000Y-119380000D03*
X424180000Y-116080000D03*
%TD*%
%TO.C,D13*%
X319405000Y-49405000D03*
X319405000Y-52705000D03*
%TD*%
%TO.C,D12*%
X300355000Y-49405000D03*
X300355000Y-52705000D03*
%TD*%
%TO.C,D67*%
X95567500Y-138430000D03*
X95567500Y-135130000D03*
%TD*%
%TO.C,D73*%
X209867500Y-138430000D03*
X209867500Y-135130000D03*
%TD*%
%TO.C,D69*%
X133667500Y-138430000D03*
X133667500Y-135130000D03*
%TD*%
%TO.C,D46*%
X343217500Y-81280000D03*
X343217500Y-77980000D03*
%TD*%
%TO.C,D22*%
X147955000Y-81280000D03*
X147955000Y-77980000D03*
%TD*%
%TO.C,D61*%
X317023750Y-109855000D03*
X317023750Y-106555000D03*
%TD*%
%TO.C,D60*%
X276542500Y-119380000D03*
X276542500Y-116080000D03*
%TD*%
%TO.C,D43*%
X252730000Y-100330000D03*
X252730000Y-97030000D03*
%TD*%
%TO.C,D81*%
X55086250Y-157480000D03*
X55086250Y-154180000D03*
%TD*%
%TO.C,D28*%
X262255000Y-81280000D03*
X262255000Y-77980000D03*
%TD*%
%TO.C,D25*%
X205105000Y-81280000D03*
X205105000Y-77980000D03*
%TD*%
%TO.C,D47*%
X362267500Y-81280000D03*
X362267500Y-77980000D03*
%TD*%
%TO.C,D30*%
X317023750Y-81280000D03*
X317023750Y-77980000D03*
%TD*%
%TO.C,D26*%
X224155000Y-81280000D03*
X224155000Y-77980000D03*
%TD*%
%TO.C,D10*%
X262255000Y-52705000D03*
X262255000Y-49405000D03*
%TD*%
%TO.C,D74*%
X228917500Y-138430000D03*
X228917500Y-135130000D03*
%TD*%
%TO.C,D14*%
X343217500Y-52705000D03*
X343217500Y-49405000D03*
%TD*%
%TO.C,D99*%
X443230000Y-77980000D03*
X443230000Y-81280000D03*
%TD*%
%TO.C,D35*%
X100330000Y-100330000D03*
X100330000Y-97030000D03*
%TD*%
%TO.C,D56*%
X200342500Y-119380000D03*
X200342500Y-116080000D03*
%TD*%
%TO.C,D27*%
X243205000Y-81280000D03*
X243205000Y-77980000D03*
%TD*%
%TO.C,D9*%
X233680000Y-52705000D03*
X233680000Y-49405000D03*
%TD*%
%TO.C,D86*%
X269398750Y-154180000D03*
X269398750Y-157480000D03*
%TD*%
%TO.C,D11*%
X281305000Y-52705000D03*
X281305000Y-49405000D03*
%TD*%
%TO.C,D33*%
X57467500Y-100330000D03*
X57467500Y-97030000D03*
%TD*%
%TO.C,D78*%
X362155000Y-134155000D03*
X362155000Y-137455000D03*
%TD*%
%TO.C,D45*%
X290830000Y-100330000D03*
X290830000Y-97030000D03*
%TD*%
%TO.C,D92*%
X421798750Y-157480000D03*
X421798750Y-154180000D03*
%TD*%
%TO.C,D66*%
X76517500Y-138430000D03*
X76517500Y-135130000D03*
%TD*%
%TO.C,D51*%
X105092500Y-119380000D03*
X105092500Y-116080000D03*
%TD*%
%TO.C,D53*%
X143192500Y-119380000D03*
X143192500Y-116080000D03*
%TD*%
%TO.C,D63*%
X362267500Y-100330000D03*
X362267500Y-97030000D03*
%TD*%
%TO.C,D91*%
X381317500Y-157480000D03*
X381317500Y-154180000D03*
%TD*%
%TO.C,D52*%
X124142500Y-119380000D03*
X124142500Y-116080000D03*
%TD*%
%TO.C,D19*%
X90805000Y-81280000D03*
X90805000Y-77980000D03*
%TD*%
%TO.C,D94*%
X462280000Y-147955000D03*
X462280000Y-144655000D03*
%TD*%
%TO.C,D75*%
X247967500Y-138430000D03*
X247967500Y-135130000D03*
%TD*%
%TO.C,D90*%
X362267500Y-157480000D03*
X362267500Y-154180000D03*
%TD*%
%TO.C,D39*%
X176530000Y-100330000D03*
X176530000Y-97030000D03*
%TD*%
%TO.C,D59*%
X257492500Y-119380000D03*
X257492500Y-116080000D03*
%TD*%
%TO.C,D83*%
X102711250Y-157480000D03*
X102711250Y-154180000D03*
%TD*%
%TO.C,D89*%
X343217500Y-154180000D03*
X343217500Y-157480000D03*
%TD*%
%TO.C,D18*%
X71755000Y-81280000D03*
X71755000Y-77980000D03*
%TD*%
%TO.C,D55*%
X181292500Y-119380000D03*
X181292500Y-116080000D03*
%TD*%
%TO.C,D54*%
X162242500Y-119380000D03*
X162242500Y-116080000D03*
%TD*%
%TO.C,D24*%
X186055000Y-81280000D03*
X186055000Y-77980000D03*
%TD*%
%TO.C,D93*%
X443230000Y-157480000D03*
X443230000Y-154180000D03*
%TD*%
%TO.C,D34*%
X81280000Y-100330000D03*
X81280000Y-97030000D03*
%TD*%
%TO.C,D40*%
X195580000Y-100330000D03*
X195580000Y-97030000D03*
%TD*%
%TO.C,D49*%
X62230000Y-119380000D03*
X62230000Y-116080000D03*
%TD*%
%TO.C,D68*%
X114617500Y-138430000D03*
X114617500Y-135130000D03*
%TD*%
%TO.C,D16*%
X381317500Y-52705000D03*
X381317500Y-49405000D03*
%TD*%
%TO.C,D41*%
X214630000Y-100330000D03*
X214630000Y-97030000D03*
%TD*%
%TO.C,D8*%
X214630000Y-52705000D03*
X214630000Y-49405000D03*
%TD*%
%TO.C,D87*%
X293211250Y-154180000D03*
X293211250Y-157480000D03*
%TD*%
%TO.C,D84*%
X174148750Y-157480000D03*
X174148750Y-154180000D03*
%TD*%
%TO.C,D50*%
X86042500Y-119380000D03*
X86042500Y-116080000D03*
%TD*%
%TO.C,D71*%
X171767500Y-138430000D03*
X171767500Y-135130000D03*
%TD*%
%TO.C,D17*%
X52705000Y-81280000D03*
X52705000Y-77980000D03*
%TD*%
%TO.C,D1*%
X52705000Y-52705000D03*
X52705000Y-49405000D03*
%TD*%
%TO.C,D88*%
X317023750Y-157480000D03*
X317023750Y-154180000D03*
%TD*%
%TO.C,D100*%
X462280000Y-77980000D03*
X462280000Y-81280000D03*
%TD*%
%TO.C,D58*%
X238442500Y-119380000D03*
X238442500Y-116080000D03*
%TD*%
%TO.C,D20*%
X109855000Y-81280000D03*
X109855000Y-77980000D03*
%TD*%
%TO.C,D36*%
X119380000Y-100330000D03*
X119380000Y-97030000D03*
%TD*%
%TO.C,D97*%
X405130000Y-77980000D03*
X405130000Y-81280000D03*
%TD*%
%TO.C,D7*%
X195580000Y-52705000D03*
X195580000Y-49405000D03*
%TD*%
%TO.C,D85*%
X245586250Y-154180000D03*
X245586250Y-157480000D03*
%TD*%
%TO.C,D3*%
X109855000Y-52705000D03*
X109855000Y-49405000D03*
%TD*%
%TO.C,D42*%
X233680000Y-100330000D03*
X233680000Y-97030000D03*
%TD*%
%TO.C,D98*%
X424180000Y-77980000D03*
X424180000Y-81280000D03*
%TD*%
%TO.C,D82*%
X78898750Y-157480000D03*
X78898750Y-154180000D03*
%TD*%
%TO.C,D62*%
X343217500Y-100330000D03*
X343217500Y-97030000D03*
%TD*%
%TO.C,D23*%
X167005000Y-81280000D03*
X167005000Y-77980000D03*
%TD*%
%TO.C,D57*%
X219392500Y-119380000D03*
X219392500Y-116080000D03*
%TD*%
%TO.C,D21*%
X128905000Y-81280000D03*
X128905000Y-77980000D03*
%TD*%
%TO.C,D65*%
X57467500Y-138430000D03*
X57467500Y-135130000D03*
%TD*%
%TO.C,D72*%
X190817500Y-138430000D03*
X190817500Y-135130000D03*
%TD*%
%TO.C,D37*%
X138430000Y-100330000D03*
X138430000Y-97030000D03*
%TD*%
%TO.C,D44*%
X271780000Y-100330000D03*
X271780000Y-97030000D03*
%TD*%
%TO.C,D38*%
X157480000Y-100330000D03*
X157480000Y-97030000D03*
%TD*%
%TO.C,D48*%
X381317500Y-81280000D03*
X381317500Y-77980000D03*
%TD*%
%TO.C,D15*%
X362267500Y-52705000D03*
X362267500Y-49405000D03*
%TD*%
%TO.C,D29*%
X281305000Y-81280000D03*
X281305000Y-77980000D03*
%TD*%
%TO.C,D6*%
X176530000Y-52705000D03*
X176530000Y-49405000D03*
%TD*%
%TO.C,D4*%
X128905000Y-52705000D03*
X128905000Y-49405000D03*
%TD*%
%TO.C,D76*%
X267017500Y-138430000D03*
X267017500Y-135130000D03*
%TD*%
%TO.C,D64*%
X381317500Y-100330000D03*
X381317500Y-97030000D03*
%TD*%
%TO.C,D2*%
X90805000Y-52705000D03*
X90805000Y-49405000D03*
%TD*%
%TO.C,D5*%
X147955000Y-52705000D03*
X147955000Y-49405000D03*
%TD*%
%TO.C,D77*%
X309880000Y-138430000D03*
X309880000Y-135130000D03*
%TD*%
%TO.C,D70*%
X152717500Y-138430000D03*
X152717500Y-135130000D03*
%TD*%
M02*
