M48
; DRILL file {KiCad 9.0.1} date 2026-08-20T16:42:35+0200
; FORMAT={-:-/ absolute / inch / decimal}
; #@! TF.CreationDate,2026-08-20T16:42:35+02:00
; #@! TF.GenerationSoftware,Kicad,Pcbnew,9.0.1
; #@! TF.FileFunction,NonPlated,1,2,NPTH
FMAT,2
INCH
; #@! TA.AperFunction,NonPlated,NPTH,ComponentDrill
T1C0.0689
; #@! TA.AperFunction,NonPlated,NPTH,ComponentDrill
T2C0.1200
; #@! TA.AperFunction,NonPlated,NPTH,ComponentDrill
T3C0.1260
; #@! TA.AperFunction,NonPlated,NPTH,ComponentDrill
T4C0.1570
; #@! TA.AperFunction,NonPlated,NPTH,ComponentDrill
T5C0.1575
%
G90
G05
T1
X1.5Y-1.7
X1.5Y-2.825
X1.593Y-5.075
X1.5938Y-5.825
X1.6875Y-3.575
X1.781Y-4.325
X1.9Y-1.7
X1.9Y-2.825
X1.993Y-5.075
X1.9937Y-5.825
X2.0875Y-3.575
X2.181Y-4.325
X2.25Y-2.825
X2.4375Y-5.075
X2.5312Y-5.825
X2.625Y-3.575
X2.65Y-2.825
X2.8125Y-4.325
X2.8375Y-5.075
X2.9312Y-5.825
X3.0Y-1.7
X3.0Y-2.825
X3.025Y-3.575
X3.1875Y-5.075
X3.2125Y-4.325
X3.375Y-3.575
X3.4Y-1.7
X3.4Y-2.825
X3.469Y-5.825
X3.5625Y-4.325
X3.5875Y-5.075
X3.75Y-2.825
X3.7504Y-1.7
X3.775Y-3.575
X3.869Y-5.825
X3.9375Y-5.075
X3.9625Y-4.325
X4.125Y-3.575
X4.15Y-2.825
X4.1504Y-1.7
X4.3125Y-4.325
X4.3375Y-5.075
X4.5Y-1.7
X4.5Y-2.825
X4.525Y-3.575
X4.6875Y-5.075
X4.7125Y-4.325
X4.875Y-3.575
X4.9Y-1.7
X4.9Y-2.825
X5.0625Y-4.325
X5.0875Y-5.075
X5.25Y-1.7
X5.25Y-2.825
X5.275Y-3.575
X5.4375Y-5.075
X5.4625Y-4.325
X5.625Y-3.575
X5.65Y-1.7
X5.65Y-2.825
X5.8125Y-4.325
X5.8375Y-5.075
X6.0Y-2.825
X6.025Y-3.575
X6.1875Y-5.075
X6.2125Y-4.325
X6.2812Y-5.825
X6.375Y-1.7
X6.375Y-3.575
X6.4Y-2.825
X6.5625Y-4.325
X6.5875Y-5.075
X6.6812Y-5.825
X6.75Y-2.825
X6.775Y-1.7
X6.775Y-3.575
X6.9375Y-5.075
X6.9625Y-4.325
X7.125Y-1.7
X7.125Y-3.575
X7.15Y-2.825
X7.3125Y-4.325
X7.3375Y-5.075
X7.5Y-2.825
X7.525Y-1.7
X7.525Y-3.575
X7.6875Y-5.075
X7.7125Y-4.325
X7.875Y-1.7
X7.875Y-3.575
X7.9Y-2.825
X8.0625Y-4.325
X8.0875Y-5.075
X8.25Y-2.825
X8.275Y-1.7
X8.275Y-3.575
X8.4375Y-5.075
X8.4625Y-4.325
X8.625Y-1.7
X8.625Y-3.575
X8.65Y-2.825
X8.8125Y-4.325
X8.8375Y-5.075
X9.0Y-2.825
X9.025Y-1.7
X9.025Y-3.575
X9.0938Y-5.825
X9.1875Y-5.075
X9.2125Y-4.325
X9.375Y-3.575
X9.4Y-2.825
X9.4938Y-5.825
X9.5625Y-4.325
X9.5875Y-5.075
X9.75Y-1.7
X9.75Y-2.825
X9.775Y-3.575
X9.9375Y-5.075
X9.9625Y-4.325
X10.0312Y-5.825
X10.125Y-3.575
X10.15Y-1.7
X10.15Y-2.825
X10.3125Y-4.325
X10.3375Y-5.075
X10.4313Y-5.825
X10.5Y-1.7
X10.5Y-2.825
X10.525Y-3.575
X10.7125Y-4.325
X10.875Y-3.575
X10.9Y-1.7
X10.9Y-2.825
X10.9688Y-5.825
X11.061Y-4.325
X11.25Y-1.7
X11.275Y-3.575
X11.343Y-5.075
X11.3688Y-5.825
X11.461Y-4.325
X11.625Y-2.825
X11.65Y-1.7
X11.743Y-5.075
X11.907Y-5.825
X12.0Y-1.7
X12.025Y-2.825
X12.1062Y-3.75
X12.1062Y-4.15
X12.307Y-5.825
X12.4Y-1.7
X12.9375Y-1.7
X12.9375Y-2.825
X12.9375Y-3.575
X12.9375Y-5.825
X13.3375Y-1.7
X13.3375Y-2.825
X13.3375Y-3.575
X13.3375Y-5.825
X13.6875Y-1.7
X13.6875Y-2.825
X13.6875Y-3.575
X13.6875Y-5.075
X13.6875Y-5.825
X14.0875Y-1.7
X14.0875Y-2.825
X14.0875Y-3.575
X14.0875Y-5.075
X14.0875Y-5.825
X14.4375Y-1.7
X14.4375Y-2.825
X14.4375Y-3.575
X14.4375Y-5.825
X14.8375Y-1.7
X14.8375Y-2.825
X14.8375Y-3.575
X14.8375Y-5.825
X15.375Y-2.825
X15.375Y-3.575
X15.375Y-4.325
X15.375Y-5.075
X15.75Y-5.825
X15.775Y-2.825
X15.775Y-3.575
X15.775Y-4.325
X15.775Y-5.075
X16.125Y-2.825
X16.125Y-3.575
X16.125Y-4.325
X16.125Y-5.075
X16.15Y-5.825
X16.525Y-2.825
X16.525Y-3.575
X16.525Y-4.325
X16.525Y-5.075
X16.875Y-2.825
X16.875Y-3.575
X16.875Y-4.325
X16.875Y-5.075
X16.875Y-5.825
X17.275Y-2.825
X17.275Y-3.575
X17.275Y-4.325
X17.275Y-5.075
X17.275Y-5.825
X17.625Y-2.825
X17.825Y-3.75
X17.825Y-4.15
X17.825Y-5.25
X17.825Y-5.65
X18.025Y-2.825
T2
X4.5125Y-6.1426
X8.4495Y-6.1426
X11.0738Y-5.3926
X11.3562Y-3.1426
X11.7887Y-3.4812
X11.7887Y-4.4212
X12.0137Y-5.3926
X12.2963Y-3.1426
X15.4812Y-6.1426
X16.4213Y-6.1426
X17.5Y-3.48
X17.5Y-4.42
X17.5074Y-4.98
X17.5074Y-5.92
T3
X0.9695Y-0.9695
X0.9702Y-6.5541
X6.8307Y-0.9703
X6.8313Y-6.5538
X12.6921Y-6.5542
X12.6924Y-0.9706
X18.5539Y-0.9704
X18.554Y-6.5542
T4
X4.5125Y-5.5438
X8.4495Y-5.5438
X11.0738Y-4.7938
X11.3562Y-2.5437
X12.0137Y-4.7938
X12.2963Y-2.5437
X12.3875Y-3.4812
X12.3875Y-4.4212
X15.4812Y-5.5438
X16.4213Y-5.5438
X18.0988Y-3.48
X18.0988Y-4.42
X18.1062Y-4.98
X18.1062Y-5.92
T5
X1.7Y-1.7
X1.7Y-2.825
X1.793Y-5.075
X1.7937Y-5.825
X1.8875Y-3.575
X1.981Y-4.325
X2.45Y-2.825
X2.6375Y-5.075
X2.7312Y-5.825
X2.825Y-3.575
X3.0125Y-4.325
X3.2Y-1.7
X3.2Y-2.825
X3.3875Y-5.075
X3.575Y-3.575
X3.669Y-5.825
X3.7625Y-4.325
X3.95Y-2.825
X3.9504Y-1.7
X4.1375Y-5.075
X4.325Y-3.575
X4.5125Y-4.325
X4.7Y-1.7
X4.7Y-2.825
X4.8875Y-5.075
X5.075Y-3.575
X5.2625Y-4.325
X5.45Y-1.7
X5.45Y-2.825
X5.6375Y-5.075
X5.825Y-3.575
X6.0125Y-4.325
X6.2Y-2.825
X6.3875Y-5.075
X6.4813Y-5.825
X6.575Y-1.7
X6.575Y-3.575
X6.7625Y-4.325
X6.95Y-2.825
X7.1375Y-5.075
X7.325Y-1.7
X7.325Y-3.575
X7.5125Y-4.325
X7.7Y-2.825
X7.8875Y-5.075
X8.075Y-1.7
X8.075Y-3.575
X8.2625Y-4.325
X8.45Y-2.825
X8.6375Y-5.075
X8.825Y-1.7
X8.825Y-3.575
X9.0125Y-4.325
X9.2Y-2.825
X9.2937Y-5.825
X9.3875Y-5.075
X9.575Y-3.575
X9.7625Y-4.325
X9.95Y-1.7
X9.95Y-2.825
X10.1375Y-5.075
X10.2312Y-5.825
X10.325Y-3.575
X10.5125Y-4.325
X10.7Y-1.7
X10.7Y-2.825
X11.075Y-3.575
X11.1687Y-5.825
X11.261Y-4.325
X11.45Y-1.7
X11.543Y-5.075
X11.825Y-2.825
X12.1062Y-3.95
X12.107Y-5.825
X12.2Y-1.7
X13.1375Y-1.7
X13.1375Y-2.825
X13.1375Y-3.575
X13.1375Y-5.825
X13.8875Y-1.7
X13.8875Y-2.825
X13.8875Y-3.575
X13.8875Y-5.075
X13.8875Y-5.825
X14.6375Y-1.7
X14.6375Y-2.825
X14.6375Y-3.575
X14.6375Y-5.825
X15.575Y-2.825
X15.575Y-3.575
X15.575Y-4.325
X15.575Y-5.075
X15.95Y-5.825
X16.325Y-2.825
X16.325Y-3.575
X16.325Y-4.325
X16.325Y-5.075
X17.075Y-2.825
X17.075Y-3.575
X17.075Y-4.325
X17.075Y-5.075
X17.075Y-5.825
X17.825Y-2.825
X17.825Y-3.95
X17.825Y-5.45
M30
