M48
; DRILL file {KiCad 9.0.1} date 2026-09-08T17:36:31+0200
; FORMAT={-:-/ absolute / inch / decimal}
; #@! TF.CreationDate,2026-09-08T17:36:31+02:00
; #@! TF.GenerationSoftware,Kicad,Pcbnew,9.0.1
; #@! TF.FileFunction,Plated,1,2,PTH
FMAT,2
INCH
; #@! TA.AperFunction,Plated,PTH,ViaDrill
T1C0.0157
; #@! TA.AperFunction,Plated,PTH,ComponentDrill
T2C0.0276
; #@! TA.AperFunction,Plated,PTH,ComponentDrill
T3C0.0354
; #@! TA.AperFunction,Plated,PTH,ComponentDrill
T4C0.0430
; #@! TA.AperFunction,Plated,PTH,ComponentDrill
T5C0.0512
; #@! TA.AperFunction,Plated,PTH,ComponentDrill
T6C0.1201
%
G90
G05
T1
X2.339Y-3.139
X2.4433Y-2.1409
X2.448Y-3.248
X2.4875Y-5.389
X2.4875Y-5.499
X2.5592Y-2.0212
X2.675Y-3.891
X2.727Y-4.007
X3.105Y-3.155
X3.194Y-3.244
X3.2375Y-5.381
X3.3001Y-5.4939
X3.425Y-3.885
X3.4652Y-4.7473
X3.472Y-4.012
X3.5572Y-4.6552
X3.607Y-2.168
X3.7475Y-2.0275
X3.848Y-3.148
X3.95Y-3.25
X4.1686Y-5.3694
X4.175Y-3.885
X4.211Y-4.011
X4.2183Y-4.7443
X4.2676Y-5.4684
X4.3042Y-4.6582
X4.3353Y-2.1897
X4.5075Y-2.0175
X4.6Y-3.15
X4.698Y-3.248
X4.925Y-3.887
X4.9662Y-4.7462
X4.967Y-4.007
X5.0652Y-4.6472
X5.0701Y-2.2049
X5.2545Y-2.0205
X5.345Y-3.145
X5.457Y-3.257
X5.675Y-3.895
X5.675Y-4.003
X5.7092Y-4.7532
X5.7387Y-2.2197
X5.8133Y-4.6493
X5.9577Y-1.9977
X6.091Y-3.141
X6.202Y-3.252
X6.425Y-3.885
X6.462Y-4.022
X6.4672Y-4.7452
X6.5732Y-4.6392
X6.851Y-3.151
X6.905Y-2.2394
X6.948Y-3.248
X7.123Y-2.021
X7.175Y-3.887
X7.215Y-4.015
X7.2162Y-4.7462
X7.3113Y-4.6513
X7.599Y-3.149
X7.611Y-2.2591
X7.699Y-3.249
X7.851Y-2.019
X7.925Y-3.887
X7.9623Y-4.7503
X7.967Y-4.007
X7.967Y-4.007
X8.0561Y-5.3759
X8.0663Y-4.6463
X8.1961Y-5.5159
X8.35Y-3.15
X8.359Y-2.2787
X8.45Y-3.25
X8.621Y-2.017
X8.675Y-3.885
X8.7152Y-4.7473
X8.7174Y-3.9986
X8.8181Y-5.3879
X8.8193Y-4.6433
X8.9293Y-5.499
X9.097Y-3.147
X9.192Y-3.242
X9.2375Y-4.735
X9.319Y-4.653
X9.425Y-3.885
X9.4303Y-2.2965
X9.459Y-3.999
X9.6864Y-2.0384
X9.9875Y-4.649
X9.9875Y-4.745
X10.0241Y-3.1519
X10.1181Y-3.2459
X10.1636Y-2.3142
X10.175Y-3.899
X10.222Y-4.002
X10.4564Y-2.0164
X10.601Y-3.151
X10.699Y-3.249
X10.7027Y-5.409
X10.8019Y-5.5081
X10.8794Y-2.3361
X11.1125Y-3.995
X11.113Y-3.889
X11.2008Y-2.0148
X11.2648Y-6.0532
X11.379Y-6.1291
X11.391Y-3.889
X11.575Y-3.887
X11.583Y-4.711
X11.583Y-4.711
X11.6203Y-2.3496
X11.697Y-5.479
X11.703Y-4.589
X11.773Y-5.557
X11.773Y-5.557
X11.9594Y-2.0094
X12.0062Y-4.1
X12.637Y-6.1291
X12.6687Y-5.343
X12.6687Y-5.455
X12.761Y-6.1281
X12.9875Y-3.127
X12.9875Y-3.251
X12.9875Y-3.901
X12.9875Y-3.989
X12.9875Y-5.337
X12.9875Y-5.453
X13.015Y-2.023
X13.017Y-2.3673
X13.4707Y-5.365
X13.4707Y-5.4582
X13.7375Y-2.023
X13.7375Y-2.4077
X13.7375Y-3.125
X13.7375Y-3.243
X13.7375Y-3.899
X13.7375Y-3.993
X14.487Y-2.423
X14.4875Y-2.027
X14.4875Y-3.129
X14.4875Y-3.249
X14.4875Y-3.897
X14.4875Y-3.999
X15.1062Y-2.075
X15.1062Y-2.5437
X15.211Y-1.435
X15.2417Y-2.2104
X15.289Y-1.433
X15.3248Y-2.1273
X15.425Y-3.147
X15.425Y-3.253
X15.425Y-3.895
X15.425Y-3.999
X15.425Y-4.651
X15.425Y-4.751
X15.5051Y-5.3869
X15.6151Y-5.4969
X15.711Y-1.475
X15.805Y-1.381
X15.899Y-1.475
X15.9904Y-2.3289
X16.0297Y-2.2896
X16.175Y-3.143
X16.175Y-3.249
X16.175Y-3.897
X16.175Y-3.999
X16.175Y-4.645
X16.175Y-4.751
X16.3053Y-2.3289
X16.3447Y-2.2896
X16.621Y-2.313
X16.623Y-2.5045
X16.669Y-2.311
X16.669Y-2.505
X16.699Y-1.2659
X16.717Y-2.309
X16.717Y-2.505
X16.767Y-2.309
X16.767Y-2.5045
X16.805Y-1.6596
X16.805Y-1.6596
X16.805Y-1.725
X16.8368Y-1.4825
X16.925Y-3.143
X16.925Y-3.245
X16.925Y-3.905
X16.925Y-4.005
X16.925Y-4.643
X16.925Y-4.751
X16.925Y-5.395
X16.925Y-5.491
X17.005Y-1.725
X17.065Y-1.075
X17.549Y-3.247
X17.629Y-4.251
X17.629Y-4.749
X17.649Y-3.147
T2
X17.238Y-1.605
X17.238Y-1.7581
X17.238Y-1.9156
X17.238Y-2.07
X17.538Y-1.605
X17.538Y-1.7581
X17.538Y-1.9156
X17.538Y-2.07
T3
X17.225Y-1.2346
X17.225Y-1.3346
X17.465Y-1.2346
X17.465Y-1.3346
X17.705Y-1.2348
X17.705Y-1.3348
X17.945Y-1.2348
X17.945Y-1.3348
T4
X16.0203Y-0.9707
X16.0203Y-1.0707
X16.0203Y-1.1707
X16.0203Y-1.2707
X16.0203Y-1.3707
X16.0203Y-1.4707
X16.0203Y-1.5707
X16.0203Y-1.6707
X16.0203Y-1.7707
X16.0203Y-1.8707
X16.0203Y-1.9707
X16.0203Y-2.0707
X16.6203Y-0.9707
X16.6203Y-1.0707
X16.6203Y-1.1707
X16.6203Y-1.2707
X16.6203Y-1.3707
X16.6203Y-1.4707
X16.6203Y-1.5707
X16.6203Y-1.6707
X16.6203Y-1.7707
X16.6203Y-1.8707
X16.6203Y-1.9707
X16.6203Y-2.0707
T5
X16.921Y-1.829
X16.921Y-2.0849
T6
X1.55Y-1.6
X1.55Y-2.725
X1.643Y-4.975
X1.6438Y-5.725
X1.7375Y-3.475
X1.8Y-1.5
X1.8Y-2.625
X1.831Y-4.225
X1.893Y-4.875
X1.8938Y-5.625
X1.9875Y-3.375
X2.081Y-4.125
X2.3Y-2.725
X2.4875Y-4.975
X2.55Y-2.625
X2.5812Y-5.725
X2.675Y-3.475
X2.7375Y-4.875
X2.8312Y-5.625
X2.8625Y-4.225
X2.925Y-3.375
X3.05Y-1.6
X3.05Y-2.725
X3.1125Y-4.125
X3.2375Y-4.975
X3.3Y-1.5
X3.3Y-2.625
X3.425Y-3.475
X3.4875Y-4.875
X3.519Y-5.725
X3.6125Y-4.225
X3.675Y-3.375
X3.769Y-5.625
X3.8Y-2.725
X3.8004Y-1.6
X3.8625Y-4.125
X3.9875Y-4.975
X4.05Y-2.625
X4.0504Y-1.5
X4.175Y-3.475
X4.2375Y-4.875
X4.3625Y-4.225
X4.425Y-3.375
X4.55Y-1.6
X4.55Y-2.725
X4.6125Y-4.125
X4.7375Y-4.975
X4.8Y-1.5
X4.8Y-2.625
X4.925Y-3.475
X4.9875Y-4.875
X5.1125Y-4.225
X5.175Y-3.375
X5.3Y-1.6
X5.3Y-2.725
X5.3625Y-4.125
X5.4875Y-4.975
X5.55Y-1.5
X5.55Y-2.625
X5.675Y-3.475
X5.7375Y-4.875
X5.8625Y-4.225
X5.925Y-3.375
X6.05Y-2.725
X6.1125Y-4.125
X6.2375Y-4.975
X6.3Y-2.625
X6.3312Y-5.725
X6.425Y-1.6
X6.425Y-3.475
X6.4875Y-4.875
X6.5812Y-5.625
X6.6125Y-4.225
X6.675Y-1.5
X6.675Y-3.375
X6.8Y-2.725
X6.8625Y-4.125
X6.9875Y-4.975
X7.05Y-2.625
X7.175Y-1.6
X7.175Y-3.475
X7.2375Y-4.875
X7.3625Y-4.225
X7.425Y-1.5
X7.425Y-3.375
X7.55Y-2.725
X7.6125Y-4.125
X7.7375Y-4.975
X7.8Y-2.625
X7.925Y-1.6
X7.925Y-3.475
X7.9875Y-4.875
X8.1125Y-4.225
X8.175Y-1.5
X8.175Y-3.375
X8.3Y-2.725
X8.3625Y-4.125
X8.4875Y-4.975
X8.55Y-2.625
X8.675Y-1.6
X8.675Y-3.475
X8.7375Y-4.875
X8.8625Y-4.225
X8.925Y-1.5
X8.925Y-3.375
X9.05Y-2.725
X9.1125Y-4.125
X9.1437Y-5.725
X9.2375Y-4.975
X9.3Y-2.625
X9.3937Y-5.625
X9.425Y-3.475
X9.4875Y-4.875
X9.6125Y-4.225
X9.675Y-3.375
X9.8Y-1.6
X9.8Y-2.725
X9.8625Y-4.125
X9.9875Y-4.975
X10.05Y-1.5
X10.05Y-2.625
X10.0812Y-5.725
X10.175Y-3.475
X10.2375Y-4.875
X10.3312Y-5.625
X10.3625Y-4.225
X10.425Y-3.375
X10.55Y-1.6
X10.55Y-2.725
X10.6125Y-4.125
X10.8Y-1.5
X10.8Y-2.625
X10.925Y-3.475
X11.0187Y-5.725
X11.111Y-4.225
X11.175Y-3.375
X11.2687Y-5.625
X11.3Y-1.6
X11.361Y-4.125
X11.393Y-4.975
X11.55Y-1.5
X11.643Y-4.875
X11.675Y-2.725
X11.9062Y-3.85
X11.925Y-2.625
X11.957Y-5.725
X12.0062Y-4.1
X12.05Y-1.6
X12.207Y-5.625
X12.3Y-1.5
X12.9875Y-1.6
X12.9875Y-2.725
X12.9875Y-3.475
X12.9875Y-5.725
X13.2375Y-1.5
X13.2375Y-2.625
X13.2375Y-3.375
X13.2375Y-5.625
X13.7375Y-1.6
X13.7375Y-2.725
X13.7375Y-3.475
X13.7375Y-4.975
X13.7375Y-5.725
X13.9875Y-1.5
X13.9875Y-2.625
X13.9875Y-3.375
X13.9875Y-4.875
X13.9875Y-5.625
X14.4875Y-1.6
X14.4875Y-2.725
X14.4875Y-3.475
X14.4875Y-5.725
X14.7375Y-1.5
X14.7375Y-2.625
X14.7375Y-3.375
X14.7375Y-5.625
X15.425Y-2.725
X15.425Y-3.475
X15.425Y-4.225
X15.425Y-4.975
X15.675Y-2.625
X15.675Y-3.375
X15.675Y-4.125
X15.675Y-4.875
X15.8Y-5.725
X16.05Y-5.625
X16.175Y-2.725
X16.175Y-3.475
X16.175Y-4.225
X16.175Y-4.975
X16.425Y-2.625
X16.425Y-3.375
X16.425Y-4.125
X16.425Y-4.875
X16.925Y-2.725
X16.925Y-3.475
X16.925Y-4.225
X16.925Y-4.975
X16.925Y-5.725
X17.175Y-2.625
X17.175Y-3.375
X17.175Y-4.125
X17.175Y-4.875
X17.175Y-5.625
X17.625Y-3.85
X17.625Y-5.35
X17.675Y-2.725
X17.725Y-4.1
X17.725Y-5.6
X17.925Y-2.625
M30
